<?xml version="1.0" encoding="utf-8"?>
<!-- Generator: Adobe Illustrator 22.1.0, SVG Export Plug-In . SVG Version: 6.00 Build 0)  -->
<svg version="1.1" id="Layer_1" xmlns="http://www.w3.org/2000/svg" xmlns:xlink="http://www.w3.org/1999/xlink" x="0px" y="0px"
	 viewBox="0 0 1280 1024" style="enable-background:new 0 0 1280 1024;" xml:space="preserve">
<style type="text/css">
	.st0{fill:#85A0E9;}
	.st1{fill:#5656AC;}
	.st2{fill:#28287D;}
	.st3{fill:#6B6BD6;}
	.st4{fill:#DBF9FF;}
	.st5{fill:#4949D6;}
	.st6{fill:#4141AC;}
	.st7{fill:#FF9999;}
	.st8{fill:#248AB3;}
	.st9{fill:#FF5757;}
	.st10{fill:#592108;}
	.st11{fill:#4EB2D9;}
	.st12{fill:#FFFFFF;}
	.st13{fill:#6B2709;}
	.st14{opacity:0.53;fill:#FFBABA;}
	.st15{opacity:0.61;fill:#FFBDBD;}
	.st16{fill:#291018;}
	.st17{fill:#521E07;}
	.st18{fill:#DB3549;}
	.st19{fill:#CFCFFF;}
	.st20{fill:#51247D;}
	.st21{fill:#00196A;}
	.st22{fill:#9762CC;}
	.st23{fill:#0028AD;}
	.st24{opacity:0.48;fill:#FF5757;}
	.st25{fill:#B1C0E9;}
	.st26{fill:#C8D1E9;}
	.st27{fill:#A80A71;}
	.st28{opacity:0.45;fill:url(#SVGID_1_);}
	.st29{opacity:0.32;fill:#FFFFFF;}
	.st30{fill:#EB9F86;}
	.st31{fill:#1D8F62;}
	.st32{fill:#FD7E6A;}
	.st33{fill:#62CCA2;}
	.st34{fill:#FD5F44;}
	.st35{fill:#401F43;}
	.st36{fill:#EBC0A0;}
	.st37{fill:#130604;}
	.st38{fill:#EB0A55;}
	.st39{fill:#200F21;}
	.st40{fill:#04070F;}
	.st41{fill:#24799E;}
	.st42{fill:#12214A;}
	.st43{fill:#62ACCC;}
	.st44{opacity:0.45;fill:url(#SVGID_2_);}
	.st45{fill:#FF8A64;}
	.st46{opacity:0.33;fill:#E05426;}
	.st47{fill:#E05426;}
	.st48{fill:#4444D6;}
	.st49{fill:#252525;}
	.st50{opacity:0.43;fill:#B1C0E9;}
	.st51{opacity:0.28;}
	.st52{fill:#FF8452;}
	.st53{fill:#371510;}
	.st54{opacity:0.45;fill:#E05426;}
	.st55{fill:#FFA88C;}
	.st56{fill:#230F0B;}
	.st57{fill:#E8132C;}
	.st58{fill:#240912;}
</style>
<g>
	<path class="st0" d="M441.6,776c-33.2,0-61.2,3-69.6,7.1c-28.5-3.6-71.7-5.8-120.1-5.8c-85.8,0-155.3,7.1-155.3,15.9
		s69.5,15.9,155.3,15.9c82.9,0,150.5-6.7,155-15c10.3,0.8,22.1,1.2,34.7,1.2c39.9,0,72.2-4.3,72.2-9.6S481.4,776,441.6,776z"/>
	<g>
		<g>
			<g>
				<path class="st1" d="M352.2,776h-45.1c-2.9,0-5.5-1.7-6.7-4.4L278.3,721h7.7c21.7,0,42.3-9.5,56.3-26l7.2-8.4H163.8
					c3.4,19.6,20.5,34.4,41,34.4h7.2l22.7,44.3c2.5,4.9-1,10.6-6.5,10.6h-91.6c-8.8,0-17.1,4-22.6,10.9l-1.4,1.7h263.5
					C370.7,780.7,361.8,776,352.2,776z"/>
				<path class="st2" d="M228.2,776h78.9c-2.9,0-5.5-1.7-6.7-4.4L278.3,721H212l22.7,44.3C237.2,770.2,233.7,776,228.2,776z"/>
			</g>
			<g>
				<path class="st3" d="M353.4,677.4l-25.4,0.4l-20.9,0.1l-5.2,0l-2.6,0c-0.4,0-1,0-1.2,0l-0.9,0c-1.2,0-2.4-0.2-3.6-0.3
					c-1.2-0.2-2.4-0.4-3.5-0.8c-9-2.4-16.8-9.3-20.2-18.1L228,473.3c-1.5-6.8-8.3-11.2-15.2-9.7H112.6l17.9,69.1L162.9,676
					l86.5,21.5l11-6.3c6.4,5.6,14,9.8,22.2,12.1c2.2,0.7,4.4,1.1,6.7,1.5c2.3,0.3,4.5,0.6,6.8,0.6l1.7,0.1c0.6,0,0.9,0,1.4,0l2.6,0
					l5.2,0l20.9,0.1l25.4,0.4h0.1c7.9,0,14.3-6.5,14.2-14.4C367.7,683.8,361.3,677.4,353.4,677.4z"/>
				<path class="st4" d="M127.8,473.3l42.1,186.4l-0.5-1.7c3.3,9.1,11.2,16.3,20.4,18.7c1.1,0.4,2.3,0.5,3.5,0.8
					c1.2,0.1,2.4,0.3,3.6,0.3l0.9,0c0.3,0,0.8,0,1.2,0l2.6,0l5.2,0l20.9-0.1l83.6-0.4c7.9,0,14.3,6.3,14.4,14.2
					c0,7.9-6.3,14.3-14.2,14.4h-0.1l-83.6-0.4l-20.9-0.1l-5.2,0l-2.6,0c-0.5,0-0.8,0-1.4,0l-1.7-0.1c-2.3,0-4.6-0.4-6.8-0.6
					c-2.2-0.4-4.5-0.8-6.7-1.5c-8.8-2.5-17-7.1-23.6-13.3c-3.3-3.1-6.3-6.6-8.8-10.4c-2.5-3.8-4.5-7.9-6.1-12.2l-0.3-0.8l-0.2-0.9
					l-40.5-186.8c-1.5-6.9,2.9-13.7,9.8-15.2C119.5,462.2,126.2,466.5,127.8,473.3z"/>
				<g>
					<path class="st5" d="M220,499.9h-71.1c-0.9,0-1.7-0.7-1.7-1.7c0-0.9,0.7-1.7,1.7-1.7H220c0.9,0,1.7,0.7,1.7,1.7
						C221.7,499.1,221,499.9,220,499.9z"/>
					<path class="st5" d="M226.5,525.2h-71.1c-0.9,0-1.7-0.7-1.7-1.7c0-0.9,0.7-1.7,1.7-1.7h71.1c0.9,0,1.7,0.7,1.7,1.7
						C228.2,524.4,227.4,525.2,226.5,525.2z"/>
					<path class="st5" d="M233,550.5h-71.1c-0.9,0-1.7-0.7-1.7-1.7c0-0.9,0.7-1.7,1.7-1.7H233c0.9,0,1.7,0.7,1.7,1.7
						C234.7,549.7,233.9,550.5,233,550.5z"/>
					<path class="st5" d="M239.5,575.8h-71.1c-0.9,0-1.7-0.7-1.7-1.7c0-0.9,0.7-1.7,1.7-1.7h71.1c0.9,0,1.7,0.7,1.7,1.7
						C241.1,575,240.4,575.8,239.5,575.8z"/>
					<path class="st5" d="M246,601.1h-71.1c-0.9,0-1.7-0.7-1.7-1.7c0-0.9,0.7-1.7,1.7-1.7H246c0.9,0,1.7,0.7,1.7,1.7
						C247.6,600.3,246.9,601.1,246,601.1z"/>
					<path class="st5" d="M252.4,626.4h-71.1c-0.9,0-1.7-0.7-1.7-1.7c0-0.9,0.7-1.7,1.7-1.7h71.1c0.9,0,1.7,0.7,1.7,1.7
						C254.1,625.6,253.3,626.4,252.4,626.4z"/>
					<path class="st5" d="M258.9,651.7h-71.1c-0.9,0-1.7-0.7-1.7-1.7c0-0.9,0.7-1.7,1.7-1.7h71.1c0.9,0,1.7,0.7,1.7,1.7
						C260.6,650.9,259.8,651.7,258.9,651.7z"/>
				</g>
			</g>
		</g>
		<g>
			<path class="st6" d="M319.2,629.3h-58.4c-12.5,0-22.6-10.1-22.6-22.6l0,0h103.5l0,0C341.7,619.2,331.6,629.3,319.2,629.3z"/>
			<g>
				<g>
					<g>
						<path class="st7" d="M377,566.1l-2.5-2.1c-1.2-1-2.8-1.3-4.2-0.8l-13.3,5.3l-3.7-4.3c-1.3-1.4-3.5-1.5-4.7,0l-3.2,3.7
							c-1.9,2.3-2.6,5.5-1.7,8.4l2.2,6.9c0.4,1.3,0.9,2.5,1.6,3.7l6,10.5c1.4,2.5,4,4.1,6.9,4.1l9.1,0.3c1.5,0,2.9-0.6,3.8-1.7
							l4.3-5.1c1.2-1.4,1.5-3.3,0.8-5.1l-3.9-10.3l3.5-8.8C378.8,569.2,378.3,567.3,377,566.1z"/>
					</g>
					<path class="st7" d="M354.9,581.7l-59.2-9.7l-31.7-55.4l-39.5,21.8l50.6,62.8c2.9,3.6,7.1,5.8,11.7,6.3
						c5.4,0.5,12.3,0.9,15.5,0.4l61.9-11.2L354.9,581.7z"/>
					<path class="st8" d="M253.8,574.9c9.7-6.8,21.2-13.7,33.1-18.1l-22.9-40.1l-39.5,21.8L253.8,574.9z"/>
				</g>
				<path class="st9" d="M359.9,589.6c3.2-1.1,10.2-3,13.4-3.7c-4.8-0.5-10.3,0.1-13.4,1.4c-0.1,0-1.3,0.3-1.8-2.7
					c-0.1-0.6,0.5-1.1,1.1-1.4c3.4-1.9,8.5-5.1,8.5-5.1c-2.9,1-5.8,2.2-8.5,3.6c-0.5,0.2-1.3-1.1-1.6-1.6c-0.4-0.7-0.5-2,0.1-2.5
					c3.2-2.2,7.6-5.5,10.3-7.8c-3.9,1.8-7.9,4.5-11.3,6.8c-0.5,0.4-1.3,0.8-1.9,0c-0.6-0.8-2-2.5-2-2.5s1,3,3,5.7
					c1.5,1.9,1.5,4.2,0.4,6.3c-0.7,1.3-4.2,1.8-7.5,1.9c0.1,0.5,5,2.1,8.3-0.2c0.2,2.9,3.2,7.6,4.6,7.5c1.1-0.1,2.2-0.3,3.2-0.7
					c1-0.4,1.9-0.7,2.8-0.6c0.6,0.1,1.2,0.4,1.5,0.8c0.5-0.2-0.2-2.2-1.3-2.3c-1.2-0.2-2.4,0.2-3.5,0.6c-0.9,0.3-1.8,0.6-2.6,0.6
					c-0.3,0-0.3,0-1-0.8l0,0c-0.4-0.5-0.9-1-1.2-1.6C358.8,590.8,359.1,589.9,359.9,589.6z"/>
			</g>
			<path class="st10" d="M169.2,460.3c0,0-12.6,14.3-9.7,34.5c1.7,11.9,22.2,24,38.8,31.8c14.1,6.7,29.7,7.1,44,1.1
				c14.8-6.2,32.2-16,37.8-29.9c10.3-25.5-25.3-54.5-25.3-54.5L169.2,460.3z"/>
			<g>
				<g>
					<path class="st11" d="M177.4,536.8l21.2,40.6c4.4,8.4,5.3,14.2,2.2,21c-1.1,2.4-2.5,4.5-4.1,6.5c-1.4,1.8-4,4.9-5.9,8.8
						c-7.6,15.7-4,30.5-4,30.5s3.2,5.9,41.6,12.6c30.4,5.3,37.8-9.4,37.8-9.4s4.3-6.3,0.8-24.4c-1.7-9.2-2-17.9,0.3-26.9l3-11.2
						c0.8-3,2-5.9,3.7-8.5l4-6.4c5.2-8.4,4.9-19.4-1.3-27.1c-0.3-0.4-0.6-0.8-1-1.1l-0.6-0.7c-4.2-4.6-7-10.3-8-16.4l0,0
						c-1.1-6.5-5.3-12.4-11.3-15.6c-8.4-4.5-21-9.9-32.6-9c-13.3,1.1-27,6-37.5,10.6C175.6,515,172,526.6,177.4,536.8z"/>
				</g>
				<path class="st8" d="M203.3,528.4l2.8,17.9c1.5,18.1,15.4,32.7,33.4,35c13.5,1.7,24.2,1,32-0.5c-0.5,1.3-1,2.6-1.4,4l-3,11.2
					c-2.3,9-2,17.7-0.3,26.9c3.4,18.1-0.8,24.4-0.8,24.4s-7.3,14.7-37.8,9.4c-38.4-6.7-41.6-12.6-41.6-12.6s-2.9-12.3,2.3-26.4l0,0
					v0c0.2-0.6,0.4-1.2,0.7-1.8c0.3-0.8,0.6-1.5,1-2.3c1.9-4,4.5-7,5.9-8.8c1.6-2,3.1-4.2,4.1-6.5c3.2-6.9,2.2-12.6-2.2-21
					l-21.2-40.6c-0.5-0.9-0.8-1.8-1.2-2.7L203.3,528.4z"/>
				<path class="st9" d="M254.6,508.5c-2.8-1.5-9.3-4.3-9.1-4.2l-2.7-27.8l-26.8-4.5l-3.3,29.6c0.1,0-5.7,1.3-8.7,2.2
					c27.2,7.9,31.5,33.5,47.9,26.8C260.7,527.1,258.3,516.8,254.6,508.5z"/>
				<path class="st12" d="M257.9,520.6H230c7.6,7.6,13,13.7,22,10C256.6,528.7,258.1,524.9,257.9,520.6z"/>
			</g>
			<g>
				<g>
					<path class="st9" d="M257.5,456.4c-4.6,9.5-2.2,20.1,5.3,23.7c7.5,3.6,17.3-1.1,21.9-10.6c4.6-9.5,2.2-20.1-5.3-23.7
						C271.9,442.2,262.1,446.9,257.5,456.4z"/>
					<path class="st13" d="M236.9,358.9c-14.4-0.7-28.7,7.1-37.3,21.9c-12.7-2.2-26.5,5.3-33.4,20c-7.1,15.4-4.2,34.4,6.5,43.5
						c12.5,10.1,62,0.5,84.6-4.6l17.4,30.1l11.5-35.6c1.8-5.4,4.5-10.5,7.7-15.2c2-2.9,3.6-6.3,4.3-10
						C302,391.6,298.4,361.9,236.9,358.9z"/>
					<g>
						<g>
							<g>
								<path class="st7" d="M217.8,404.3c1.4,30.8-21.7,43.7-28.3,46.7l-0.3,2.8c-4.3,43.2,32.2,56,49.9,55.2
									c31.5-1.4,44.5-22.9,38.8-51c-1.6-7.9,4.4-28.2,4.4-28.2C282.4,428.6,246.8,431.8,217.8,404.3z"/>
								<path class="st9" d="M239.2,470.1c0,0,10.3,5.3,20.6,0c0,0,2.1-7.2-10.3-7.2C237.5,463,239.2,470.1,239.2,470.1z"/>
								<path class="st9" d="M242.9,483.9c-10.7,0-13.6-8.1-13.6-8.2c-0.3-0.9,0.2-1.8,1-2.1c0.9-0.3,1.8,0.2,2.1,1
									c0.1,0.4,3.2,8.5,16.4,5.1c0.9-0.2,1.8,0.3,2,1.2c0.2,0.9-0.3,1.8-1.2,2C247.2,483.7,244.9,483.9,242.9,483.9z"/>
								<path class="st14" d="M229.4,481.3c0,0,6.3,7.4,16,4.8c0,0-5.4,4.2-11.1,2.3C228.5,486.7,229.4,481.3,229.4,481.3z"/>
								<path class="st15" d="M239.4,499.4c-14,0.6-38.9-6.1-49.3-26.8c6.2,28.2,34.2,37,49,36.4c22.9-1,36-12.6,39.3-29.7
									C272.1,490.9,259.1,498.5,239.4,499.4z"/>
								<g>
									<g>
										<g>
											<path class="st16" d="M267.8,453.5c-0.3,3.5-1.8,6.2-3.3,6.1c-1.5-0.1-2.5-3.1-2.3-6.6c0.3-3.5,1.8-6.2,3.3-6.1
												C267,447,268,450,267.8,453.5z"/>
										</g>
										<path class="st17" d="M275.9,446.4c0,0-7.4-8.3-16.5-8.4c0,0,4-8.4,11.7-4.3C278.7,437.8,275.9,446.4,275.9,446.4z"/>
									</g>
									<g>
										<g>
											<path class="st16" d="M226.6,450.1c-0.3,3.5,0.7,6.4,2.3,6.6c1.5,0.1,3-2.6,3.3-6.1c0.3-3.5-0.7-6.4-2.3-6.6
												C228.4,443.9,226.9,446.6,226.6,450.1z"/>
										</g>
										<path class="st17" d="M216.2,441.7c0,0,14.8-6.5,22.6-6.8c0,0-2.6-11.3-11.6-8.8C216.5,428.9,216.2,441.7,216.2,441.7z"/>
									</g>
									<g>
										<g>
											<g>
												<path class="st9" d="M221,471.4c-0.2,0-0.4-0.1-0.5-0.2c-0.6-0.3-0.8-1.1-0.4-1.6l4.5-7.3c0.3-0.6,1.1-0.7,1.7-0.4
													c0.6,0.3,0.8,1.1,0.4,1.6l-4.5,7.3C221.9,471.2,221.5,471.4,221,471.4z"/>
												<path class="st9" d="M213.3,470.7c-0.2,0-0.4-0.1-0.5-0.2c-0.6-0.3-0.8-1.1-0.4-1.6l4.5-7.3c0.3-0.6,1.1-0.7,1.7-0.4
													c0.6,0.3,0.8,1.1,0.4,1.6l-4.5,7.3C214.2,470.6,213.7,470.8,213.3,470.7z"/>
											</g>
											<g>
												<g>
													<g>
														<path class="st9" d="M267.5,475.1c-0.5,0-0.9-0.3-1.1-0.8l-3.3-8c-0.2-0.6,0.1-1.3,0.7-1.5c0.6-0.2,1.3,0.1,1.6,0.7
															l3.3,8c0.2,0.6-0.1,1.3-0.7,1.5C267.9,475.1,267.7,475.1,267.5,475.1z"/>
													</g>
												</g>
												<g>
													<g>
														<path class="st9" d="M273.7,474.9c-0.5,0-0.9-0.3-1.1-0.8l-3.3-8c-0.2-0.6,0.1-1.3,0.7-1.5c0.6-0.2,1.3,0.1,1.6,0.7
															l3.3,8c0.2,0.6-0.1,1.3-0.7,1.5C274,474.9,273.9,474.9,273.7,474.9z"/>
													</g>
												</g>
											</g>
										</g>
									</g>
								</g>
							</g>
							<g>
								<path class="st7" d="M200.7,448.9c6,10.7,4,23.3-4.5,28c-8.5,4.8-20.3,0-26.3-10.7c-6-10.7-4-23.3,4.5-28
									C182.9,433.4,194.6,438.2,200.7,448.9z"/>
								<path class="st9" d="M196.3,469.8c0-0.4-0.1-0.8-0.2-1.3c0.1,0.3,0.1,0.6,0.2,0.8c-0.1-2.2-0.5-4-1.1-5.4
									c-5.1-18.3-22.4-19.6-22.4-19.6c8.9,5,14.5,10.6,18,15.4c-6.3-2.3-15.7,3.3-15.7,3.3c11.3-3.4,16.5-1,19,1.8
									C195.8,467.8,196.3,469.8,196.3,469.8z"/>
							</g>
						</g>
					</g>
				</g>
			</g>
			<g>
				<g>
					<g>
						<path class="st9" d="M303.2,670.5c-3.3,3.2,4.3,19.8,4.3,19.8l-4.1,10.9c-1.9,4.9-2,10.2-0.5,15l19.9,63.4l15.4-0.6l9.1-105.4
							C347.3,673.5,324.8,649.3,303.2,670.5z"/>
						<path class="st18" d="M347.3,673.5c0,0-22.5-24.2-44.1-3c-3,3,3.1,17.1,4.2,19.5c11.3,0.7,24.8,0.4,38.7-2.2L347.3,673.5z"/>
						<polygon class="st19" points="322.7,779.5 338.1,778.9 340.9,746.6 314.3,752.5 						"/>
					</g>
					<g>
						<g>
							<path class="st20" d="M312.2,764.3c-0.1-0.9,1.3-1.4,1.9-0.7c1.1,1.2,2.4,2.3,4.3,2.6c6.1,1.1,8.8-6.3,14-8.8
								c5.1-2.5,10.5,7.3,10.5,7.3c0.5,0,0.9-0.1,1.4-0.1c0,0,0,0.1,0,0.1c9.4-2.1,24-3.5,33.2,6.1c3.4,3.5,5.1,11.6,4.1,18.1
								c0,0-41.1,9.7-65.8-2.9c-1.7-0.8-2.8-2.2-3-3.8L312.2,764.3z"/>
						</g>
					</g>
					<path class="st21" d="M347.7,677.6c2.1-6.7,4.4-18.3-7.2-30.6c-12.3-13-123.2-15.5-123.2-15.5s-6.3,24.7-1.5,37.1
						c4.9,12.4,87.8,10.7,100.4,11.5C322.8,681.1,336.5,682.2,347.7,677.6z"/>
				</g>
				<g>
					<g>
						<path class="st7" d="M269.1,674.9c-3.9,3.1,2.4,4.3,2.4,4.3l-9.1,23c-2.8,4.8-2.9,13.5-2.3,18.3l7.6,64.1h15.4l29.3-105
							C312.4,679.6,294.6,654.5,269.1,674.9z"/>
						<path class="st9" d="M269.1,674.9c-3.9,3.1,2.4,4.3,2.4,4.3l-5.6,14.2c10.4,2,27.9,3.1,43.5-3.2l3-10.6
							C312.4,679.6,294.6,654.5,269.1,674.9z"/>
						<polygon class="st12" points="267.7,784.5 283.1,784.5 292.1,752.3 264.5,757.3 						"/>
					</g>
					<g>
						<g>
							<path class="st22" d="M265.2,764.3c-0.1-0.9,1.3-1.4,1.9-0.7c1.1,1.2,2.4,2.3,4.3,2.6c6.1,1.1,8.8-6.3,14-8.8
								c5.1-2.5,10.5,7.3,10.5,7.3c0.5,0,0.9-0.1,1.4-0.1c0,0,0,0.1,0,0.1c9.4-2.1,24-3.5,33.2,6.1c3.4,3.5,5.1,11.6,4.1,18.1
								c0,0-41.1,9.7-65.8-2.9c-1.7-0.8-2.8-2.2-3-3.8L265.2,764.3z"/>
						</g>
					</g>
					<path class="st23" d="M183.3,674c-11.6-17.1,2.7-46,2.7-46s110.5,10.6,122,24.3c7.9,9.4,5.7,19.3,4.4,27.2
						c-0.4,2.3-9.7,7.3-23.3,7.9C253.2,689,193.4,688.8,183.3,674z"/>
				</g>
			</g>
			<path class="st1" d="M221.8,640.9h-58.4c-12.5,0-22.6-10.1-22.6-22.6l0,0h103.5l0,0C244.4,630.8,234.3,640.9,221.8,640.9z"/>
			<g>
				<g>
					<path class="st9" d="M249.7,612.7c2.1,0.1,4.4-0.1,6.6-0.3c2.6-2.4,7.5-7.1,9.3-10.5c1.7-3.2-0.8-5.7-0.8-5.7s-9,5.4-15.5,9.2
						c-0.8,0.5-1.6,0.8-2.4,1.1C248.4,608.3,249.4,610.4,249.7,612.7z"/>
					<path class="st7" d="M249.8,604.6C249.8,604.6,249.8,604.6,249.8,604.6c3.6-2.3,7.8-3.2,12.5-1.3c13.9,6.6,17,17.3,15.3,19.3
						c-2.5,2.9-14-7.3-17.4-9.4c3.3,2.2,10.2,11.1,8.3,14.9c-2,3.8-8.5-4-12.7-7.6c2.9,3.3,6.6,11.6,4.1,14.7
						c-2.4,2.7-11.5-9.1-11.6-8.9c0.1-0.1,6.8,10.8,4.5,14.5c-2.1,3.4-7.9-4.9-9.7-6.9l-1.6,0.8c-5.2,2.6-11.5,0.7-14.4-4.3
						l-3.8-6.6L249.8,604.6z"/>
				</g>
				<path class="st7" d="M238.7,618.4c0,0-36.8-19.6-57.4-29.4c3.2-4.6,15.3-37.2,20.3-49.6c3.4-8.5,1.9-18.4-4.5-25
					c-2.1-2.2-4.7-4.1-7.9-5.3c-24.4,5.6-45.5,83.4-45.5,91.1c0,10.6,10.8,15.5,13.2,17.3c16.9,12.2,82,14.7,82,14.7L238.7,618.4z"
					/>
				<path class="st11" d="M189.4,570.6c4.4-11.1,9.4-24.3,12.2-31.2c3.4-8.5,1.9-18.4-4.5-25c-2.1-2.2-4.7-4.1-7.9-5.3
					c-14.1,3.2-27.1,30.8-35.6,54.8C163.7,562.4,176.5,563,189.4,570.6z"/>
				<path class="st24" d="M150.2,612.8c1.1-1.7,1.8-3.8,1.8-6c0-4.9-3.2-9.1-7.7-10.6c-0.4,1.9-0.6,3.3-0.6,4
					C143.7,606,146.9,610,150.2,612.8z"/>
			</g>
		</g>
		<g>
			<g>
				<path class="st4" d="M502.7,322.6h-50.3V283c0-1.8-1.5-3.3-3.3-3.3s-3.3,1.5-3.3,3.3v39.6h-51.1c-1.8,0-3.3,1.5-3.3,3.3
					s1.5,3.3,3.3,3.3h51.1v404.8l-41.1,41.8c-1.3,1.3-1.3,3.4,0,4.7c0.6,0.6,1.5,1,2.3,1c0.9,0,1.7-0.3,2.4-1l39-39.7
					c0.2,0,0.4,0.1,0.7,0.1c0.3,0,0.5,0,0.7-0.1l38.2,37.5c1.3,1.3,3.4,1.3,4.7,0c1.3-1.3,1.3-3.4,0-4.7l-40.3-39.5V329.2h50.3
					c1.8,0,3.3-1.5,3.3-3.3S504.5,322.6,502.7,322.6z"/>
				<g>
					<g>
						<path class="st3" d="M397.3,778.8c-2.6-5.3-1.4-11.2,2.7-13.1c4-2,9.4,0.8,11.9,6.1c2.6,5.3,1.4,11.2-2.7,13.1
							C405.2,786.9,399.9,784.1,397.3,778.8z"/>
						<path class="st2" d="M400.8,767.4c3.6-1.7,8.2,0.4,10.3,4.8c2.1,4.4,1,9.4-2.6,11.1c-3.6,1.7-8.2-0.4-10.3-4.8
							C396,774,397.2,769.1,400.8,767.4 M398.5,762.6c-6.2,3-8.4,11.1-5,18.1c3.4,7,11.1,10.2,17.3,7.3c6.2-3,8.4-11.1,5-18.1
							C412.4,762.9,404.7,759.7,398.5,762.6L398.5,762.6z"/>
					</g>
					<path class="st4" d="M387.8,771.6l32.2,1.1c0,0-3.8-15.1-17.1-15C391.4,757.8,387.8,771.6,387.8,771.6z"/>
				</g>
				<g>
					<g>
						<path class="st3" d="M496.4,778.8c2.6-5.3,1.4-11.2-2.7-13.1c-4-2-9.4,0.8-11.9,6.1c-2.6,5.3-1.4,11.2,2.7,13.1
							C488.5,786.9,493.9,784.1,496.4,778.8z"/>
						<path class="st2" d="M493,767.4c3.6,1.7,4.7,6.7,2.6,11.1c-2.1,4.4-6.7,6.6-10.3,4.8c-3.6-1.7-4.7-6.7-2.6-11.1
							C484.8,767.8,489.4,765.6,493,767.4 M495.3,762.6c-6.2-3-13.9,0.3-17.3,7.3c-3.4,7-1.1,15.1,5,18.1c6.2,3,13.9-0.3,17.3-7.3
							C503.7,773.7,501.4,765.6,495.3,762.6L495.3,762.6z"/>
					</g>
					<path class="st4" d="M506,771.6l-32.2,1.1c0,0,3.8-15.1,17.1-15C502.3,757.8,506,771.6,506,771.6z"/>
				</g>
			</g>
			<g>
				<g>
					<path class="st25" d="M404.6,338.1h-23.6v-13.5c0-3.9,3.2-7.1,7.1-7.1h9.4c3.9,0,7.1,3.2,7.1,7.1V338.1z"/>
					<g>
						<path class="st26" d="M409,433.2h-33c-11.4,0-20.8-8.8-21.6-20.1l-4-54.4c-0.9-12.6,9-23.3,21.6-23.3H413
							c12.6,0,22.6,10.7,21.6,23.3l-4,54.4C429.8,424.4,420.3,433.2,409,433.2z"/>
						<path class="st27" d="M376,424.9h33c7,0,12.8-5.5,13.4-12.4l3.2-43.1c-27.3,1.3-49.8-2.5-66.7-7.5l3.7,50.6
							C363.1,419.4,369,424.9,376,424.9z"/>
						<linearGradient id="SVGID_1_" gradientUnits="userSpaceOnUse" x1="392.1374" y1="364.2787" x2="395.0849" y2="426.9114">
							<stop  offset="0" style="stop-color:#FF8595"/>
							<stop  offset="0.2086" style="stop-color:#FF8595;stop-opacity:0.7914"/>
							<stop  offset="0.8855" style="stop-color:#FF8595;stop-opacity:0"/>
						</linearGradient>
						<path class="st28" d="M376,424.9h33c7,0,12.8-5.5,13.4-12.4l3.2-43.1c-27.3,1.3-49.8-2.5-66.7-7.5l3.7,50.6
							C363.1,419.4,369,424.9,376,424.9z"/>
						<path class="st29" d="M359.7,345.7c-3.2,3.4-4.8,7.9-4.4,12.6l3.2,42.8c19-10.5,40.5-29.3,40.6-60.7h-27.1
							C367.3,340.3,362.9,342.2,359.7,345.7z"/>
					</g>
				</g>
				<rect x="369.4" y="380.3" class="st12" width="45" height="12.3"/>
			</g>
			<g>
				<path class="st27" d="M367.5,634.3c-0.8,0-1.6,0-2.3-0.1c-13.3-1.3-23-13.1-33.3-25.6c-10.4-12.7-21.1-25.7-36-27.9l0.5-3.3
					c16.2,2.4,27.3,16,38.1,29.1c9.8,12,19.1,23.3,31,24.4c7.5,0.7,15.6-2.6,24.8-10.2c35.4-29.3,1.3-204.2,1-206l3.3-0.6
					c1.4,7.3,34.8,178.6-2.1,209.1C383.4,630.6,375.2,634.3,367.5,634.3z"/>
				<path class="st4" d="M292.6,588c-1.8,0-3.3-1.5-3.3-3.3c0-4.5,1.3-8,3.8-10.5c3.3-3.3,7.4-3.4,7.8-3.4c1.8,0,3.3,1.5,3.3,3.3
					c0,1.8-1.5,3.3-3.3,3.3c-1.2,0-5,0.7-5,7.3C295.9,586.5,294.5,588,292.6,588z"/>
			</g>
		</g>
	</g>
</g>
<g>
	<path class="st0" d="M1174.8,777.4c-39.9,0-72.2,4.3-72.2,9.6c0,0.8,0.7,1.5,1.9,2.2c-30.1-5.1-90-8.5-159-8.5
		c-99.2,0-179.6,7.1-179.6,15.9c0,8.8,80.4,15.9,179.6,15.9c99.2,0,179.6-7.1,179.6-15.9c0-1.1-1.2-2.1-3.4-3.1
		c13.2,1.9,32.1,3.1,53.1,3.1c39.9,0,72.2-4.3,72.2-9.6S1214.7,777.4,1174.8,777.4z"/>
	<g>
		<g>
			<g>
				<g>
					<path class="st1" d="M841.9,776H887c2.9,0,5.5-1.7,6.7-4.4l22.2-50.6h-7.7c-21.7,0-42.3-9.5-56.3-26l-7.2-8.4h185.7
						c-3.4,19.6-20.5,34.4-41,34.4h-7.2l-22.7,44.3c-2.5,4.9,1,10.6,6.5,10.6h91.6c8.8,0,17.1,4,22.6,10.9l1.4,1.7H818
						C823.4,780.7,832.3,776,841.9,776z"/>
					<path class="st2" d="M965.9,776H887c2.9,0,5.5-1.7,6.7-4.4l22.2-50.6h66.3l-22.7,44.3C956.9,770.2,960.4,776,965.9,776z"/>
				</g>
				<g>
					<path class="st3" d="M840.7,677.4l25.4,0.4l20.9,0.1l5.2,0l2.6,0c0.4,0,1,0,1.2,0l0.9,0c1.2,0,2.4-0.2,3.6-0.3
						c1.2-0.2,2.4-0.4,3.5-0.8c9-2.4,16.8-9.3,20.2-18.1l41.9-185.4c1.5-6.8,8.3-11.2,15.2-9.7h100.3l-17.9,69.1L1031.2,676
						l-86.5,21.5l-11-6.3c-6.4,5.6-14,9.8-22.2,12.1c-2.2,0.7-4.4,1.1-6.7,1.5c-2.3,0.3-4.5,0.6-6.8,0.6l-1.7,0.1
						c-0.6,0-0.9,0-1.4,0l-2.6,0l-5.2,0l-20.9,0.1l-25.4,0.4h-0.1c-7.9,0-14.3-6.5-14.2-14.4C826.4,683.8,832.8,677.4,840.7,677.4z"
						/>
					<path class="st4" d="M1066.3,473.3l-42.1,186.4l0.5-1.7c-3.3,9.1-11.2,16.3-20.4,18.7c-1.1,0.4-2.3,0.5-3.5,0.8
						c-1.2,0.1-2.4,0.3-3.6,0.3l-0.9,0c-0.3,0-0.8,0-1.2,0l-2.6,0l-5.2,0l-20.9-0.1l-83.6-0.4c-7.9,0-14.3,6.3-14.4,14.2
						s6.3,14.3,14.2,14.4h0.1l83.6-0.4l20.9-0.1l5.2,0l2.6,0c0.5,0,0.8,0,1.4,0l1.7-0.1c2.3,0,4.6-0.4,6.8-0.6
						c2.2-0.4,4.5-0.8,6.7-1.5c8.8-2.5,17-7.1,23.6-13.3c3.3-3.1,6.3-6.6,8.8-10.4c2.5-3.8,4.5-7.9,6.1-12.2l0.3-0.8l0.2-0.9
						l40.5-186.8c1.5-6.9-2.9-13.7-9.8-15.2C1074.7,462.2,1067.9,466.5,1066.3,473.3z"/>
					<g>
						<path class="st5" d="M974.1,499.9h71.1c0.9,0,1.7-0.7,1.7-1.7c0-0.9-0.7-1.7-1.7-1.7h-71.1c-0.9,0-1.7,0.7-1.7,1.7
							C972.4,499.1,973.2,499.9,974.1,499.9z"/>
						<path class="st5" d="M967.6,525.2h71.1c0.9,0,1.7-0.7,1.7-1.7c0-0.9-0.7-1.7-1.7-1.7h-71.1c-0.9,0-1.7,0.7-1.7,1.7
							C965.9,524.4,966.7,525.2,967.6,525.2z"/>
						<path class="st5" d="M961.1,550.5h71.1c0.9,0,1.7-0.7,1.7-1.7c0-0.9-0.7-1.7-1.7-1.7h-71.1c-0.9,0-1.7,0.7-1.7,1.7
							C959.5,549.7,960.2,550.5,961.1,550.5z"/>
						<path class="st5" d="M954.6,575.8h71.1c0.9,0,1.7-0.7,1.7-1.7c0-0.9-0.7-1.7-1.7-1.7h-71.1c-0.9,0-1.7,0.7-1.7,1.7
							C953,575,953.7,575.8,954.6,575.8z"/>
						<path class="st5" d="M948.2,601.1h71.1c0.9,0,1.7-0.7,1.7-1.7c0-0.9-0.7-1.7-1.7-1.7h-71.1c-0.9,0-1.7,0.7-1.7,1.7
							C946.5,600.3,947.2,601.1,948.2,601.1z"/>
						<path class="st5" d="M941.7,626.4h71.1c0.9,0,1.7-0.7,1.7-1.7c0-0.9-0.7-1.7-1.7-1.7h-71.1c-0.9,0-1.7,0.7-1.7,1.7
							C940,625.6,940.8,626.4,941.7,626.4z"/>
						<path class="st5" d="M935.2,651.7h71.1c0.9,0,1.7-0.7,1.7-1.7c0-0.9-0.7-1.7-1.7-1.7h-71.1c-0.9,0-1.7,0.7-1.7,1.7
							C933.6,650.9,934.3,651.7,935.2,651.7z"/>
					</g>
				</g>
			</g>
			<g>
				<path class="st6" d="M875,629.3h58.4c12.5,0,22.6-10.1,22.6-22.6l0,0H852.4l0,0C852.4,619.2,862.5,629.3,875,629.3z"/>
				<g>
					<g>
						<g>
							<path class="st30" d="M946.1,513.7l-45.3,61.8l-19.8-0.6c3.6,6.5,7.1,13.1,11,19.4c2.9,4.7,5.9,9.2,8.8,13.7
								c2.2-0.1,4.5-0.3,6.6-0.5c4.6-0.4,8.8-2.7,11.7-6.3l52-58.8L946.1,513.7z"/>
							<path class="st31" d="M941.8,575.6l29.2-33l-24.9-28.8l-29.9,40.8C924.3,557.5,933.4,563.6,941.8,575.6z"/>
						</g>
					</g>
					<g>
						<g>
							<path class="st30" d="M880.8,531.8l-19,5.1c3,12.6,9.7,39.8,15.2,51.7c8,17.4,22,22.2,31.8,18c0.5-0.2,1.1-0.5,1.6-0.9l0,0
								c3.4-2.2,2.4-2.6,3.1-7.7c1.3-9.5-2.4-22.5-11.3-32.5C896,558.5,886.3,540.8,880.8,531.8z"/>
						</g>
						<g>
							<path class="st30" d="M885,508.5L885,508.5c-0.6-1-4.7-7.9-7.2-8.8c-2.8-1-8.4,0.8-10.2,2.8c-1,1.1-1.7,6.5-2.7,9.6l-2.1-8.2
								c4-20.1-4-22.9-4.4-23l-0.9-0.3l-3.2,20.4c-0.3,1.7-0.2,3.6,0.3,5.3l1.7,7.8l-4-7c1.3-11.8-0.5-16.5-2.3-18.4
								c-1.2-1.3-2.4-1.3-2.6-1.3l-0.6,0l-2.9,16.1c-0.4,2.3-0.1,4.8,1,6.9l5.2,10.1c-4.9-3.9-9.2-5.7-12.7-5.4
								c-2.7,0.2-3.9,1.8-4,1.8l-0.5,0.6l16.2,14.5c0.4,0.4,2.2,2.8,3.9,5.1c1.9,2.6,4.3,5.9,6.4,8.4c1.6,2,6.9,5.1,10.3,4.8
								c2.2-0.2,1.8-3.1,4-4c5.1-2,9.4-5,10.1-6c3.3-4.6,5.5-17.8,5-19.3l-3.8-12.1l0,0l0,0L885,508.5z M881,518.4l-2.2,2.6
								l-3.5-5.8c-0.3-0.6-0.5-1.3-0.4-1.9l0.8-4.4c2.4,1.3,4.4,2,6,2C880.1,513.4,880.4,516.5,881,518.4z"/>
							<g>
								<path class="st32" d="M859.9,524.7c0,0,6.2-1.2,9.1,4.1l4-9.6L859.9,524.7z"/>
							</g>
						</g>
					</g>
				</g>
				<g>
					<g>
						<g>
							<path class="st33" d="M946.1,513.7c6.4-7.9,28.8-13,39.1-13c7.9,0,24.6,3.9,29.8,10.7c12.5,16.3,7.5,58.2,7.5,58.2l5,50.7
								c0,0-23.5,12.1-52.5,9.5c-8.2-0.7-33.8-9.8-34.8-16.9c-1.1-7.4-1.4-18.8,0.6-36.1C944.9,543.6,937.3,524.6,946.1,513.7z"/>
						</g>
						<path class="st31" d="M940.2,583.8c7.3,9.2,20,13,34.4,12.1c15-1,26.1-14.3,25.1-29.3l-3-44.8c0,0,7.6-5.1,17.3-11.5
							c0.4,0.4,0.8,0.8,1.1,1.2c12.5,16.3,7.5,58.2,7.5,58.2l4.8,49l0,0l0.2,1.7c0,0-23.5,12.1-52.5,9.5
							c-8.2-0.7-33.8-9.8-34.8-16.9C939.4,606.7,939,597.3,940.2,583.8z"/>
						<g>
							<g>
								<path class="st32" d="M992.4,501.5l-1.7-28.4l-28.9,10.1l-0.9,22.2c-2.5,0.9-3.8,1.3-6,2.4c-4.1,8.8-10.1,25.6,0.1,27.6
									c15.8,3,18.2-19.7,44.6-32.2C996.7,502.2,995.3,501.9,992.4,501.5z"/>
							</g>
						</g>
					</g>
				</g>
				<g>
					<path class="st34" d="M938,456.5c4.6,9.1,2.7,19.3-4.3,22.8c-7.1,3.5-16.6-1.1-21.4-10.3c-4.7-9.3-2.8-19.6,4.4-23
						C923.8,442.6,933.3,447.3,938,456.5z"/>
					<path class="st35" d="M1032.9,397.8c5.9,7.5-1.6,34.6-12.7,56.8c-4.6,9.3-12.8,15.2-20.3,14.9c-22.7-0.9-45.3-1.9-68-2.8
						c-7.3-0.3-13.8-6.2-16.9-14.8c-1.2-3.4-2.4-6.9-3.5-10.5c-7.3-0.3-12.6-0.6-12.7-0.7c-0.8-2.6-2-7.8-3-14.3c0,0,0,0,0,0
						c0-0.1,0-0.1,0-0.2c-0.1-0.6-0.2-1.2-0.2-1.8c0-0.2-0.1-0.4-0.1-0.7c-0.1-0.7-0.2-1.5-0.3-2.2c-0.1-0.6-0.1-1.2-0.2-1.8
						c0-0.3,0-0.6-0.1-0.9c-0.1-0.7-0.1-1.3-0.1-2c0-0.2,0-0.4,0-0.7c-0.2-3-0.1-6,0.3-9.1c2.8-26.1,22.4-47.3,47.9-53.6
						c5.3-1.3,11.4-2.4,18.1-2.9c23.3-1.7,53.7,4.3,68.1,38.5c0-7.1-0.3-14.2-0.6-21.3c0,0,8.7,9.5,6.5,22.1
						c2.6-3.7,5.2-7.4,7.8-11.2C1043,378.8,1042.8,394.5,1032.9,397.8z"/>
					<g>
						<g>
							<g>
								<path class="st30" d="M963.6,510.7c-32.8,11.1-46.1-18.5-46.1-43.3c0-9.9,0-39.5,0-39.5c0-18.5,15.3-34,34.2-34.7l23.7-0.9
									c18.9-0.7,34.2,13.7,34.2,32.2l-4.2,38.4C1005.5,487.7,978.7,505.5,963.6,510.7z"/>
							</g>
							<path class="st32" d="M947.2,491.9c0,0,9.9,0.2,11.6-8.6C958.8,483.3,960.1,497.6,947.2,491.9z"/>
							<path class="st36" d="M965.2,502.9c-22.6,6.8-36.9-1.7-44.6-15c5.6,17.5,19.1,30.9,43,22.8c11-3.7,28.3-14.2,36.8-29.3
								C990.1,492.2,975.3,499.8,965.2,502.9z"/>
							<g>
								<path class="st37" d="M955.1,470.5c0.6,1.2,1.1,2.6,1.4,4c1.3,6.5-2.1,12.6-7.5,13.7c-4.7,0.9-9.4-2.4-11.4-7.6L955.1,470.5
									z"/>
								<path class="st38" d="M949,488.2c-1.7,0.3-3.3,0.1-4.9-0.5c-0.1-5.3,3.3-9.9,8.2-10.9c1.5-0.3,3-0.2,4.5,0.2
									C956.8,482.5,953.7,487.3,949,488.2z"/>
							</g>
							<path class="st35" d="M1002.4,448.4c0,0-17.6-1.3-18.8-31.2c0,0-46.2-6.8-68.1,17.5l-5.3-23.1c0,0,33.1-28.8,34.2-29.1
								c1-0.3,45,2,45,2l26.1,14.1l4.7,22.1l-8.7,24.2L1002.4,448.4z"/>
							<g>
								<path class="st30" d="M994.8,451.7c-5.3,10.1-3.1,21.4,5,25.2c8.1,3.8,18.9-1.3,24.2-11.4c5.3-10.1,3.1-21.4-5-25.2
									C1011,436.5,1000.1,441.6,994.8,451.7z"/>
								<path class="st34" d="M999.5,470.5c0-0.4,0.1-0.8,0.2-1.2c-0.1,0.3-0.1,0.5-0.1,0.7c0.1-2,0.4-3.7,0.9-5
									c4.2-17,20.3-19.2,20.3-19.2c-8.2,5.1-13.2,10.6-16.4,15.1c5.8-2.5,14.7,2,14.7,2c-10.6-2.4-15.4,0.1-17.6,2.8
									C999.9,468.6,999.5,470.5,999.5,470.5z"/>
							</g>
							<g>
								<path class="st34" d="M933.2,467.9c0,3.6,2.2,6.5,4.9,6.4c2.7-0.1,4.9-3.1,4.9-6.7c0-3.6-2.2-13.2-4.9-13.1
									C935.4,454.6,933.2,464.3,933.2,467.9z"/>
								<g>
									<g>
										<path class="st16" d="M921.4,454.5c0.4,3.1,1.9,5.5,3.3,5.3c1.4-0.2,2.3-3,1.9-6.1c-0.4-3.1-1.9-5.5-3.3-5.3
											C921.8,448.6,921,451.3,921.4,454.5z"/>
									</g>
									<path class="st39" d="M917.5,434.1c0.8-0.6,1.7-1.2,2.8-1.7c10.3-5,12.4,4.6,12.4,4.6c-4.2,0.7-10.5,3.7-15.2,6.3
										C917.5,439.9,917.5,436.7,917.5,434.1z"/>
								</g>
								<g>
									<g>
										<path class="st16" d="M960,452.1c0.3,3.5-0.7,6.4-2.1,6.6c-1.4,0.2-2.8-2.5-3.1-6c-0.3-3.5,0.7-6.4,2.1-6.6
											C958.3,445.9,959.7,448.6,960,452.1z"/>
									</g>
									<path class="st39" d="M971.1,445c0,0-14.5-7.7-22.2-8.4c0,0,1.4-10,11.8-5.8C970.9,434.9,971.1,445,971.1,445z"/>
								</g>
								<g>
									<path class="st34" d="M963.6,473.7c0.2,0,0.3-0.1,0.5-0.1c0.6-0.3,0.8-1,0.5-1.6l-3.7-7.5c-0.3-0.6-1-0.8-1.6-0.5
										c-0.6,0.3-0.8,1-0.5,1.6l3.7,7.5C962.8,473.5,963.2,473.7,963.6,473.7z"/>
									<path class="st34" d="M971,473.4c0.2,0,0.3-0.1,0.5-0.1c0.6-0.3,0.8-1,0.5-1.6l-3.7-7.5c-0.3-0.6-1-0.8-1.6-0.5
										c-0.6,0.3-0.8,1-0.5,1.6l3.7,7.5C970.1,473.2,970.6,473.4,971,473.4z"/>
								</g>
								<g>
									<g>
										<path class="st34" d="M919.5,475.3c0.4,0,0.8-0.3,1.1-0.7l3.7-7.8c0.3-0.6,0-1.3-0.5-1.5c-0.6-0.3-1.3,0-1.6,0.6l-3.7,7.8
											c-0.3,0.6,0,1.3,0.5,1.5C919.1,475.3,919.3,475.3,919.5,475.3z"/>
									</g>
								</g>
							</g>
						</g>
					</g>
				</g>
				<g>
					<g>
						<path class="st40" d="M976.8,631.5c0,0-111.2,2.5-125.1,15.5c-10,9.3-11.9,18.3-11.7,25l0,0l-2.6,106.9l15.3,0.6l27.9-63.4
							c1.3-3,9.2-18.5,10.5-30.7c37.4-0.4,78.3-8.7,82.5-16.7C980,656.3,976.8,631.5,976.8,631.5z"/>
					</g>
					<g>
						<g>
							<g>
								<path class="st41" d="M859,764.8c0.1-0.9-1.3-1.4-2-0.7c-1.1,1.2-2.3,2.3-4.2,2.7c-6.1,1.1-9.1-6.4-14.4-8.9
									c-5.3-2.5-10.2,7.4-10.2,7.4c-0.5,0-0.9-0.1-1.4-0.1c0,0,0,0.1,0,0.1c-9.5-2.2-24.2-3.6-32.9,6.2
									c-3.2,3.6-4.5,11.8-3.2,18.4c0,0,41.6,9.9,65.6-3c1.6-0.9,2.7-2.2,2.8-3.8L859,764.8z"/>
							</g>
						</g>
						<path class="st12" d="M859.2,781.8c-14.4,4.1-30.1,5.1-43.3,4.8c0.6-11.5-4.1-18.4-8.6-22.3c-5,0.9-9.7,3-13.4,7.2
							c-2.4,2.7-3.7,7.9-3.7,13.2l0,0c0,0,0,0,0,0c0,0.9,0,1.8,0.1,2.7c0,0,0,0,0,0c0.1,0.9,0.2,1.7,0.4,2.6c0,0,41.6,9.9,65.6-3
							c1.6-0.9,2.7-2.2,2.8-3.8L859.2,781.8z"/>
					</g>
				</g>
				<g>
					<g>
						<path class="st42" d="M1008.1,628c0,0-110,10.7-120.7,24.7c-7.4,9.6-4.8,19.6-3,27.7L919,787h15.4l4.3-65.1
							c0.3-4.9,1.8-14.7-1.2-19.6l-4.7-13.3c33.8,0.2,72.9-2.4,80.3-14.4C1023.9,657.3,1008.1,628,1008.1,628z"/>
					</g>
					<g>
						<g>
							<g>
								<path class="st43" d="M935.9,766.4c0.1-0.9-1.3-1.4-2-0.7c-1.1,1.2-2.3,2.3-4.2,2.7c-6.1,1.1-9.1-6.4-14.4-8.9
									c-5.3-2.5-10.2,7.4-10.2,7.4c-0.5,0-0.9-0.1-1.4-0.1c0,0,0,0.1,0,0.1c-9.5-2.2-24.2-3.6-32.9,6.2
									c-3.2,3.6-4.5,11.8-3.2,18.4c0,0,41.6,9.9,65.6-3c1.6-0.9,2.7-2.2,2.8-3.8L935.9,766.4z"/>
							</g>
						</g>
						<path class="st12" d="M936.1,783.4c-14.4,4.1-30.1,5.1-43.3,4.8c0.6-11.5-4.1-18.4-8.6-22.3c-5,0.9-9.7,3-13.4,7.2
							c-2.4,2.7-3.7,7.9-3.7,13.2h0c0,0,0,0,0,0c0,0.9,0,1.8,0.1,2.7c0,0,0,0,0,0c0.1,0.9,0.2,1.7,0.4,2.6c0,0,41.6,9.9,65.6-3
							c1.6-0.9,2.7-2.2,2.8-3.8L936.1,783.4z"/>
					</g>
				</g>
				<path class="st1" d="M972.3,640.9h58.4c12.5,0,22.6-10.1,22.6-22.6l0,0H949.7l0,0C949.7,630.8,959.8,640.9,972.3,640.9z"/>
				<g>
					<g>
						<path class="st34" d="M942.5,614.5c-2,0.8-4.2,1.2-6.4,1.7c-3.2-1.5-9.4-4.5-12-7.2c-2.5-2.5-0.9-5.6-0.9-5.6
							s10.2,2.4,17.5,4.1c0.9,0.2,1.7,0.3,2.6,0.4C942.4,609.9,942.1,612.2,942.5,614.5z"/>
						<path class="st30" d="M939.9,606.8C939.9,606.8,939.9,606.8,939.9,606.8c-4.1-1.1-8.4-0.7-12.3,2.5c-11.2,10.5-11,21.6-8.8,23
							c3.3,2.1,11.2-11.2,13.8-14.2c-2.5,3.1-6.4,13.7-3.5,16.7c3.1,3,6.9-6.4,9.8-11.1c-1.8,4-2.8,13.1,0.5,15.2
							c3.1,1.8,8.3-12.1,8.4-12c-0.1-0.1-3.2,12.3,0.1,15.2c3.1,2.6,6-7.1,7.1-9.5l1.8,0.3c5.7,0.9,11.2-2.8,12.5-8.5l1.6-7.4
							L939.9,606.8z"/>
					</g>
					<path class="st30" d="M955.4,618.4c0,0,40.1-17.9,60.7-27.8c-3.2-4.6-18.6-38.8-23.6-51.2c-3.4-8.5-1.2-17.8,4.5-25
						c27.1-34.5,53.4,78.1,53.4,85.8c0,10.6-10.8,15.5-13.2,17.3c-16.9,12.2-82,14.7-82,14.7L955.4,618.4z"/>
					<path class="st33" d="M997,514.4c-5.7,7.2-7.9,16.5-4.5,25c2.9,7.1,9.2,21.4,14.6,33.2c7.6-5.4,18.8-11.5,32.9-13.9
						C1029.9,527.4,1013.6,493.3,997,514.4z"/>
					<path class="st32" d="M1044,612.8c-1.1-1.7-1.8-3.8-1.8-6c0-4.9,3.2-9.1,7.7-10.6c0.4,1.9,0.6,3.3,0.6,4
						C1050.4,606,1047.2,610,1044,612.8z"/>
				</g>
			</g>
		</g>
		<g>
			<g>
				<g>
					<path class="st4" d="M1228.8,322.6h-50.3V283c0-1.8-1.5-3.3-3.3-3.3s-3.3,1.5-3.3,3.3v39.6h-51.1c-1.8,0-3.3,1.5-3.3,3.3
						s1.5,3.3,3.3,3.3h51.1v404.8l-41.1,41.8c-1.3,1.3-1.3,3.4,0,4.7c0.6,0.6,1.5,1,2.3,1c0.9,0,1.7-0.3,2.4-1l39-39.7
						c0.2,0,0.4,0.1,0.7,0.1c0.3,0,0.5,0,0.7-0.1l38.2,37.5c1.3,1.3,3.4,1.3,4.7,0c1.3-1.3,1.3-3.4,0-4.7l-40.3-39.5V329.2h50.3
						c1.8,0,3.3-1.5,3.3-3.3S1230.7,322.6,1228.8,322.6z"/>
					<g>
						<g>
							<path class="st3" d="M1123.5,778.8c-2.6-5.3-1.4-11.2,2.7-13.1c4-2,9.4,0.8,11.9,6.1c2.6,5.3,1.4,11.2-2.7,13.1
								C1131.4,786.9,1126,784.1,1123.5,778.8z"/>
							<path class="st2" d="M1126.9,767.4c3.6-1.7,8.2,0.4,10.3,4.8c2.1,4.4,1,9.4-2.6,11.1c-3.6,1.7-8.2-0.4-10.3-4.8
								C1122.2,774,1123.4,769.1,1126.9,767.4 M1124.6,762.6c-6.2,3-8.4,11.1-5,18.1c3.4,7,11.1,10.2,17.3,7.3
								c6.2-3,8.4-11.1,5-18.1C1138.6,762.9,1130.8,759.7,1124.6,762.6L1124.6,762.6z"/>
						</g>
						<path class="st4" d="M1113.9,771.6l32.2,1.1c0,0-3.8-15.1-17.1-15C1117.6,757.8,1113.9,771.6,1113.9,771.6z"/>
					</g>
					<g>
						<g>
							<path class="st3" d="M1222.6,778.8c2.6-5.3,1.4-11.2-2.7-13.1c-4-2-9.4,0.8-11.9,6.1c-2.6,5.3-1.4,11.2,2.7,13.1
								C1214.7,786.9,1220,784.1,1222.6,778.8z"/>
							<path class="st2" d="M1219.2,767.4c3.6,1.7,4.7,6.7,2.6,11.1c-2.1,4.4-6.7,6.6-10.3,4.8c-3.6-1.7-4.7-6.7-2.6-11.1
								C1211,767.8,1215.6,765.6,1219.2,767.4 M1221.4,762.6c-6.2-3-13.9,0.3-17.3,7.3c-3.4,7-1.1,15.1,5,18.1
								c6.2,3,13.9-0.3,17.3-7.3C1229.9,773.7,1227.6,765.6,1221.4,762.6L1221.4,762.6z"/>
						</g>
						<path class="st4" d="M1232.2,771.6l-32.2,1.1c0,0,3.8-15.1,17.1-15C1228.5,757.8,1232.2,771.6,1232.2,771.6z"/>
					</g>
				</g>
				<g>
					<g>
						<path class="st25" d="M1130.8,338.1h-23.6v-13.5c0-3.9,3.2-7.1,7.1-7.1h9.4c3.9,0,7.1,3.2,7.1,7.1V338.1z"/>
						<g>
							<path class="st26" d="M1135.1,433.2h-33c-11.4,0-20.8-8.8-21.6-20.1l-4-54.4c-0.9-12.6,9-23.3,21.6-23.3h41.1
								c12.6,0,22.6,10.7,21.6,23.3l-4,54.4C1155.9,424.4,1146.5,433.2,1135.1,433.2z"/>
							<path class="st27" d="M1102.1,424.9h33c7,0,12.8-5.5,13.4-12.4l3.2-43.1c-27.3,1.3-49.8-2.5-66.7-7.5l3.7,50.6
								C1089.3,419.4,1095.1,424.9,1102.1,424.9z"/>
							
								<linearGradient id="SVGID_2_" gradientUnits="userSpaceOnUse" x1="1230.9565" y1="364.2787" x2="1233.9041" y2="426.9114" gradientTransform="matrix(1 0 0 1 -112.6708 0)">
								<stop  offset="0" style="stop-color:#FF8595"/>
								<stop  offset="0.2086" style="stop-color:#FF8595;stop-opacity:0.7914"/>
								<stop  offset="0.8855" style="stop-color:#FF8595;stop-opacity:0"/>
							</linearGradient>
							<path class="st44" d="M1102.1,424.9h33c7,0,12.8-5.5,13.4-12.4l3.2-43.1c-27.3,1.3-49.8-2.5-66.7-7.5l3.7,50.6
								C1089.3,419.4,1095.1,424.9,1102.1,424.9z"/>
							<path class="st29" d="M1085.9,345.7c-3.2,3.4-4.8,7.9-4.4,12.6l3.2,42.8c19-10.5,40.5-29.3,40.6-60.7h-27.1
								C1093.4,340.3,1089.1,342.2,1085.9,345.7z"/>
						</g>
					</g>
					<rect x="1095.5" y="380.3" class="st12" width="45" height="12.3"/>
				</g>
			</g>
			<g>
				<g>
					<path class="st27" d="M1089.7,645c-0.8,0-1.6,0-2.3-0.1c-13.3-1.3-23-13.1-33.3-25.6c-10.4-12.7-21.1-25.7-36-27.9l0.5-3.3
						c16.2,2.4,27.3,16,38.1,29.1c9.8,12,19.1,23.3,31,24.4c7.5,0.7,15.6-2.6,24.8-10.2c35.4-29.3,4.6-210.8,4.3-212.6l3.3-0.6
						c1.4,7.3,31.5,185.2-5.4,215.8C1105.6,641.3,1097.4,645,1089.7,645z"/>
					<path class="st4" d="M1009.5,593.9c-1-1.5-0.7-3.6,0.9-4.6c3.7-2.5,7.3-3.5,10.8-2.9c4.6,0.9,7,4.2,7.2,4.6
						c1,1.5,0.6,3.6-0.9,4.6c-1.5,1-3.5,0.7-4.6-0.8c-0.7-1-3.4-3.7-8.8,0C1012.6,595.8,1010.6,595.5,1009.5,593.9z"/>
				</g>
			</g>
		</g>
	</g>
</g>
<g>
	<ellipse class="st0" cx="634.9" cy="789.1" rx="96.9" ry="12.6"/>
	<g>
		<g>
			<g>
				<path class="st45" d="M729.8,437.4c-1.4-7.8-11.4-8.4-14-0.7c-13.9,41.3-21.6,61.2-21.6,61.2s-26.7-44.4-34.4-50.8
					c-15-12.6-31.1,7.9-32.5,23.3c-1.8,20,36.4,47.7,56.3,59c2.3,1.3,15.9,7.5,22.2,5.5c10.8-2.9,17.3-15.7,18.1-18.9
					C728.9,497.8,734.4,463.2,729.8,437.4z"/>
				<path class="st46" d="M717.6,527c-1.8-1-3.9-1.6-6.2-1.6c-6,0-11,4.1-12.5,9.6c2.6,0.5,5,0.6,6.9,0
					C710.7,533.8,714.6,530.5,717.6,527z"/>
				<path class="st12" d="M659.8,447.2c-15-12.6-31.1,7.9-32.5,23.3c-1.2,13.9,16.9,31.6,34.7,44.8c1.4-10.4,7-22.7,22.1-33.7
					C675.7,468.2,664.4,451,659.8,447.2z"/>
				<g>
					<path class="st45" d="M700.6,416.4L700.6,416.4L700.6,416.4l-0.6,12.7c-0.1,1.6,5.5,13.8,9.9,17.3c0.9,0.7,5.9,2.6,11.3,3.1
						c2.4,0.3,2.8,3.2,4.9,2.8c3.4-0.6,7.7-4.9,8.7-7.3c1.3-3,2.8-6.8,4-9.8c1.1-2.7,2.1-5.5,2.5-6l11.9-18.2l-0.6-0.4
						c-0.1-0.1-1.6-1.2-4.3-0.7c-3.5,0.6-7.1,3.4-10.9,8.5l2.4-11.1c0.5-2.3,0.2-4.8-0.8-6.9l-7-14.8l-0.6,0.1
						c-0.1,0-1.3,0.3-2.2,1.9c-1.2,2.3-1.8,7.3,2.6,18.4l-2.1,7.8l-0.3-8c0-1.7-0.3-3.5-1.1-5.2l-8.4-18.9l-0.8,0.5
						c-0.3,0.2-7.3,5,1.8,23.4l0.1,8.5c-1.8-2.7-3.9-7.7-5.1-8.5c-2.3-1.5-8.2-1.8-10.6-0.1c-2.2,1.6-4.3,9.3-4.6,10.4l-0.1,0
						L700.6,416.4z M704.4,417.6c1.5-0.4,3.3-1.6,5.3-3.5l1.9,4c0.3,0.6,0.3,1.3,0.1,1.9l-1.8,6.5l-2.8-2
						C707.2,422.6,706.6,419.5,704.4,417.6z"/>
					<g>
						<path class="st47" d="M729.1,425.2c0,0-6.3,0.5-7.7,6.3l-6.4-8.2L729.1,425.2z"/>
					</g>
				</g>
			</g>
			<g>
				<g>
					<g>
						<path class="st48" d="M557.2,741.8c1.3-1.1,2.7-2.4,3.4-3.2l0.3-0.4c0,0,0,0,0,0c0-0.1,0.1-0.3,0.3-0.4l59.5-79.8l-13.2-86.2
							h59.2c0,0,11.7,91.5-0.2,116.2c-12,24.7-64.1,45.5-87.6,61.4h-18.3C559.6,746.9,558.5,744.4,557.2,741.8z"/>
					</g>
					<g>
						<path class="st3" d="M671,766.7l-26.8,0c0.2-0.6-15.9-77-15.9-77c-1.3-8.2-4.6-16-9.7-22.6l-32.4-42
							c-6.7-8.7-12.6-20.1-12.6-31.2v-15.1l57.3-11.3c0,0,32.5,56.3,41.8,88.4c5.5,19.1-0.2,75.2-2.8,108.8
							C670.2,765.4,670.6,766.1,671,766.7z"/>
					</g>
				</g>
				<g>
					<g>
						<path class="st49" d="M642.4,763.4c-0.2-1.1,1.4-1.8,2.2-0.9c1.4,1.4,2.9,2.7,5.2,3.1c7.2,1,10-8.3,15.9-11.6
							c5.9-3.3,12.7,8.7,12.7,8.7c0.5-0.1,1.1-0.1,1.6-0.2c0,0,0,0.1,0,0.1c10.9-3.1,24.5-5.4,35.8,6.2c4.1,4.2,6.4,12.6,5.7,20.8
							c0,0-1.7,3.7-23.7,5.1c-12.2,0.8-31-0.7-48.5-8.9c-2-0.9-3.4-2.6-3.7-4.6L642.4,763.4z"/>
					</g>
				</g>
				<g>
					<path class="st49" d="M550.7,752.8C550.7,752.8,550.7,752.8,550.7,752.8L550.7,752.8c0-0.2,0-0.4,0.1-0.6c0,0,0-0.1,0-0.1l0,0
						c0.1-0.5,0.2-1.1,0.5-1.5l8.6-14.8c0.4-0.7,1.8-0.3,1.9,0.7c0.2,1.6,0.5,3.1,1.8,4.6c4.1,4.5,10.4,0.7,15.8,1.9
						c4.7,1.1,4.3,11.2,4.1,13.9c7.8,0.8,22.1,4.6,27.5,11.5c3.2,3.4,4.7,9.8,3.6,15.9c0,0-2,4.1-20.3,4c-7.3,0-17-0.1-27.1-2.7
						c-1-0.3-1.9-0.8-2.6-1.6c-9.2-10-12.6-25.3-13.5-30C550.8,753.7,550.7,753.3,550.7,752.8z"/>
				</g>
			</g>
			<g>
				<g>
					<path class="st47" d="M603.3,438.1l-0.5-23.9l-1.7-5.9l39.3,20l-1.7,7.7c4.7,1.1,8.6,2.5,11.7,4.4c4.8,6.4,6,17.7-3.9,19.7
						c-14.9,3-18.8-10.8-47-20.3C600.7,439.2,602,438.6,603.3,438.1z"/>
					<path class="st11" d="M613.9,497.7l-26.9-50.4c3.4-2.4,7.7-5.2,12.5-7.6c0,0,0,0,0,0c0.2-0.1,0.3-0.1,0.5-0.2
						c0.3-0.1,0.6-0.3,0.9-0.4c0,0,0,0,0.1,0c0.8-0.4,1.5-0.7,2.3-1l-0.1-2.5c20.4,4.2,40.1,13.5,40.1,13.5l3.5-10.4
						c1.3,0.6,2.6,1.1,3.7,1.8c6,3.5,9.5,8.1,11.5,13.2c3.4,8.9,7.4,36.7,7.8,40L613.9,497.7z"/>
					<polygon class="st12" points="653.6,474.9 633.9,472.5 643.3,449.1 655.5,460.5 					"/>
					<path class="st12" d="M573.6,578.9l5.7-31.3c1.9-10.5,2.7-21.2,2.3-31.8l-2.2-60.3l0.9-2.7c2.7-2.4,10.6-9,20.6-13.7
						c23.1,5.4,49.6,26.9,49.6,26.9c1.5-21.3,0-25.6,0-25.6c6,3.5,9.5,8.1,11.5,13.2c3.7,9.4,7.9,40.4,7.9,40.4
						c1.4,14.5-2.3,84.8-2.3,84.8C654.8,602.3,573.6,578.9,573.6,578.9z"/>
					<path class="st50" d="M667.6,578.9c0,0,1.3-24.3,2-47.2c-36.1,10.7-69.2-1.9-88-12.1c0.1,9.4-0.7,18.8-2.4,28.1l-5.7,31.3
						C573.6,578.9,654.8,602.3,667.6,578.9z"/>
				</g>
				<g class="st51">
					<g>
						<path class="st3" d="M643.2,448l2.1-0.9c0.2,0.5,13.9,43.8-1.9,143.7c-0.8,0.1-1.5,0.2-2.3,0.3
							C657,491.7,643.4,448.5,643.2,448z"/>
						<g>
							<path class="st3" d="M645.2,479.6c-0.1,2.2-1,3.9-1.8,3.9c-0.9,0-1.4-1.7-1.3-3.9c0.1-2.2,1-3.9,1.8-3.9
								C644.8,475.7,645.4,477.4,645.2,479.6z"/>
							<path class="st3" d="M646.4,509c-0.1,2.2-1,3.9-1.8,3.9c-0.9,0-1.4-1.7-1.3-3.9c0.1-2.2,1-3.9,1.8-3.9
								C646,505.1,646.5,506.8,646.4,509z"/>
							<path class="st3" d="M645.3,538.5c-0.1,2.2-1,3.9-1.8,3.9c-0.9,0-1.4-1.7-1.3-3.9c0.1-2.2,1-3.9,1.8-3.9
								C644.9,534.6,645.5,536.3,645.3,538.5z"/>
							<path class="st3" d="M644.3,567.9c-0.1,2.2-1,3.9-1.8,3.9c-0.9,0-1.4-1.7-1.3-3.9s1-3.9,1.8-3.9
								C643.8,564,644.4,565.8,644.3,567.9z"/>
						</g>
					</g>
				</g>
			</g>
			<g>
				<g>
					<path class="st52" d="M598.4,440.4c0,0-13.8,1.1-19.8,8.2c-6,7.1-41.5,72.3-26.6,95.5c0,0,20.6,19.3,35.6-25.7
						C613.5,440.6,598.4,440.4,598.4,440.4z"/>
					<path class="st12" d="M578.6,448.6c6-7.1,19.8-8.2,19.8-8.2s12.4,0.2-4.6,58.3c-6-4.8-16.8-11.5-33.4-15.6
						C567.7,466,576,451.7,578.6,448.6z"/>
				</g>
				<g>
					<path class="st3" d="M532.3,547.2H651c-1.2-4.9-5.5-8.5-10.7-8.5H532.3V547.2z"/>
					<path class="st4" d="M639.1,547.2h-117v-78c0-2.9,2.3-5.2,5.2-5.2h106.5c2.9,0,5.2,2.3,5.2,5.2V547.2z"/>
					<path class="st12" d="M586.5,508.7c0,4.7-3.8,8.6-8.6,8.6c-4.7,0-8.6-3.8-8.6-8.6c0-4.7,8.6-15,8.6-15S586.5,504,586.5,508.7z"
						/>
				</g>
				<g>
					<path class="st47" d="M546.3,552.5c-1.5-2.1-3.4-4-5.3-5.9c-4.4-0.7-12.7-2-17.4-1.2c-4.4,0.7-5,4.8-5,4.8s14.1,5.2,22.8,8.4
						C542.5,559,544.3,554.3,546.3,552.5z"/>
					<path class="st45" d="M534.5,554.5c0.2,0.2,0.4,0.4,0.7,0.6c1.5,1.3,5.9,3.2,6.3,3.5c8.1,3.6,29.7,11.5,37.8-2.8
						c2-3.6,0.3-8.2-3.7-9.7c0,0,0,0-0.1,0l-2.1-0.7c0.2-3,2.5-19.2-2.3-18.2c-5.1,1.2-8.8,15.3-8.6,15.2
						c-0.2,0.1,2.2-16.7-2.2-16.5c-4.7,0.4-8.8,10-9.2,15c-0.4-6.2,0.8-17.7-4.2-16.3c-4.9,1.5-6.6,14.2-5.7,18.6
						c-1.1-4.5-2.1-19.6-6.7-19.2c-3.2,0.2-9.7,8.9-3.6,25.4C531.9,551.5,533.1,553.2,534.5,554.5z"/>
				</g>
			</g>
		</g>
		<g>
			<path class="st47" d="M656.8,385.2c-3.4,9.7,0,19.8,7.7,22.6c7.7,2.7,16.8-2.9,20.2-12.7c3.4-9.7,0-19.8-7.7-22.6
				C669.3,369.8,660.3,375.5,656.8,385.2z"/>
			<g>
				<g>
					<path class="st53" d="M687.8,316c-28.6-38.5-83.5-23.4-90.6,1.6c-4.9-2.1-17.1-5.1-28.5,10.2c-8.1,10.9-10.8,27.2-9.9,42
						c0.9,15.1,12.7,27.2,27.7,29l19,2.3l19.3-47.5l-2.9-4l49.5,16.8C671.2,366.3,717.8,356.5,687.8,316z"/>
					<path class="st53" d="M573.6,397.5c0,0-1.4,42.7,43.4,25.8l-7.5-51.5L573.6,397.5z"/>
					<g>
						<path class="st45" d="M612.5,338.7c4.7,29.9-16.4,44.9-22.5,48.6l0,2.8c0.5,42.6,37.5,51.1,54.7,48.4
							c30.6-4.8,40.9-27.1,32.3-54c-2.4-7.5,1.3-28,1.3-28C678.2,355.4,643.8,362.4,612.5,338.7z"/>
						<path class="st54" d="M633,416.2c0,0,8,7.5,18,4.1C651,420.4,636.9,428.9,633,416.2z"/>
						<path class="st55" d="M679.3,408.5c0,0-9.6,20.1-29.3,24.7c-25.7,6-50.4-13-51.3-13.5c12.1,17,33.9,20.7,45.9,18.8
							C665.4,435.2,676.9,423.8,679.3,408.5L679.3,408.5z"/>
						<g>
							<path class="st56" d="M632.6,401c-0.5,1.5-0.8,3-0.8,4.7c0,7.4,5.8,13.4,13.1,13.4c6.3,0,11.6-4.6,12.8-10.7L632.6,401z"/>
							<path class="st57" d="M644.9,419.1c2.2,0,4.3-0.6,6.2-1.6c-1.2-5.8-6.7-10.2-13.2-10.2c-2,0-4,0.4-5.7,1.2
								C633.3,414.5,638.6,419.1,644.9,419.1z"/>
						</g>
						<g>
							<g>
								<g>
									<path class="st58" d="M666.6,381.2c0.1,3.4-1,6.3-2.5,6.3c-1.5,0-2.8-2.7-2.9-6.2c-0.1-3.4,1-6.3,2.5-6.3
										C665.1,375,666.4,377.8,666.6,381.2z"/>
								</g>
								<path class="st53" d="M673.8,373.5c0,0-8.1-7.3-17-6.4c0,0,2.5-7,10.4-3.9C675,366.4,673.8,373.5,673.8,373.5z"/>
							</g>
							<g>
								<g>
									<path class="st58" d="M626.1,382.5c0.1,3.4,1.4,6.2,2.9,6.2c1.5,0,2.6-2.9,2.5-6.3c-0.1-3.4-1.4-6.2-2.9-6.2
										C627.1,376.2,626,379,626.1,382.5z"/>
								</g>
								<path class="st53" d="M615,375.4c0,0,13.8-8,21.3-9.1c0,0-3-8-11.5-4.6C614.7,365.6,615,375.4,615,375.4z"/>
							</g>
							<g>
								<path class="st47" d="M655.7,395.8c0.1,3.7-2.3,6.7-5.5,6.8c-3.1,0.1-5.8-2.8-5.9-6.4c-0.1-3.7,2.1-13.5,5.3-13.6
									C652.7,382.5,655.6,392.2,655.7,395.8z"/>
								<g>
									<g>
										<path class="st47" d="M622.9,403.8c-0.2,0-0.4,0-0.5-0.1c-0.6-0.3-0.9-0.9-0.6-1.5l3.6-7.7c0.3-0.6,1-0.8,1.6-0.6
											c0.6,0.3,0.9,0.9,0.6,1.5l-3.6,7.7C623.8,403.5,623.4,403.8,622.9,403.8z"/>
										<path class="st47" d="M615.3,404c-0.2,0-0.4,0-0.5-0.1c-0.6-0.3-0.9-0.9-0.6-1.5l3.6-7.7c0.3-0.6,1-0.8,1.6-0.6
											c0.6,0.3,0.9,0.9,0.6,1.5l-3.6,7.7C616.2,403.7,615.7,404,615.3,404z"/>
									</g>
									<g>
										<g>
											<g>
												<path class="st47" d="M668.7,402.4c-0.4,0-0.9-0.2-1.1-0.6l-4-7.4c-0.3-0.6-0.1-1.3,0.5-1.6c0.6-0.3,1.3-0.1,1.6,0.5
													l4,7.4c0.3,0.6,0.1,1.3-0.5,1.6C669,402.3,668.9,402.4,668.7,402.4z"/>
											</g>
										</g>
										<g>
											<g>
												<path class="st47" d="M674.7,401.5c-0.4,0-0.9-0.2-1.1-0.6l-4-7.4c-0.3-0.6-0.1-1.3,0.5-1.6c0.6-0.3,1.3-0.1,1.6,0.5
													l4,7.4c0.3,0.6,0.1,1.3-0.5,1.6C675,401.5,674.8,401.5,674.7,401.5z"/>
											</g>
										</g>
									</g>
								</g>
							</g>
						</g>
					</g>
					<g>
						<path class="st45" d="M600.6,384c7,9.8,6.5,22.3-1.3,27.8c-7.8,5.6-19.8,2.2-26.8-7.6c-7-9.8-6.5-22.3,1.3-27.8
							C581.6,370.8,593.6,374.3,600.6,384z"/>
						<path class="st47" d="M598.6,404.9c-0.1-0.4-0.2-0.8-0.3-1.2c0.1,0.3,0.2,0.5,0.2,0.7c-0.4-2.1-0.9-3.9-1.7-5.2
							c-6.9-17.3-23.9-16.7-23.9-16.7c9.2,3.9,15.3,8.8,19.3,13c-6.4-1.6-14.9,4.9-14.9,4.9c10.6-4.5,16-2.8,18.7-0.3
							C597.9,403.1,598.6,404.9,598.6,404.9z"/>
					</g>
				</g>
			</g>
		</g>
	</g>
</g>
</svg>
