<?xml version="1.0" encoding="utf-8"?>
<!-- Generator: Adobe Illustrator 22.1.0, SVG Export Plug-In . SVG Version: 6.00 Build 0)  -->
<svg version="1.1" id="Layer_1" xmlns="http://www.w3.org/2000/svg" xmlns:xlink="http://www.w3.org/1999/xlink" x="0px" y="0px"
	 viewBox="0 0 1280 1024" style="enable-background:new 0 0 1280 1024;" xml:space="preserve">
<style type="text/css">
	.st0{fill:#FB897A;}
	.st1{fill:#74ACAE;}
	.st2{fill:#93CACE;}
	.st3{fill:#FFB89E;}
	.st4{opacity:0.21;fill:#74ACAE;}
	.st5{fill:#DC5151;stroke:#C9C9C9;stroke-miterlimit:10;}
	.st6{fill:#3A434B;}
	.st7{opacity:0.33;fill:#74ACAE;}
	.st8{fill:#303951;}
	.st9{opacity:0.68;fill:#FB897A;}
	.st10{fill:none;}
	.st11{fill:#FAE38B;}
	.st12{fill:none;stroke:#303951;stroke-miterlimit:10;}
	.st13{fill:#C9C9C9;}
	.st14{fill:#444F59;}
	.st15{fill:#FF9780;}
	.st16{fill:#5D9696;}
	.st17{fill:#DC5151;}
	.st18{opacity:0.22;fill:#E86C5E;}
	.st19{opacity:8.000000e-02;fill:#323942;}
	.st20{fill:#C6C6C6;}
	.st21{fill:#E8E8E8;}
	.st22{fill:#FFFFFF;}
	.st23{fill:#272D32;}
	.st24{opacity:0.3;fill:#FF9780;}
	.st25{opacity:0.29;fill:#FFFFFF;}
	.st26{fill:#ADE6E8;}
</style>
<g>
	<polygon class="st0" points="528.3,469.2 557.1,540.4 553.9,536.9 587.9,518.7 595.9,518.7 574.7,656.9 525.7,630.8 473.5,503.9 	
		"/>
	<path class="st1" d="M440.9,878.5c0,0,85.3-35.5,206.4-15.1c121.1,20.4,153.2,4.6,153.2,4.6l-5.4-105.9l-234.4-33.9l-119.8,30.7
		V878.5z"/>
	<path class="st2" d="M286.3,350.3c-1.7,1-71.6,31.1-94.6,79.4s-29.5,88-29.5,88s7.7,22.6,78.6,26.6
		c31.4,18.6,28.2,135.8,28.2,135.8l119.8-71.9l107.5,10.3l-11.5-100.4l57.2-28.5c0,0-40.1-133.3-144.9-145.4
		C313.6,334.6,286.3,350.3,286.3,350.3z"/>
	<path class="st3" d="M336.6,321.9l-76.2,41c0,0,71.9,78.6,113,83.5c49.3-12.2,79.8-88.5,79.8-88.5s-46.7-15.1-91.7-28.3
		C324.8,332.5,336.6,321.9,336.6,321.9z"/>
	<polygon class="st3" points="203.2,519.5 188,718.8 274.3,661.3 268.9,533.5 	"/>
	<path class="st2" d="M294.4,545.8c-83,17.8-140-17.4-140-17.4l25.4-71.2L294.4,545.8z"/>
	<polygon class="st4" points="272.9,645.3 270.4,487.4 289.1,555.5 354.1,612.1 	"/>
	<g>
		<path class="st5" d="M633.5,268.6c5.4,40.9-5.2,77.3-21.7,115.6c-13.5,31.2-26.5,61.2-29.4,94.9c-2.8,31.5,1.7,63.7,13,93.7
			c5.6,14.7,12.7,29,21.5,42.5c10.6,16.4,24.8,31.1,26.4,50.7c0.6,7.6,14,7.6,13.3,0c-2.6-31.4-30.5-55.8-43.4-84.2
			c-14.7-32.4-20.6-67.8-17.5-102.6c3.3-37.5,20.6-69.9,34.5-104.8c13.8-34.9,18.2-70.9,13.3-107.6
			C642.5,259.1,633.5,268.6,633.5,268.6z"/>
	</g>
	<g>
		<path class="st5" d="M673.8,272.7c-10.3,26.9-11,53.5-8.4,81.4c3.2,32.8,0.6,61.3-8.7,93.2c-15.3,52.2-13,103.2,11.4,153
			c3.4,7,14.9,0.9,11.5-6c-13-26.5-20.1-54.8-20.1-83.8c0-28,9.1-53.7,16-80.7c13.2-51.2-12-107.1,7.2-157.2
			C685.6,265.5,673.8,272.7,673.8,272.7z"/>
	</g>
	<path class="st1" d="M987.8,228.5c0,0-23.9-29.3-66.5-14.6c-42.6,14.7-269.1,245.4-286.9,324.8C616.7,618,667,641.3,667,641.3
		L974.6,369L987.8,228.5z"/>
	<path class="st2" d="M1251.5,289.5c0,0-194.2-82.6-263.7-68.3S834.7,370.5,834.7,370.5S720.2,524.4,717,530.4
		c-3.2,6,143.4,70.7,143.4,70.7l109-16.5L1251.5,289.5z"/>
	<path class="st4" d="M1094,234.4c0,0-134.5,39.8-198.8,172.6c-64.3,132.8,125.9,71.1,125.9,71.1S1110,348.2,1166.2,308
		c56.3-40.2,85.3-18.5,85.3-18.5S1119.6,236,1094,234.4z"/>
	<path class="st6" d="M744.7,396.3c0,0-33.5,104.8,12.7,125.8c46.2,21,81.9-64.1,81.9-64.1l-49.4-57.8L744.7,396.3z"/>
	<path class="st1" d="M913.2,645.3c0,0,202.5-348.6,299.5-360.4c97.1-11.8,60.5,114,60.5,114s-133.6,114.3-193.1,208
		s-72.1,201.5-113.8,196.2C924.6,797.9,913.2,645.3,913.2,645.3z"/>
	<path class="st2" d="M204.8,932c39-11.7,76.3-27.9,110.6-48.2c29.2-17.2,56.3-37.3,86.7-52.9c47.9-24.5,103.6-36.8,158.8-35.7
		c-4.2-7.6-10.3-14.7-18.8-20.9C497,741.1,327.9,673.5,327.6,673.8c-0.3,0.3-213.2,104.4-213.2,104.4l-40.2,44.6
		c0,0-18.5,112.7,0,157c0.4,0.9,0.8,1.8,1.3,2.7c15.5-12.5,34.4-21.7,54-28.6C154.1,945.1,179.8,939.5,204.8,932z"/>
	<g>
		<path class="st1" d="M1096.6,391c-3.7-4.3-7.8-8.3-11.9-12.1c-4.1-3.9-8.4-7.6-12.8-11.2c-8.7-7.2-17.9-14-27.4-20.1
			c-19-12.4-39.5-22.3-60.9-29.7c-10.7-3.7-21.7-6.6-32.7-8.9l-8.4-1.5c-1.4-0.3-2.8-0.5-4.2-0.6l-4.2-0.6l-4.2-0.6
			c-1.4-0.2-2.8-0.3-4.2-0.4l-8.5-0.7c-2.8-0.2-5.7-0.2-8.5-0.3l-4.2-0.1c-1.4,0-2.8,0-4.2,0l-8.5,0.1c-2.8,0.1-5.7,0.4-8.5,0.5
			c-5.7,0.2-11.3,1-16.9,1.6c-2.8,0.3-5.6,0.8-8.4,1.3l-8.4,1.4l8.4-1.5c2.8-0.5,5.6-1.1,8.4-1.4c5.6-0.7,11.2-1.6,16.9-1.9
			c2.8-0.2,5.7-0.5,8.5-0.6l8.5-0.2c1.4,0,2.8-0.1,4.3-0.1l4.3,0.1c2.8,0.1,5.7,0.1,8.5,0.3l8.5,0.7c1.4,0.1,2.8,0.2,4.2,0.4
			l4.2,0.5l4.2,0.5c1.4,0.2,2.8,0.3,4.2,0.6l8.4,1.5c11.1,2.3,22.2,5.1,32.9,8.8c21.5,7.5,42,17.6,61,30.1
			c9.5,6.2,18.6,13,27.3,20.3c4.3,3.6,8.5,7.5,12.6,11.4C1088.9,382.6,1092.9,386.7,1096.6,391z"/>
	</g>
	<g>
		<path class="st1" d="M959.2,232.9c24.4,1.3,48.7,4.8,72.6,10c23.9,5.3,47.4,12.3,69.9,22.1c5.6,2.5,11.1,5.1,16.5,8
			c5.4,2.9,10.7,5.9,15.9,9.2c5.2,3.3,10.2,6.7,15.1,10.5c4.8,3.7,9.5,7.7,13.9,11.9c4.5,4.2,8.6,8.7,12.5,13.5
			c3.9,4.7,7.4,9.7,10.6,15c3.1,5.3,5.9,10.7,8.2,16.4c2.3,5.7,4.2,11.5,5.7,17.4c-1.6-5.9-3.5-11.7-5.9-17.3
			c-2.4-5.6-5.3-11-8.4-16.2c-3.1-5.2-6.7-10.2-10.6-14.9c-3.9-4.7-8-9.2-12.5-13.4c-4.4-4.2-9.1-8.1-13.9-11.8
			c-4.9-3.7-9.9-7.1-15.1-10.4c-5.2-3.3-10.5-6.2-15.9-9c-5.4-2.8-10.9-5.4-16.5-7.9c-22.3-9.9-45.8-17-69.6-22.4
			c-11.9-2.7-23.9-4.9-36-6.6C983.5,235.1,971.4,233.7,959.2,232.9z"/>
	</g>
	<path class="st7" d="M66,895c0,0,230.2-195.1,389.1-214.8s137.2,111.4,137.2,111.4s-85.1-1.4-163.5,27.3
		c-49.4,18.1-106.4,76.1-224,113.1c-63.7,17.4-140.8,42-140.8,42L66,895z"/>
	<path class="st3" d="M367.5,255.6c-14.2-9.2-15.6-25.1,1-51.7c67.7,20.7,99.4-19.9,110.7-40.5c6.5,12.5,7.9,27.2,2.2,41.1
		l-28.9,70.7c-9.2,22.6-34,36.4-59.7,35.5C398.5,291,380.2,263.9,367.5,255.6z"/>
	<path class="st0" d="M349,190.5c73.2,22.7,114.6-13.1,128.9-29.4c0.4,0.7,0.8,1.5,1.2,2.3c-11.3,20.6-43,61.1-110.7,40.5
		c-16.6,26.6-15.2,42.5-1,51.7c12.7,8.2,31,35.4,25.3,55.1c-6.1-0.2-12.2-1.2-18.2-3.2l-59.7-19.2c-31.4-10.1-47.8-41.3-36.4-69.2
		l19.2-46.9C309.6,177.3,326.1,183.4,349,190.5z"/>
	<path class="st8" d="M433.5,220.6c-1.6,3.8-1,7.6,1.3,8.3c2.3,0.8,5.5-1.7,7.1-5.6c1.6-3.8,1-7.6-1.3-8.3
		C438.3,214.2,435.1,216.7,433.5,220.6z"/>
	<path class="st9" d="M406.4,221.1c-2.8,3.8-1.5,8.8,2.7,11.2c4.2,2.4,9.9,1.4,12.6-2.4c2.8-3.8,1.5-8.8-2.7-11.2
		C414.8,216.3,409.2,217.3,406.4,221.1z"/>
	<polygon class="st3" points="469.1,234.4 485.4,266 455.1,262.7 	"/>
	<path class="st8" d="M385.2,116.1l59.7,19.2c14.8,4.8,26.2,14.2,33,25.8c-14.3,16.2-55.7,52-128.9,29.4
		c-22.9-7.1-39.5-13.2-51.4-18.3l9.7-23.8C318.7,120.5,353.8,105.9,385.2,116.1z"/>
	<path class="st8" d="M472.7,164.5c0,0,41.3-23.3,29.1-33.6C489.6,120.5,487.1,148.7,472.7,164.5z"/>
	<path class="st8" d="M475.4,162.6c0,0,14.9-32.7,7-36.6C474.5,122.2,475.4,162.6,475.4,162.6z"/>
	<path class="st0" d="M414.7,273.9c-2.3-1.4-4.5-3.3-6.6-6.1c-3.5-4.7-4.7-9.5-4.5-14C417.6,258.9,416.3,269,414.7,273.9z"/>
	<path class="st8" d="M416.7,236.2c7.7,1.2,10.5,10.9,13.2,19.5c2.7,8.6,13.3,7,13.2,11.2c-0.1,3.5-15.4,14.9-28.5,7
		c1.6-4.9,2.9-15-11.1-20C404,243.7,412,235.5,416.7,236.2z"/>
	<path class="st0" d="M320.4,280.3l-19.5,77.1c0,0,40.6,31.1,93.8,6c-5.5-38.8-4.6-66.2-4.6-66.2L320.4,280.3z"/>
	<path class="st8" d="M353.1,131.2c0.3,0,0.6-0.4,1-0.9c6.3-8.2,28.6-68.4-9.6-68.5c-40.9-0.1-74.3,37.9-45.9,62.9
		C327,149.8,353.1,131.2,353.1,131.2z"/>
	<path class="st6" d="M854.9,272.7c0,0-24.5-41.9-9.8-45.9c14.6-4,11,36.8,11,36.8s7.7-29.4,17.1-23.9
		C882.6,245.1,854.9,272.7,854.9,272.7z"/>
	<path class="st6" d="M852.1,272.1c-23.8-4.8-53.6-6.6-73.9,7.1c-5,3.4-9.9,7.6-14.7,12.4C779.3,292.7,810.5,291.3,852.1,272.1z"/>
	<path class="st6" d="M937.5,315c22.3,30.6,23.7,70.3,45.5,101.2c12.8,18.1,32.1,32.3,43.1,51.3c9.6,16.6,12.2,36.2,7.2,54.3
		c-5,18.1-17.6,34.4-34.8,45.2c-12.7,7.9-27.5,12.7-42.6,16c-14.6,3.2-30,4.9-44.8,2c-19.9-3.9-36.4-15.7-52.2-27.2
		c-13.3-9.7-26.9-19.6-36.3-32.5c-6.7-9.2-11.1-19.5-15.4-29.8c-2.5-6-5.1-12.1-4.7-18.5c0.5-10,8-18.5,14.4-26.7
		c20.7-26.8,32.6-62.1,17.9-91.9c-6.4-12.9-17.4-24.3-19.3-38.3c-2.4-18.5,2.5-42,22.9-47.6c18.5-5,58.3,8.2,72.6,17.6
		C921.5,297.1,930.6,305.5,937.5,315z"/>
	<path class="st10" d="M788.8,456.3c0.8-1,1.5-2.1,2.3-3.1C790.9,453.2,790,454.3,788.8,456.3z"/>
	<path class="st11" d="M798.3,513.2c-32.9-16.7-20.4-34-13.7-43.9c-16.1,1-36.4-0.8-45.4,2c-22.3,7-2,84.5,36.1,95.3
		c38,10.7,121.9-27.3,121.9-27.3s40.9-15.8,53-14.1c0.7-1.4-49.7-35.1-51.5-39.4C868.4,499.2,825.9,527.2,798.3,513.2z"/>
	<polygon class="st12" points="552.7,741.8 552.7,741.8 552.7,741.8 552.7,741.8 	"/>
	<path class="st12" d="M802.4,515c-4.1-1.7-93.2,43.2-78.7,103.6c-94.5,33.7-140.3,68.7-140.3,68.7"/>
	<path class="st13" d="M673.6,95.6c-13.8-0.9-27.7-1.1-41.4-1.6c-9.2-0.3-21.2,1.6-24.5,10.5c-7,18.4-13.3,125.7,3.5,129.7
		c16.8,4.1,18,27.3,18.1,40.8s18.9,12.2,20.3,2.3c1.4-9.9-11.9-40.3,10.5-43.1c22.3-2.8,0.7,47.6,16.8,48.1
		c16.1,0.6,4-43.2,19.1-45.5c15.1-2.3,28.4-2.7,31.2-36c1.7-20.7,7.7-41,6.3-61.9c-1.7-25.4-17-38.9-45.3-42
		C683.2,96.3,678.4,95.9,673.6,95.6z"/>
	<path class="st3" d="M755.1,471.1c0,0-38.4-5-86.9,9.6c-48.4,14.6-123,75.4-123,75.4l-20.6-81.8c0,0-26-3.7-38.8-12.9
		c-12.8-9.2-32.5-19.5-27.9-8.9c4.6,10.7,18.5,17.1,18.5,17.1s-34.3-8.2-43.7-25.9c-20.7,0-14.7,35.3,18.5,46
		c33.2,10.6,39.7,6.4,39.7,6.4s-31.8,107.2,24.9,119.1c56.8,11.8,53.3,4.9,53.3,4.9l132.2-95L755.1,471.1z"/>
	<path class="st1" d="M402.1,830.9c-30.4,15.5-57.5,35.6-86.7,52.9c-34.3,20.2-71.6,36.5-110.6,48.2c-25,7.5-50.8,13.2-75.3,21.9
		c-19.6,6.9-38.5,16.1-54,28.6c21.1,41.5,109.3,41.6,109.3,41.6s99.8-56.6,170.7-83.3c70.9-26.7,184.6-28.9,197.2-51.5
		c10.3-18.4,26.7-60.9,8.3-93.9C505.7,794.1,450.1,806.4,402.1,830.9z"/>
	<path class="st1" d="M566.2,822.8c2.8-1.9,90.6-20.8,152.4-5c61.8,15.8,32.9,117,16.5,121.3c-16.5,4.3-120.6-34.8-154.4-39.8
		C547.6,894.4,544.2,837.5,566.2,822.8z"/>
	<path class="st1" d="M746.2,868.9c11.3-45.8,41.6-88.7,87.4-112.4c21.2-11,149.4-81.1,145.8-28.9c-2.4,36.1-7.3,90.9-41.3,115.5
		c-51.1,37-117.8,70.8-181.9,85.7c-3.6,0.8-7.9,0.8-10.6-1.5c-1.6-1.4-2.4-3.4-2.9-5.3c-1.4-5.1-1.6-10.3-1.5-15.5
		C741.5,893.9,743.2,881.3,746.2,868.9z"/>
	<path class="st11" d="M788.8,477.7l-32.5-5.9h-13.2c0,0-94.4,52.7-79.7,98.1c14.7,45.4,15.8,57.5,15.8,57.5l-116.6,23.1
		l133.3,142.6c0,0,135.9-45.2,190.8-109.4c54.8-64.3,63.4-157,63.4-157l-41.7-21.7L788.8,477.7z"/>
	<path class="st6" d="M410.9,618.6c31.8-1.9,140.7,37.6,209.7,64.1c0,0-108.2-121.5-232-94.2c-91.1,20.1-196.4,106.8-245.8,151.4
		c2.6,14.5,9.4,37,26.5,50.1c13.1-4,30-9.3,48.9-15.7C287.6,704.3,376.5,628,410.9,618.6z"/>
	<path class="st14" d="M679.6,706.1c0,0-24.6-10-59.1-23.3c-69-26.5-177.8-66-209.7-64.1c-34.4,9.4-123.3,85.7-192.8,155.7
		c-24.4,24.6-46.4,48.4-62.8,68.2c6.3,17.1,22.8,45.1,63.8,56.7c50-26.8,155.1-88.8,176.8-147.1c74.5,44.2,244.3,69,330.2,28.2
		C812,739.5,679.6,706.1,679.6,706.1z"/>
	<path class="st3" d="M772.8,470.8c-4.4,10.8-14.5,43.4,21.3,54.4c19,5.8,45.5-3.5,69.2-15.8c-21.3-55.9,4-97.8,46.7-127.4
		c-62-29.4-59.4-87.2-55.8-109.4c-0.7-0.1-1.3-0.3-2-0.4c-41.6,19.1-72.8,20.6-88.6,19.5c-32.3,32.3-57.7,91.7-41.5,109.5
		c18.5,20.4,63.9,32.9,63.9,32.9c19.2,3.2,38.4,15.7,27.6,31.7L772.8,470.8z"/>
	<path class="st0" d="M788.8,379.3c3.2,0.5,6.9,0.4,11.1-0.4c7.2-1.4,12.6-4.7,16.5-8.7C799.9,364.5,791.8,374,788.8,379.3z"/>
	<path class="st8" d="M821.2,345.8c-7.6-4.5-18.8,1.7-28.9,7.1c-10.2,5.4-17.7-3.5-21.3,0c-3.1,3-0.5,23.7,17.8,26.3
		c3-5.3,11.1-14.9,27.6-9.1C825.3,361.2,826,348.6,821.2,345.8z"/>
	<g>
		<path class="st8" d="M799.9,322.5c-3.1,0.4-6.2,0.7-9.3,1c-3.1,0.3-6.2,0.6-9.3,0.9l-9.3,0.8l-9.3,0.7l0.4-0.6
			c1.1,2.9,2,5.8,3,8.7c1,2.9,2,5.8,2.9,8.8c-1.2-2.8-2.3-5.7-3.4-8.6c-1.1-2.9-2.3-5.7-3.3-8.6L762,325l0.6,0l9.3-0.8l9.3-0.7
			c3.1-0.2,6.2-0.4,9.3-0.6C793.7,322.7,796.8,322.6,799.9,322.5z"/>
	</g>
	<path class="st8" d="M846.5,331.6c-1.6,4-4.7,6.7-7,6c-2.3-0.7-2.8-4.6-1.3-8.6c1.6-4,4.7-6.7,7-6
		C847.6,323.7,848.1,327.5,846.5,331.6z"/>
	<path class="st8" d="M774.6,310.3c-1.6,4-4.7,6.7-7,6s-2.8-4.6-1.3-8.6c1.6-4,4.7-6.7,7-6C775.6,302.4,776.2,306.3,774.6,310.3z"/>
	<path class="st15" d="M860.2,273.9c-1.9-0.5-4-0.9-6-1.3c-3.6,22.2-6.2,80,55.8,109.4c-42.6,29.6-68,71.6-46.7,127.4
		c13.8-7.1,26.6-15.2,36.4-21.9c-0.4-0.6-0.8-1.1-1.1-1.7c-8.2-13.5-9.4-31-5-45.6c7.4-24.3,29.3-39.2,55.8-38.4
		c4.7-9,7.4-16.3,4.4-31.8C863.8,364.4,859.1,296.8,860.2,273.9z"/>
	<path class="st16" d="M577.3,749.1c0,0-8.7,32.7,6.1,48.9c14.8,16.3,72,47,112.5,44.5c40.5-2.5,252.5-106.7,273.6-124.8
		c21.1-18,0-41.5,0-41.5l-138.2-13.5L577.3,749.1z"/>
	<path class="st2" d="M639,730.8c-13.2,1.7-72.4,18-61.7,29.8c10.7,11.7,57,53.8,118.6,52.6c61.6-1.2,261.4-96.6,279.4-116.7
		c17.9-20.1-62-51.2-62-51.2L639,730.8z"/>
	<ellipse class="st17" cx="565.6" cy="740.4" rx="48" ry="42.6"/>
	<g>
		<path class="st0" d="M925.2,366.9c1.4-0.3,40.8-21.1,50.4,2.9c9.6,24-17.1,40.9-40.9,27.2C927.8,379.2,925.2,366.9,925.2,366.9z"
			/>
		<path class="st8" d="M945.2,379.8c3.3-6.3,9.1-10.6,17.6-10.9c1.6-0.1,1.8-2.2,0.2-2.2c-8.3,0.3-14.9,3.7-18.9,10.2
			c-0.9,1.4-1.6,3-2.2,4.5c0,0.1-0.1,0.1-0.1,0.2c-0.5,1.2-0.9,2.5-1.3,3.8c-0.3,1.1-0.5,4.6-1.5,5.4c-1.1,1,0.5,2.6,1.6,1.6
			c2.3-2,2.3-7.2,3.3-9.8c5.9-2.5,15.2-5.6,20.9-1.9c1.3,0.8,2.6-1,1.4-1.8C960.4,375.3,951.8,377.3,945.2,379.8z"/>
	</g>
	<path class="st9" d="M832.7,346.4c-2.8,3.8-1.5,8.8,2.7,11.2c4.2,2.4,9.9,1.4,12.6-2.4c2.8-3.8,1.5-8.8-2.7-11.2
		C841.2,341.6,835.5,342.6,832.7,346.4z"/>
	<path class="st9" d="M738.3,328.2c-2.8,3.8-1.5,8.8,2.7,11.2c4.2,2.4,9.9,1.4,12.6-2.4c2.8-3.8,1.5-8.8-2.7-11.2
		C746.7,323.3,741,324.4,738.3,328.2z"/>
	<path class="st18" d="M863.3,509.4c0,0-67.6,76.2-60.7,126.7C741.3,626,717,589.9,717,589.9s-16.2,43.6,39.3,55.4
		c-47.7-4-55-14.3-55-14.3s22.2,26.6,40,31.8c-44.8,17.4-76,37.6-76,37.6l18.4,7.4c0,0,91.8-27.9,136.7-49.6
		c22.9-35.8,89.6-127.6,129.7-133c-16.2-15.7-41.5-30.8-50.3-37.7C875.7,503.2,863.3,509.4,863.3,509.4z"/>
	<path class="st19" d="M522.5,723.6c0,0,38.4,3.3,60.9-21.6c18,5.7,46.1,29.4,17.5,63.4c-28.5,34.1-59,14.9-59,14.9
		S504.5,761.5,522.5,723.6z"/>
	<path class="st20" d="M40.4,978.4c-24.9-1-28.3-22.4-28.4-33.7c-21.1,15.9-5.8,47.3,26.7,46.3c38.1-1.3,59.8-17.5,98.2-30.2
		c15.4-5.1,26.9-11.6,35.2-18.9C130.7,933.4,74.2,979.8,40.4,978.4z"/>
	<path class="st21" d="M42.4,932.1c-6.1,2.7-11.7,4.8-16.6,6.2c-5.7,1.6-10.3,3.8-13.8,6.5c0.1,11.3,3.5,32.7,28.4,33.7
		c7,0.3,15-1.5,23.6-4.4C67,948.6,51.8,936.8,42.4,932.1z"/>
	<path class="st17" d="M189.7,901c-2.3-22.5-36.2-37.6-36.2-37.6s-67.4,49.2-111.1,68.7c9.3,4.8,24.6,16.6,21.7,41.9
		c33-11.1,75.3-38.9,108.1-32.1C186.2,929.7,191.1,915.1,189.7,901z"/>
	<path class="st6" d="M155.3,842.5c-9.1,11.1-16.5,20.9-21.6,29c20.9,55.5,59,41.4,59,41.4s10.4-5,26.5-13.6
		C178.1,887.6,161.7,859.6,155.3,842.5z"/>
	<g>
		<g>
			<path class="st22" d="M68.5,919.1c13.5,1.8,21.7,13.9,21.9,26.9c0,0.5,0.8,0.5,0.8,0c-0.2-13.5-8.6-25.8-22.6-27.6
				C68,918.3,68.1,919,68.5,919.1L68.5,919.1z"/>
		</g>
	</g>
	<g>
		<g>
			<path class="st22" d="M100.8,899.6c4.6-0.8,9.7-0.5,14.3,0.6c11,2.7,17.1,11.2,18.3,22.3c0,0.5,0.8,0.5,0.8,0
				c-1.1-10.4-6.3-19-16.5-22.4c-5.3-1.7-11.4-2.2-16.9-1.3C100.1,899,100.3,899.7,100.8,899.6L100.8,899.6z"/>
		</g>
	</g>
	<path class="st21" d="M35.4,816.5c-13.1,8.7-23.3,15.9-26.9,19.3C-4.9,849.1,2.9,868,2.9,868s26.4-8.7,54.5-18
		c-0.5-0.8-1-1.7-1.4-2.6C48.7,831.3,41.2,821.8,35.4,816.5z"/>
	<g>
		<g>
			<path class="st22" d="M53.8,802.9c10.8,1.5,18.5,11,21.3,20.9c0.1,0.5,0.9,0.3,0.7-0.2C73,813.5,65.1,803.8,54,802.2
				C53.6,802.1,53.4,802.9,53.8,802.9L53.8,802.9z"/>
		</g>
	</g>
	<path class="st17" d="M132.7,793.6c-1-0.5-2.1-0.7-3.2-0.9c-4.5-0.6-9.1-0.3-13.7-0.5c-7.3-0.2-14.7-1.6-20.9-5.1
		c-2.3-1.3-4.4-2.9-6.2-4.7c-17.8,11-37.7,23.6-53.4,34c5.8,5.4,13.3,14.8,20.7,30.9c0.4,0.9,0.9,1.8,1.4,2.6
		c31.7-10.4,65.6-21.5,67.1-21.6c2.7-0.2,12.8-25.2,12.8-25.2l1.2-0.7c-0.8-1.5-1.5-3.1-2.3-4.6
		C135.4,796.3,134.5,794.5,132.7,793.6z"/>
	<path class="st3" d="M133.4,755.1c0,0-20.3,12.3-44.6,27.4c1.8,1.8,3.9,3.4,6.2,4.7c6.2,3.5,13.6,4.9,20.9,5.1
		c4.6,0.2,9.2-0.1,13.7,0.5c1.1,0.1,2.3,0.3,3.2,0.9c1.8,0.9,2.7,2.7,3.5,4.4c0.8,1.5,1.5,3.1,2.3,4.6l23.7-13.9L133.4,755.1z"/>
	<path class="st20" d="M1,860.5c0,0,1.1,9.6,4.9,13.6c12.3-1.9,125.4-37.6,135.2-43.2c0,0-2.1-22.3-3.9-27.6
		C131.9,815.8,37.4,854.3,1,860.5z"/>
	<path class="st23" d="M155.4,728.2c-19,17.1-30.4,28.5-30.4,28.5l29.4,40c0,0,15.6-7,33.6-12.5
		C169.7,770.1,158.3,743.8,155.4,728.2z"/>
	<g>
		<g>
			<path class="st22" d="M52.8,805.4c8,3,14,10.8,17,18.5c0.2,0.4,0.9,0.3,0.7-0.2c-3.1-7.9-9.2-15.9-17.5-19
				C52.6,804.5,52.4,805.3,52.8,805.4L52.8,805.4z"/>
		</g>
	</g>
	<g>
		<g>
			<path class="st22" d="M73.3,792.5c9.3-0.4,15.6,9.1,18.3,16.7c0.2,0.5,0.9,0.3,0.7-0.2c-2.8-7.9-9.4-17.7-19.1-17.3
				C72.8,791.8,72.8,792.5,73.3,792.5L73.3,792.5z"/>
		</g>
	</g>
	<path class="st17" d="M608.5,176.7c0,0,21.5-13.6,54-3.4c32.5,10.2,59.1-3.6,59.1-3.6s1.9,46.3-14.3,52.2
		c-7.5,2.7-13.6,7.7-18,12.1c-3.2,3.2-9.1,2.9-11.4-0.9c-2.5-4.2-6.8-7.9-14.1-7.6c-9.7,0.4-17.6,2.8-22.4,8.3
		c-2.8,3.3-8.7,3-11.2-0.4c-2.6-3.7-6.2-6.6-11.2-6.9C604.9,225.6,608.5,176.7,608.5,176.7z"/>
	<g>
		<path class="st16" d="M735,939.1c1.7-2.1,3.1-4.4,4.5-6.7l1-1.7l1-1.8c0.7-1.2,1.2-2.4,1.8-3.6c2.3-4.9,4.2-9.9,5.8-15
			c0.7-2.6,1.6-5.2,2.1-7.8c0.3-1.3,0.7-2.6,0.9-3.9c0.2-1.3,0.5-2.6,0.8-4c0.1-0.7,0.3-1.3,0.4-2l0.3-2l0.6-4
			c0.4-2.7,0.6-5.4,0.9-8.1c-0.1,2.7-0.2,5.4-0.4,8.1l-0.4,4l-0.2,2c-0.1,0.7-0.2,1.3-0.3,2c-0.2,1.3-0.4,2.7-0.7,4
			c-0.2,1.3-0.6,2.6-0.9,4c-0.5,2.7-1.3,5.3-2.1,7.9c-1.7,5.2-3.6,10.2-6.1,15.1C741.5,930.4,738.7,935.1,735,939.1z"/>
	</g>
	<g>
		<path class="st16" d="M569.3,895c-1.2-0.7-2.3-1.7-3.3-2.7l-1.5-1.6l-1.3-1.7c-1.7-2.3-3.2-4.8-4.4-7.4c-1.3-2.6-2.2-5.3-3.1-8
			l-1.2-4.1c-0.3-1.4-0.6-2.8-0.9-4.2l-0.4-2.1l-0.3-2.1l-0.6-4.3c-0.2-1.4-0.2-2.9-0.3-4.3c-0.1-1.4-0.2-2.9-0.3-4.3
			c0-2.9-0.1-5.7,0-8.6c0.2-2.9,0.3-5.7,0.5-8.6c0,2.9,0,5.7,0,8.6c0,2.9,0.2,5.7,0.3,8.5c0.2,2.8,0.4,5.7,0.7,8.5l0.6,4.2l0.3,2.1
			l0.4,2.1c1,5.6,2.7,11.1,4.9,16.3c1.1,2.6,2.5,5.1,4.1,7.4C565.2,891.1,567,893.3,569.3,895z"/>
	</g>
	<path class="st7" d="M613.1,786.2c0,0,284-6.9,337-123.5c-52-45-89.6,36.4-89.6,36.4l-264.5,66.3
		C595.9,765.5,600.2,782.6,613.1,786.2z"/>
	<path class="st3" d="M950.1,525.1c0,0,39.7,28.7,19.4,75.9c-20.3,47.3-105.2,128.3-105.2,128.3s-164.4,38.3-215.1,36
		c-8.9-33.2-10.1-44.3-10.1-44.3s148.1-42.8,181.4-63C838.2,624.3,921.4,522,950.1,525.1z"/>
	<path class="st22" d="M803.2,666.5c0,0,28.9,6.3,43.5,24.4c19-10.8,31.6-24.4,31.6-24.4s-15.7-25.7-47.5-25.3
		c-10.9,6.9-11.4,14.7-11.4,14.7S812.3,657.7,803.2,666.5z"/>
	<path class="st17" d="M855,609.3c0,0,53.5-4.7,80.6,43c5.6-7.1,5.6-7.1,5.6-7.1s-8.7-49-80.7-44.2C856.8,605.5,855,609.3,855,609.3
		z"/>
	<path class="st3" d="M646.2,723.5c0,0-50.7-14.8-75.6-10.7c-25,4-62.8,36.9-58.2,39.6c4.5,2.7,60.9-19.5,64.9-15.4
		c3.9,4,6.1,10.3-8.2,12.8c-6.8,1.2-50.2,15.8-45.4,24.6c1.6,2.9,45.8-13.9,53.5-8.8c7.7,5-33.1,15.8-34.6,19.1
		c-1.5,3.4,49.9,1.3,57.5-6c20.4,7.6,52.9-12.8,54.4-17.5C656.1,756.4,646.2,723.5,646.2,723.5z"/>
	<path class="st24" d="M907.4,550.9c0,0,25.9,77.8-47,136.4c-83.6,36.9-211.3,78.1-211.3,78.1s30.8,0,73.1-7.5
		c48.1-8.5,112.3-18.7,143.2-29.7c45.8-38.4,105.6-116.3,109.8-143.6c4.2-27.3-12.7-55.3-25.2-59.5
		C938.6,525,907.4,550.9,907.4,550.9z"/>
	<path class="st25" d="M678,106.6c-15.7-2.7-55-6.7-61.5,15.9c-6,21-9,43.8-8.2,65.3c0.5,12.7,5.4,22.9,20.6,24.9
		c12.5,1.6,25.7-2.2,37.9,0.6c14.9,3.4,39.7,0.7,50.4-10C728,192.5,745,113.5,678,106.6z"/>
	<path class="st22" d="M700,185.6v-19.9c0,0-34.7-13.6-62.4-4.5c0,18.6,0,20.9,0,20.9S659.9,173.3,700,185.6z"/>
	<g>
		<path class="st0" d="M431.1,443.8c-0.6,1.4-1.1,2.8-1.4,4.3c-0.3,1.5-0.5,3-0.5,4.4c0,3,0.7,5.9,2.2,8.5c1.4,2.6,3.5,4.8,5.7,6.7
			c0.6,0.5,1.2,0.9,1.8,1.4l1.9,1.3l1.9,1.2c0.7,0.4,1.3,0.7,2,1.1c-2.8-1.1-5.6-2.5-8-4.3c-2.5-1.8-4.6-4.1-6.1-6.9
			c-1.5-2.7-2.2-5.9-2.1-9C428.6,449.4,429.5,446.4,431.1,443.8z"/>
	</g>
	<path class="st22" d="M288.4,341.5c0,0,66.5,31.7,115.2,0c29,8.6,41.1,13.6,41.1,13.6s6.8,21.6,5.1,22.1
		c-1.7,0.5-76.3,69.2-76.3,69.2l-64.9-64.7l-24.4-34.4L288.4,341.5z"/>
	<path class="st26" d="M288.4,341.5l83.8,100.4l73-89.5l34.6,23.5l-108,84.4L247,372.2C247,372.2,261.3,349.6,288.4,341.5z"/>
	<path class="st8" d="M325.5,227.8c0.1,17.3,5,34.4,10.8,50.9c5.4,15.4,8.5,31.4,5.2,47.3c-4.3,20.4-18.8,29.6-35.1,37.1
		c-16.8,7.7-40.1,10.1-59,9.1c-5.1-0.3-10.2-1.2-14.7-3.2c-6.1-2.7-11.1-7.2-14.6-12.4c-12.5-18.1-8.2-41.6,1.1-61.2
		c9.3-19.5,23-37.5,28.9-58.1c4.1-14,4.4-28.6,7.5-42.7c4.7-21.2,16.4-41.9,35.9-54.8c19.5-13,47.3-16.9,68.7-6.6
		c3.5,1.7,7,4,8.5,7.3c2,4.4-0.1,9.5-2.5,13.8c-7,12.5-16.6,19.9-26.5,29.8C328.4,195.4,325.4,213.3,325.5,227.8z"/>
	<g>
		<path class="st0" d="M349,190.5c0,0-12.7-22-31.3-16.2c-18.6,5.7-21.4,36.6-8.1,41.4c13.4,4.8,27-3.8,27-3.8L349,190.5z"/>
		<path class="st8" d="M317,181.1c-2-0.8-1-3.7,1-2.9c12,4.7,15,18.2,14.2,28.8c-0.1,2-3.6,1.8-3.5-0.1c0.2-2.8,0.1-6-0.4-9.2
			c-0.2-0.1-0.3-0.2-0.5-0.3c-4.1-4.3-10.7-7.3-16.9-4.7c-2,0.8-3.6-1.9-1.6-2.8c6.1-2.5,12.6-0.9,17.6,2.5
			C325.3,187.4,322.2,183.1,317,181.1z"/>
	</g>
	<path class="st3" d="M564.8,539.7c0,0,6.3-57,63.5-57c57.2,0,69.4,25,63,27.9s-37.4-7-37.4-7s22.6,16.2,13.6,20.2
		c-9,4-33.4-6.8-33.4-6.8s19.3,20.8,8.4,21.5c-10.9,0.7-38.6-17-51.4-13C578.2,529.5,564.8,539.7,564.8,539.7z"/>
	<path class="st0" d="M634.1,517c0,0-7.2-11.9-29.9-9.7"/>
	<path class="st0" d="M651.5,503.3c0,0-18-11.2-32.4-9.4"/>
	<g>
		<path class="st0" d="M616.6,530.5c4.5,2,9,3.8,13.7,5.4c2.3,0.8,4.7,1.5,7,2c1.2,0.3,2.4,0.5,3.6,0.5c0.6,0,1.2,0,1.8-0.1
			c0.3-0.1,0.6-0.1,0.8-0.2c0.2-0.1,0.4-0.2,0.5-0.4c0.3-0.4,0.3-1,0.2-1.5c-0.1-0.6-0.2-1.1-0.4-1.7c-0.4-1.1-0.9-2.2-1.4-3.3
			c-1.1-2.2-2.3-4.3-3.6-6.3l-3.9-6.2c-0.3-0.5-0.6-1-0.9-1.7c0-0.1,0-0.1,0-0.2c0-0.1-0.1-0.2,0-0.4c0-0.1,0.2-0.3,0.4-0.3
			c0.1,0,0.2,0,0.3,0c0.1,0,0.2,0.1,0.2,0.1c0.2,0.1,0.3,0.2,0.5,0.3l0.4,0.3c0.1,0.1,0.2,0.1,0.3,0.2c1,0.6,2.1,1.2,3.2,1.7
			c4.4,2.1,9,3.9,13.7,5.1c2.4,0.6,4.8,1,7.2,1.1c2.4,0.1,4.8-0.1,7-1.1c1-0.5,2.1-1.1,2.7-2c0.6-0.9,0.6-2.1,0.2-3.2
			c-0.8-2.2-2.6-4-4.3-5.7c-3.5-3.4-7.5-6.3-11.6-8.9c2.1,1.2,4.2,2.5,6.2,3.9c2,1.4,4,2.9,5.8,4.6c1.8,1.7,3.6,3.5,4.6,5.9
			c0.2,0.6,0.4,1.3,0.4,1.9c0,0.7-0.2,1.4-0.6,1.9c-0.4,0.6-0.9,1.1-1.4,1.4c-0.5,0.4-1.1,0.7-1.7,1c-2.3,1.1-4.9,1.3-7.4,1.2
			c-2.5-0.1-5-0.5-7.4-1.1c-4.8-1.2-9.4-2.9-13.9-5.1c-1.1-0.5-2.2-1.1-3.3-1.7c-0.1-0.1-0.3-0.2-0.4-0.3l-0.3-0.3
			c-0.1-0.1-0.2-0.2-0.3-0.2c0,0,0,0,0,0c0,0,0.1,0,0.2,0c0.1,0,0.2-0.1,0.3-0.2c0.1-0.2,0-0.2,0-0.2c0,0,0,0,0,0
			c0.2,0.4,0.5,1,0.8,1.5l3.9,6.2c1.3,2.1,2.5,4.2,3.6,6.4c0.5,1.1,1.1,2.2,1.4,3.5c0.2,0.6,0.3,1.2,0.4,1.9c0.1,0.6,0.1,1.4-0.4,2
			c-0.2,0.3-0.6,0.6-0.9,0.7c-0.3,0.1-0.6,0.2-1,0.2c-0.6,0.1-1.3,0.1-1.9,0.1c-1.3-0.1-2.5-0.3-3.7-0.6c-2.4-0.6-4.8-1.3-7.1-2.2
			C625.5,534.6,621,532.6,616.6,530.5z"/>
	</g>
	<g>
		<path class="st0" d="M657.5,504.7c3.5,1,7,1.9,10.5,2.7c3.5,0.8,7,1.5,10.6,2.1c3.5,0.5,7.2,1,10.7,0.5c0.9-0.1,1.7-0.3,2.5-0.6
			c0.8-0.3,1.4-0.8,1.4-1.6c0.1-0.7-0.3-1.5-0.7-2.3c-0.4-0.7-1-1.4-1.6-2.1c-2.4-2.6-5.3-4.8-8.2-6.8c-3-2-6.1-3.8-9.3-5.4
			c-3.2-1.6-6.5-3-9.9-4.2c-3.4-1.2-6.9-2.1-10.5-2.5c7.2,0.5,14.2,3,20.8,6c3.3,1.5,6.4,3.3,9.5,5.3c3,2,6,4.2,8.5,6.9
			c0.6,0.7,1.2,1.4,1.7,2.2c0.5,0.8,0.9,1.7,0.8,2.8c0,0.5-0.3,1.1-0.7,1.5c-0.2,0.2-0.4,0.4-0.6,0.5l-0.7,0.3
			c-0.9,0.4-1.8,0.6-2.7,0.7c-1.8,0.2-3.7,0.2-5.5,0c-1.8-0.1-3.6-0.4-5.4-0.7C671.3,509,664.3,507,657.5,504.7z"/>
	</g>
	<path class="st22" d="M637.4,114c-4.9,1.9-9.7,5.5-10.2,10.3c-0.2,1.8,0.4,3.9,2.1,5c1.1,0.6,2.4,0.8,3.7,0.8
		c3.3,0,6.7-0.8,9.5-2.5c2.1-1.3,4-3,6.4-3.8c3.2-1.1,8.7-0.2,10.7-3.2c1.1-1.6,0.3-3.8-1.2-5.1C652.9,110.4,644,111.4,637.4,114z"
		/>
	<g>
		<path class="st5" d="M823.3,669.2c-20.6,2.2-47.9,9.4-57.9,27.5c-11.4,20.6,3.8,45.6,20,60.2c23.7,21.4,56.4,29.7,85.4,43.5
			c16.5,7.9,34.2,18.2,45.2,32c9.6,12.1,10.6,24.1,1.4,36.7c-9.1,12.5-27.1,22.4-44,14c-7.5-3.7-14.3,6.5-6.7,10.2
			c20.8,10.2,44.1,2.2,58.4-13.6c19-21,14.3-44-5.9-62.3c-25.9-23.6-59.5-33.6-91.6-48.6c-18-8.3-35.8-19.2-45.7-35.5
			c-18.5-30.5,9-48.9,41.4-52.4C831.7,680.2,831.8,668.3,823.3,669.2L823.3,669.2z"/>
	</g>
</g>
</svg>
