<?xml version="1.0" encoding="utf-8"?>
<!-- Generator: Adobe Illustrator 22.1.0, SVG Export Plug-In . SVG Version: 6.00 Build 0)  -->
<svg version="1.1" id="Layer_1" xmlns="http://www.w3.org/2000/svg" xmlns:xlink="http://www.w3.org/1999/xlink" x="0px" y="0px"
	 viewBox="0 0 1280 1024" style="enable-background:new 0 0 1280 1024;" xml:space="preserve">
<style type="text/css">
	.st0{fill:#CE3C3C;}
	.st1{opacity:0.6;fill:url(#XMLID_13_);}
	.st2{opacity:0.6;fill:url(#XMLID_14_);}
	.st3{opacity:0.6;fill:url(#XMLID_15_);}
	.st4{opacity:0.6;fill:url(#XMLID_16_);}
	.st5{opacity:0.6;fill:url(#XMLID_17_);}
	.st6{opacity:0.6;fill:url(#XMLID_18_);}
	.st7{opacity:0.6;fill:url(#XMLID_19_);}
	.st8{opacity:0.6;fill:url(#XMLID_20_);}
	.st9{fill:#FFFFFF;}
	.st10{opacity:0.6;fill:url(#XMLID_21_);}
	.st11{fill:none;stroke:#B82525;stroke-width:2;stroke-linecap:round;stroke-miterlimit:10;}
	.st12{fill:#999999;}
	.st13{font-family:'MicrosoftTaiLe-Bold';}
	.st14{font-size:59.5502px;}
</style>
<g id="XMLID_255_">
	<g id="XMLID_14358_">
		<path id="XMLID_14767_" class="st0" d="M718.8,396.1c-9.9-16.3-26.4-20.1-44.3-15.1c-7.9,2.2-14.8,6.9-20.8,12.5
			c-11.9,10.9-20.2,24.1-27.9,37.6c-12.5,21.9-19.4,45.6-24.7,69.7c-2.7,12.5-6.1,25-6.6,37.8c-1,22.4-1,44.9-1.5,67.4
			c-0.5,14.7-1.4,29.4-2.3,44.1c-2.3,38.1-7.2,75.8-17.6,112.8c-8.1,28.7-18.2,56.9-30.2,84.4c-6,13.7-12.5,27.3-19.5,40.6
			c-6.5,12.5-12.8,25.3-22.7,35.8c-18.6,19.6-42.2,27.9-70.9,17.7c-5.9-2.1-11.2-5.1-16.2-8.8c-8.6-6.4-15.8-14-22-22.4
			c-11.4-15.6-21.1-32-25.2-50.9c-3.8-17.4-5.5-35-5.4-52.8c0.1-21.2-0.5-42.5-0.8-63.8c-0.1-7-0.1-6.9-7.6-6.9c-2.6,0-3,0.9-2.9,3
			c0.3,8.8,0.1,17.5-0.3,26.3c-0.6,15.8-1.3,31.6-1.7,47.4c-0.3,14.5,2.1,28.7,4.5,42.9c2.2,12.8,4.6,25.5,10.9,37.4
			c11.8,22.2,27.6,41.1,49.8,55c19.3,12.1,40.7,14.7,62.5,8c16.8-5.1,27.9-17.3,37.7-30.8c10-13.8,37.3-55.9,41.7-68.7
			c10.2-29.3,19.1-59,26.9-88.9c11.3-43.7,19.3-88,21.5-133c1.5-30.3,2.8-60.6,5.9-90.7c2.8-27.4,6.6-54.6,14.3-81.2
			c5.1-17.6,13.4-33.8,25.4-48.2c6.8-8,14.4-15.3,24.5-19.7c11.1-4.8,21.5-2.7,29.5,5.9c12.5,13.4,12.4,31.3,0,44.9
			c-8.6,9.4-19.6,13-32.6,12c-1.9-0.1-3.5-0.8-5.1-1.8c-0.7-0.5-1.5-1-1.1-2c0.3-0.8,1.2-0.7,2-0.7c3.3-0.2,6.7-0.3,10-0.5
			c6-0.4,11.7-1.8,16.7-5.1c0.7-0.5,2.4-1.3,0.3-2c-9.2-3-18.6-4.7-28-0.8c-6.3,2.6-11,9.3-10.3,14.4c0.7,5.1,6.8,10.1,14,10.8
			c11.7,1.1,22.9-0.8,32.7-7C725.7,447.8,733,419.4,718.8,396.1z"/>
		<path id="XMLID_14697_" class="st0" d="M713.6,490.9c0.6-8.4-0.7-16.7-3.9-24.6c-0.2-0.6-0.2-1.4-1.2-1.6c-1.5,1.3-3,2.6-4.9,3.4
			c-1.8,0.7-1.9,1.8-1.6,3.4c1.1,4.8,1,9.6,0.7,14.4c-1,12.7-7.4,22.1-19.8,27.7c-9.3,4.2-19.3,5-29.1,3.2c-10.9-2-18.5-8.6-23.3-18
			c-0.7-1.3-1.5-3.1,0.4-4c1.7-0.8,2.5,0.8,3.2,1.8c2.5,3.4,5.4,6.6,8.7,9.3c5.6,4.5,11.8,7.3,20.3,5.9c-6.1-3.4-9.9-8.2-14.1-12.6
			c-4.1-4.4-8-9-12.9-12.7c-3-2.2-6.2-3.7-10.1-3.1c-1.5,0.2-2.9,0.6-3.3,2.3c-1.8,8-2.7,15.8,2.5,23.2c5.9,8.6,12.4,16.2,23.9,18.4
			c20.4,3.9,37.9-1.5,52.9-14.6C708.9,506.8,712.9,499.5,713.6,490.9z"/>
		<path id="XMLID_14694_" class="st0" d="M1181.7,474.9c-6.2,1.7-12.5,2.4-18.8,0.8c-1.7-0.4-2.1,0.7-2.6,1.7
			c-6.2,10.1-15.4,17.6-25.5,24c-10.2,6.5-21.3,7.8-33.1,4.8c-2.1-0.5-4-1.5-5.4-3.2c-0.7-0.8-1.3-1.7-0.7-2.8
			c0.7-1.2,1.9-0.6,2.9-0.3c5.2,1.5,10.5,2.1,16,1.9c4.3-0.2,8.5-0.8,12.9-3.3c-4.6-0.9-8.5-1.8-12.2-3.1c-3.8-1.3-7.5-2.5-11.3-3.6
			c-8.8-2.4-13.1-0.5-16.9,7.1c-4.1,8.3,2.3,20.3,12,21.9c3.9,0.6,7.9,0.6,11.9,0.4c7-0.5,13.3-3.4,19.6-5.9
			c14.8-6,26.9-15.5,38.2-26c5-4.6,9.8-9.5,15.1-14.6C1182.5,474.9,1182.1,474.8,1181.7,474.9z"/>
		<path id="XMLID_14691_" class="st0" d="M1158.6,506.3c-5.1,4-10.6,7.5-16.5,10.6c-0.7,0.4-1.7,0.5-1.9,1.4
			c0.2,0.1,0.3,0.3,0.5,0.4c21,1.2,41.5-1.5,61.6-6.6c2-0.5,3.4-1.7,4.4-3.4c1.2-2.1,1.1-4.2-0.5-6.2c-1.6-2-3.4-1.9-5.6-1
			c-1.4,0.6-2.9,0.8-4.4,1.1c-10.5,1.9-21.2,2.2-31.8,1.9C1162.1,504.4,1160.3,505,1158.6,506.3z"/>
		<path id="XMLID_14688_" class="st0" d="M1005.3,461.3c-0.3-0.5-0.8-1-1.3-1.3c-0.6-0.5-1.3-0.3-1.3,0.5c0.2,4.6,0,9.3,1.1,14.2
			C1006.6,471.3,1007.3,464.4,1005.3,461.3z"/>
		<path id="XMLID_14685_" class="st0" d="M1234.8,393.7c-5,0-8.9,1.8-12.4,5.3c-12.2,12.3-23.2,25.5-33.2,39.4
			c-2.8,3.9-5.7,7.8-9.1,12.4c7.3-2.3,12.9-5.7,18.4-9.2c13.9-8.6,25.3-18.9,28-35.3c0.3-1.8,1.6-3.3,3.4-4.6
			c1.1,2.7,1.4,3.7,1.1,6.4c-1.2,10.1-4.9,19.2-13,26.3c-8.8,7.8-18.6,14.4-29.5,19.4c-4.3,2-8.8,3.3-13.6,3.7
			c-5.4,0.5-10.5-0.2-14.1-4.3c-3.8-4.3-8.8-5.6-14.3-5.9c-12.2-0.6-23.1,3.2-33.5,8.8c-8.6,4.7-16.1,10.8-23.7,16.7
			c-13.4,10.5-28.6,17.6-45.6,21.3c-6.8,1.4-13.7,1.4-18.3-4.9c-1-1.3-1.6-0.5-2.3,0.1c-2.7,2.5-5.3,5.1-8,7.5
			c-1.3,1.2-0.7,2.1,0.1,3.1c5.7,8.3,13.6,10.9,24.8,8.3c23-5.3,42.1-17.9,61.2-30.1c9.4-6,19.2-11.3,29.8-14.8
			c7.8-2.6,15.6-2.2,23,2.1c10.2,6,21,6,32,2.2c9.3-3.2,18.2-7.2,26.1-13c6.1-4.5,11.8-9.5,17.1-14.7c7.3-7.1,12.6-15.4,14.8-25.1
			c1.2-5.4,1.1-10.9-1.5-16C1241.2,395.9,1238.8,393.7,1234.8,393.7z"/>
		<path id="XMLID_14682_" class="st0" d="M873.4,459.8c0.4,4.2,0.8,8.3,2,12.9C878.1,467.5,877.2,461.6,873.4,459.8z"/>
		<path id="XMLID_14679_" class="st0" d="M1029.1,461.6c-0.5-10.5-8.3-17.8-19.6-18.3c-6.8-0.3-13,1.6-19.1,3.9
			c-23.9,8.9-43.1,24.5-63,39c-4.6,3.3-8.5,7.4-13.1,10.8c-4.1,3-14.5,2.5-18.1-1.3c-1.3-1.4-1.7-4.5-3.7-4.2
			c-1.8,0.4-3.2,2.8-4.8,4.3c-0.1,0.1-0.2,0.1-0.2,0.2c-1.4,1.2-3.7,2.4-4,3.8c-0.3,1.5,1.4,3.3,2.3,4.9c4.7,8.8,10.9,11.1,21,8.4
			c7.9-2.1,14-6.5,19.6-11.8c5.2-4.9,9.9-10.2,15.5-14.6c13.7-10.5,27.7-20.6,43.2-28.7c4.5-2.3,9.3-3.9,14.4-4
			c6.2-0.1,10.6,2.9,12,8.5c2,7.7-0.5,14.4-6.2,20c-7,6.9-15.3,12.1-24.7,15.7c-3.6,1.4-7.2,2.6-11.2,2.3c-7-0.6-11.1-4.7-11.2-11.3
			c0-2.6,0.9-5.1,1.4-8c-4.3,2.8-8.1,5.7-11.7,8.7c-0.9,0.8-1.4,1.8-1.8,2.8c-3,7.5,2.1,18.3,10.1,21.2c8.9,3.3,17.7,2.4,26-1.6
			c14.8-7.2,27.7-16.7,38.1-29C1025.7,477.2,1029.5,470.1,1029.1,461.6z"/>
		<path id="XMLID_14676_" class="st0" d="M800,454.7c10.7-10.7,19.2-22.7,23.4-37.1c3.2-10.9,4.6-21.8,0.3-32.7
			c-4.4-11.1-17.9-13.2-26.1-4c-4.4,5-8.7,10.1-12.1,15.7c-13,21.6-24.7,43.8-34.4,66.9c-2.9,7-5.1,14.2-7.7,21.4
			c0.3,0.1,0.5,0.3,0.8,0.4c5.5-5.8,13.9-9.6,15.2-18.6c0.2-1.3,0.8-2.5,1.3-3.7c9.6-22.5,20-44.6,33.2-65.4c1.9-3,3.9-6,6.7-8.5
			c3.2-2.9,7.1-5.1,11.7-3.4c4.4,1.6,4.8,5.6,5,9.4c0.2,7-1.3,13.9-4.1,20.3c-5.3,11.9-12.8,22.6-21.4,32.6
			c-12.9,15.1-27.6,28.8-43.1,41.7c-11,9.2-22.6,17.8-36.6,23c-0.7,0.3-1.4,0.7-1.9,1.2c-3.5,3.6-7.4,6.7-11.2,10.2
			c0.9-0.2,1.9-0.4,2.8-0.7c2.6-0.8,5.1-1.5,7.6-2.5c17.3-6.7,32.2-17.2,47.1-27.4C772.8,482.4,786.3,468.5,800,454.7z"/>
		<path id="XMLID_14673_" class="st0" d="M899.5,461.3c-0.6-10.1-8.3-17.2-19-17.9c-6.9-0.4-13.2,1.4-19.4,3.8
			c-16.1,6.3-30.7,15.1-44.5,25.1c-10.4,7.5-19.6,16.4-29.7,24.2c-5.3,4.1-10.9,7.6-17.4,9.7c-6.7,2.1-12.1,0.7-16-4.4
			c-1.1-1.4-1.6-0.7-2.5-0.1c-3.1,2.2-6,4.6-9.2,6.6c-1.5,1-1.9,2.1-1.4,3.6c2.8,9.1,8.8,12.4,18.4,8.9c11.5-4.1,22.2-10,31.8-17.2
			c21.2-15.9,41.4-32.9,65.2-45.6c4.3-2.3,8.9-3.7,13.8-3.9c6.8-0.3,11.4,3,12.7,9.2c1.3,5.8,0.1,11.2-3.6,16.1
			c-3.6,4.8-8.4,8.3-13.5,11.6c-4.8,3.2-10.5,4.7-15.5,7.3c-4.5,2.3-8.7,2.7-13.3,1.5c-4.7-1.2-7.4-4.9-7.6-9.4
			c-0.1-2.9,0.5-5.8,0.8-8.9c-3.4,2.6-6.9,5.1-10.3,7.7c-1.5,1.1-2.3,2.6-2.9,4.2c-2.5,7.4,2.6,17.8,10.4,20.6
			c8.8,3.2,17.5,2.4,25.7-1.5c15-7.2,28-16.8,38.3-29.2C896.3,477.1,900.1,469.9,899.5,461.3z"/>
		<linearGradient id="XMLID_13_" gradientUnits="userSpaceOnUse" x1="536.8699" y1="449.1294" x2="536.8699" y2="526.4929">
			<stop  offset="0" style="stop-color:#FFFFFF;stop-opacity:0"/>
			<stop  offset="1" style="stop-color:#A91F1B"/>
		</linearGradient>
		<path id="XMLID_14672_" class="st1" d="M649,414.2c6.8-8,14.4-15.3,24.5-19.7c11.1-4.8,21.5-2.7,29.5,5.9
			c12.5,13.4,12.4,31.3,0,44.9c-8.6,9.4-19.6,13.1-32.6,12c-1.9-0.1-3.5-0.8-5.1-1.8c-0.7-0.5-1.5-1-1.1-2c0.3-0.8,1.2-0.7,2-0.7
			c3.3-0.2,6.7-0.3,10-0.5c6-0.4,11.7-1.8,16.7-5.1c0.7-0.5,2.4-1.3,0.3-2c-9.2-3-18.6-4.7-28-0.8c-6.3,2.6-11,9.3-10.3,14.4
			c0.7,5.1,6.8,10.1,14,10.8c11.7,1.1,22.9-0.8,32.7-7c24-14.9,31.3-43.3,17.1-66.6c-9.9-16.3-26.4-20.1-44.3-15.1
			c-7.9,2.2-14.8,6.9-20.8,12.5c-11.9,10.9-20.2,24.1-27.9,37.6c-12.5,21.9-19.4,45.6-24.7,69.7c-2.7,12.5-6.1,25-6.6,37.8
			c-1,22.4-1,44.9-1.5,67.4c-0.5,14.7-1.4,29.4-2.3,44.1c-2.3,38.1-7.2,75.8-17.6,112.8c-8.3,29.6-18.4,59.3-31,87.8
			c-6.4,14.5-13.5,28.8-21.5,42.6c-7,12.2-13.9,27.1-25.5,35.8c-19.8,14.9-40.4,21.1-65.3,12.2c-5.9-2.1-11.2-5.1-16.2-8.8
			c-8.6-6.4-15.8-14-22-22.4c-11.4-15.6-21.1-32-25.2-50.9c-3.8-17.4-5.5-35-5.4-52.8c0.1-21.2-0.5-42.5-0.8-63.8
			c-0.1-7-0.1-6.9-7.6-6.9c-2.6,0-3,0.9-2.9,3c0.3,8.8,0.1,17.5-0.3,26.3c-0.6,15.8-1.3,31.6-1.7,47.4c-0.3,14.5,2.1,28.7,4.5,42.9
			c2.2,12.8,4.6,25.5,10.9,37.4c11.8,22.2,27.6,41.1,49.8,55c13.1,8.2,28.6,12.5,44.4,11.4c14.2-1,30.2-5.1,41.1-14
			c7.1-5.7,12.7-12.8,17.9-20.1c4.7-6.6,9.2-13.3,13.4-20.2c12.3-20.2,23.1-42.1,30.5-64.2c8-24.2,15.2-48.7,21.6-73.4
			c11.3-43.7,19.3-88,21.5-133c1.5-30.3,2.8-60.6,5.9-90.7c2.8-27.4,6.6-54.6,14.3-81.2C628.7,444.7,637,428.6,649,414.2z"/>
		<linearGradient id="XMLID_14_" gradientUnits="userSpaceOnUse" x1="667.5671" y1="445.301" x2="667.5671" y2="518.4441">
			<stop  offset="0" style="stop-color:#FFFFFF;stop-opacity:0"/>
			<stop  offset="1" style="stop-color:#A91F1B"/>
		</linearGradient>
		<path id="XMLID_14671_" class="st2" d="M713.6,490.9c0.6-8.4-0.7-16.7-3.9-24.6c-0.2-0.6-0.2-1.4-1.2-1.6c-1.5,1.3-3,2.6-4.9,3.4
			c-1.8,0.7-1.9,1.8-1.6,3.4c1.1,4.8,1,9.6,0.7,14.4c-1,12.7-7.4,22.1-19.8,27.7c-9.3,4.2-19.3,5-29.1,3.2c-10.9-2-18.5-8.6-23.3-18
			c-0.7-1.3-1.5-3.1,0.4-4c1.7-0.8,2.5,0.8,3.2,1.8c2.5,3.4,5.4,6.6,8.7,9.3c5.6,4.5,11.8,7.3,20.3,5.9c-6.1-3.4-9.9-8.2-14.1-12.6
			c-4.1-4.4-8-9-12.9-12.7c-3-2.2-6.2-3.7-10.1-3.1c-1.5,0.2-2.9,0.6-3.3,2.3c-1.8,8-2.7,15.8,2.5,23.2c5.9,8.6,12.4,16.2,23.9,18.4
			c20.4,3.9,37.9-1.5,52.9-14.6C708.9,506.8,712.9,499.5,713.6,490.9z"/>
		<linearGradient id="XMLID_15_" gradientUnits="userSpaceOnUse" x1="1134.6875" y1="445.3034" x2="1134.6875" y2="518.4433">
			<stop  offset="0" style="stop-color:#FFFFFF;stop-opacity:0"/>
			<stop  offset="1" style="stop-color:#A91F1B"/>
		</linearGradient>
		<path id="XMLID_14670_" class="st3" d="M1181.7,474.9c-6.2,1.7-12.5,2.4-18.8,0.8c-1.7-0.4-2.1,0.7-2.6,1.7
			c-6.2,10.1-15.4,17.6-25.5,24c-10.2,6.5-21.3,7.8-33.1,4.8c-2.1-0.5-4-1.5-5.4-3.2c-0.7-0.8-1.3-1.7-0.7-2.8
			c0.7-1.2,1.9-0.6,2.9-0.3c5.2,1.5,10.5,2.1,16,1.9c4.3-0.2,8.5-0.8,12.9-3.3c-4.6-0.9-8.5-1.8-12.2-3.1c-3.8-1.3-7.5-2.5-11.3-3.6
			c-8.8-2.4-13.1-0.5-16.9,7.1c-4.1,8.3,2.3,20.3,12,21.9c3.9,0.6,7.9,0.6,11.9,0.4c7-0.5,13.3-3.4,19.6-5.9
			c14.8-6,26.9-15.5,38.2-26c5-4.6,9.8-9.5,15.1-14.6C1182.5,474.9,1182.1,474.8,1181.7,474.9z"/>
		<linearGradient id="XMLID_16_" gradientUnits="userSpaceOnUse" x1="1173.8945" y1="445.3009" x2="1173.8945" y2="518.444">
			<stop  offset="0" style="stop-color:#FFFFFF;stop-opacity:0"/>
			<stop  offset="1" style="stop-color:#A91F1B"/>
		</linearGradient>
		<path id="XMLID_14669_" class="st4" d="M1158.6,506.3c-5.1,4-10.6,7.5-16.5,10.6c-0.7,0.4-1.7,0.5-1.9,1.4
			c0.2,0.1,0.3,0.3,0.5,0.4c21,1.2,41.5-1.5,61.6-6.6c2-0.5,3.4-1.7,4.4-3.4c1.2-2.1,1.1-4.2-0.5-6.2c-1.6-2-3.4-1.9-5.6-1
			c-1.4,0.6-2.9,0.8-4.4,1.1c-10.5,1.9-21.2,2.2-31.8,1.9C1162.1,504.4,1160.3,505,1158.6,506.3z"/>
		<linearGradient id="XMLID_17_" gradientUnits="userSpaceOnUse" x1="1129.6815" y1="445.3022" x2="1129.6815" y2="518.4432">
			<stop  offset="0" style="stop-color:#FFFFFF;stop-opacity:0"/>
			<stop  offset="1" style="stop-color:#A91F1B"/>
		</linearGradient>
		<path id="XMLID_14668_" class="st5" d="M1234.8,393.7c-5,0-8.9,1.8-12.4,5.3c-12.2,12.3-23.2,25.5-33.2,39.4
			c-2.8,3.9-5.7,7.8-9.1,12.4c7.3-2.3,12.9-5.7,18.4-9.2c13.9-8.6,25.3-18.9,28-35.3c0.3-1.8,1.6-3.3,3.4-4.6
			c1.1,2.7,1.4,3.7,1.1,6.4c-1.2,10.1-4.9,19.2-13,26.3c-8.8,7.8-18.6,14.4-29.5,19.4c-4.3,2-8.8,3.3-13.6,3.7
			c-5.4,0.5-10.5-0.2-14.1-4.3c-3.8-4.3-8.8-5.6-14.3-5.9c-12.2-0.6-23.1,3.2-33.5,8.8c-8.6,4.7-16.1,10.8-23.7,16.7
			c-13.4,10.5-28.6,17.6-45.6,21.3c-6.8,1.4-13.7,1.4-18.3-4.9c-1-1.3-1.6-0.5-2.3,0.1c-2.7,2.5-5.3,5.1-8,7.5
			c-1.3,1.2-0.7,2.1,0.1,3.1c5.7,8.3,13.6,10.9,24.8,8.3c23-5.3,42.1-17.9,61.2-30.1c9.4-6,19.2-11.3,29.8-14.8
			c7.8-2.6,15.6-2.2,23,2.1c10.2,6,21,6,32,2.2c9.3-3.2,18.2-7.2,26.1-13c6.1-4.5,11.8-9.5,17.1-14.7c7.3-7.1,12.6-15.4,14.8-25.1
			c1.2-5.4,1.1-10.9-1.5-16C1241.2,395.9,1238.8,393.7,1234.8,393.7z"/>
		<linearGradient id="XMLID_18_" gradientUnits="userSpaceOnUse" x1="956.3401" y1="445.302" x2="956.3401" y2="518.4432">
			<stop  offset="0" style="stop-color:#FFFFFF;stop-opacity:0"/>
			<stop  offset="1" style="stop-color:#A91F1B"/>
		</linearGradient>
		<path id="XMLID_14667_" class="st6" d="M1029.1,461.6c-0.5-10.5-8.3-17.8-19.6-18.3c-6.8-0.3-13,1.6-19.1,3.9
			c-23.9,8.9-43.1,24.5-63,39c-4.6,3.3-8.5,7.4-13.1,10.8c-4.1,3-14.5,2.5-18.1-1.3c-1.3-1.4-1.7-4.5-3.7-4.2
			c-1.8,0.4-3.2,2.8-4.8,4.3c-0.1,0.1-0.2,0.1-0.2,0.2c-1.4,1.2-3.7,2.4-4,3.8c-0.3,1.5,1.4,3.3,2.3,4.9c4.7,8.8,10.9,11.1,21,8.4
			c7.9-2.1,14-6.5,19.6-11.8c5.2-4.9,9.9-10.2,15.5-14.6c13.7-10.5,27.7-20.6,43.2-28.7c4.5-2.3,9.3-3.9,14.4-4
			c6.2-0.1,10.6,2.9,12,8.5c2,7.7-0.5,14.4-6.2,20c-7,6.9-15.3,12.1-24.7,15.7c-3.6,1.4-7.2,2.6-11.2,2.3c-7-0.6-11.1-4.7-11.2-11.3
			c0-2.6,0.9-5.1,1.4-8c-4.3,2.8-8.1,5.7-11.7,8.7c-0.9,0.8-1.4,1.8-1.8,2.8c-3,7.5,2.1,18.3,10.1,21.2c8.9,3.3,17.7,2.4,26-1.6
			c14.8-7.2,27.7-16.7,38.1-29C1025.7,477.2,1029.5,470.1,1029.1,461.6z"/>
		<linearGradient id="XMLID_19_" gradientUnits="userSpaceOnUse" x1="762.7101" y1="445.3021" x2="762.7101" y2="518.4427">
			<stop  offset="0" style="stop-color:#FFFFFF;stop-opacity:0"/>
			<stop  offset="1" style="stop-color:#A91F1B"/>
		</linearGradient>
		<path id="XMLID_14666_" class="st7" d="M800,454.7c10.7-10.7,19.2-22.7,23.4-37.1c3.2-10.9,4.6-21.8,0.3-32.7
			c-4.4-11.1-17.9-13.2-26.1-4c-4.4,5-8.7,10.1-12.1,15.7c-13,21.6-24.7,43.8-34.4,66.9c-2.9,7-5.1,14.2-7.7,21.4
			c0.3,0.1,0.5,0.3,0.8,0.4c5.5-5.8,13.9-9.6,15.2-18.6c0.2-1.3,0.8-2.5,1.3-3.7c9.6-22.5,20-44.6,33.2-65.4c1.9-3,3.9-6,6.7-8.5
			c3.2-2.9,7.1-5.1,11.7-3.4c4.4,1.6,4.8,5.6,5,9.4c0.2,7-1.3,13.9-4.1,20.3c-5.3,11.9-12.8,22.6-21.4,32.6
			c-12.9,15.1-27.6,28.8-43.1,41.7c-11,9.2-22.6,17.8-36.6,23c-0.7,0.3-1.4,0.7-1.9,1.2c-3.5,3.6-7.4,6.7-11.2,10.2
			c0.9-0.2,1.9-0.4,2.8-0.7c2.6-0.8,5.1-1.5,7.6-2.5c17.3-6.7,32.2-17.2,47.1-27.4C772.8,482.4,786.3,468.5,800,454.7z"/>
		<linearGradient id="XMLID_20_" gradientUnits="userSpaceOnUse" x1="819.9135" y1="445.3032" x2="819.9135" y2="518.4435">
			<stop  offset="0" style="stop-color:#FFFFFF;stop-opacity:0"/>
			<stop  offset="1" style="stop-color:#A91F1B"/>
		</linearGradient>
		<path id="XMLID_14665_" class="st8" d="M899.5,461.3c-0.6-10.1-8.3-17.2-19-17.9c-6.9-0.4-13.2,1.4-19.4,3.8
			c-16.1,6.3-30.7,15.1-44.5,25.1c-10.4,7.5-19.6,16.4-29.7,24.2c-5.3,4.1-10.9,7.6-17.4,9.7c-6.7,2.1-12.1,0.7-16-4.4
			c-1.1-1.4-1.6-0.7-2.5-0.1c-3.1,2.2-6,4.6-9.2,6.6c-1.5,1-1.9,2.1-1.4,3.6c2.8,9.1,8.8,12.4,18.4,8.9c11.5-4.1,22.2-10,31.8-17.2
			c21.2-15.9,41.4-32.9,65.2-45.6c4.3-2.3,8.9-3.7,13.8-3.9c6.8-0.3,11.4,3,12.7,9.2c1.3,5.8,0.1,11.2-3.6,16.1
			c-3.6,4.8-8.4,8.3-13.5,11.6c-4.8,3.2-10.5,4.7-15.5,7.3c-4.5,2.3-8.7,2.7-13.3,1.5c-4.7-1.2-7.4-4.9-7.6-9.4
			c-0.1-2.9,0.5-5.8,0.8-8.9c-3.4,2.6-6.9,5.1-10.3,7.7c-1.5,1.1-2.3,2.6-2.9,4.2c-2.5,7.4,2.6,17.8,10.4,20.6
			c8.8,3.2,17.5,2.4,25.7-1.5c15-7.2,28-16.8,38.3-29.2C896.3,477.1,900.1,469.9,899.5,461.3z"/>
		<path id="XMLID_890_" d="M1250.1,397.8c-2.6-6-6.9-9.4-12.7-10.2c-4.8-0.6-11.8-0.8-17.2,4.7c-1.2,1.2-2.6,2.4-3.9,3.6
			c-1.4,1.2-2.8,2.5-4.2,3.9c-13.5,13.9-26.4,29.9-39.2,48.9c-1.1,1.6-2,2.5-2.7,2.5c-0.7,0.1-1.6-0.6-3-2
			c-4.8-5.1-10.7-8.1-17.6-8.8c-10.3-1.1-20.7,0.7-31.7,5.3c-10.6,4.5-20.9,11-30.4,19.3c-9,7.9-20.1,13.8-34.8,18.7
			c-4.8,1.6-9.8,3.2-14.9,3.8c-3,0.3-5.5-0.3-7.6-2.1c-1.1-1-1.2-1.5-0.4-2.6c2.6-3.8,4.5-8.1,5.7-12.8c2.1-8.6,0-17.2-5.8-23.5
			c-5.5-6.1-13.8-9.4-22.6-8.9c-10.1,0.5-19.9,3.1-30,7.9c-24.7,11.7-45.5,28.3-60.9,41.6l-0.9,0.8c-3.5,3-6.5,5.6-11.7,4.4
			c-2.2-0.5-3.5-1.3-4.4-2.7c-1.1-1.8-1.7-2.8-0.4-4.5c3.5-4.5,5.9-9.6,7.2-15.2c1.8-7.5,0.3-15.3-4-21.4c-3.8-5.4-9.4-9-15.8-10.2
			c-8.1-1.5-16.7-0.8-25.4,2c-13.3,4.2-25,11.1-35,17.2c-13.6,8.3-25.7,18.7-37.5,28.7l-1.1,0.9c-4.9,4.2-10.9,8.9-18.2,12
			c-2.9,1.2-5.1,1.6-7.3,1.4c-1.4-0.2-2.4-1-2.9-2.3c-0.2-0.6-0.1-0.8,0.9-1.4c0.3-0.2,0.6-0.3,0.8-0.5l3.5-2.7
			c14.1-10.7,28.6-21.8,40.9-34.9c14.4-15.3,22.6-29.4,25.9-44.5c2.8-12.8,2-23.2-2.4-32.6c-3-6.3-7.1-9.6-12.7-10.3
			c-10.5-1.3-18.3,1.2-23.9,7.8c-9.5,11.2-16.4,21-21.6,31l-1.2,2.3c-4.6,8.6-9.4,17.6-13.9,26.4c-6.3,12.3-14,28.6-17.5,46.2
			c-0.8,4.3-2.8,7.2-6.5,9.6c-1.4,0.9-2.8,1.9-4.2,2.9c-2.7,1.9-5.5,3.8-8.5,5.4c4.8-13.2,3.7-26.7-3.4-41.4c-0.5-1-0.4-1.4,0.5-2.3
			c17.4-17.3,21.4-41,10.4-62.1c-7.2-13.9-18.3-21.6-33-23c-15.4-1.4-29.5,2.9-41.7,12.8c-11.2,9-19.3,20.5-26.3,31.6
			c-16.3,25.4-26.9,55.6-33.5,95c-1.8,11-2.3,22.3-2.7,33.2c-0.2,6-0.5,12.3-0.9,18.4c-1.2,15.9-2,32.1-2.7,47.8
			c-0.7,15.6-1.4,31.7-2.6,47.6c-2.6,33.6-6.6,61.3-12.7,87.2c-7.5,32.3-17.4,63.2-29.4,92c-11.4,27.5-24.3,56.2-44.1,79.6
			c-12.5,14.7-31.7,21.7-51.5,18.7c-11.1-1.7-21.8-6.6-31.9-14.7c-17.5-14.2-29.7-31-36.1-50.1c-5.5-16.4-8.6-34.3-9.2-53.3
			c-0.2-5.7,0-11.5,0.3-17.1c0.2-3.8,0.3-7.7,0.3-11.5c0-3.7,0.1-7.4,0.1-11c0.2-15,0.4-30.5-1.1-45.8l-0.1-0.9h-27.1l2.3,1.7
			c1.1,0.8,1.1,1.6,0.9,3.1l0,0.2c-0.2,1.7-0.4,3.6-0.5,5.5c-0.5,12.6-1.1,25.2-1.5,37.7c-0.7,18.6-1.2,38.3,0.9,57.8
			c2.5,24.2,9,44.9,19.7,63.4c10.1,17.4,22.2,31.7,36.8,43.7c15.2,12.4,30.4,18.8,46.6,19.8c2.9,0.2,6,0.3,9.2,0.3
			c8,0,16.6-0.9,24.6-4.6c28-12.8,43.1-34.9,54.3-54.8c4.6-8.2,9-16.5,13.1-24.8c30.8-61.1,49.6-124.2,56.1-187.8
			c0.5-5.3,1.1-10.6,1.8-15.9c0.9-7.8,1.8-15.8,2.5-23.8c0.5-5.7,1.2-11.4,1.8-16.9c0.8-6.8,1.7-13.9,2.1-20.9
			c0.3-5.3,0.7-10.5,1-15.8c1.3-21,2.7-42.7,5-64c0.7-6.1,1.4-12.3,2.2-18.5l0.8-6.8c8.6,14.3,19.8,21.5,35,22.7
			c12.6,1,22.2-0.1,30.9-3.4l0.6-0.2c1.4-0.6,2.7-1.1,4.1-0.8c2.8,0.5,5.4,0,8-0.5l0.4-0.1c13.7-2.6,25.6-9.1,34.3-14.5
			c0.7-0.4,1.2-0.7,1.2-0.7c0,0,0.2,0.2,0.5,1.3c2.7,9.5,10.9,14.5,21.4,13.1c6-0.8,11.2-3.4,15.6-5.7c8.8-4.6,16.9-10.5,24.7-16.1
			c3.5-2.6,7.2-5.2,10.9-7.7c0.3-0.2,0.5-0.4,0.7-0.6c0.3-0.2,0.5-0.4,0.8-0.6v0.5c-0.1,6.3,2.9,12.7,8,17.4
			c5.1,4.7,11.8,7.3,18.4,7.2c9.1-0.2,17.5-2.3,24.9-6.4c5.7-3.2,11.3-6.8,16.5-10.9c0.3-0.3,1.2-1,1.4-1c0,0,0.3,0.2,0.7,1.4
			c1.3,4.3,3.9,7.9,7.8,10.9c7,5.4,17.9,5.6,27,0.6c6.9-3.9,13-8.8,18.9-13.7c1.3-1,2.5-2.1,3.8-3.1c0.3-0.3,0.6-0.6,1-0.8
			c0.4-0.4,0.8-0.8,1.3-1.1c0,6,2.8,12.1,7.8,16.7c4.9,4.7,11.5,7.4,17.9,7.4c0,0,0.1,0,0.1,0c9.3,0,17.9-2.2,25.5-6.4
			c6.2-3.4,12.1-7.4,17.5-11.7c0.9-0.7,1.5-1.1,1.9-1c0.1,0,0.5,0.2,1.1,1.3c1.4,2.7,3.8,4.8,5.7,6.2c7,5.3,15.4,6.6,26.4,3.9
			c11.9-2.9,23.7-7.7,35.1-14.4c0.2-0.1,0.4-0.3,0.6-0.4c0.4-0.2,0.7-0.4,1-0.6l-0.3,1.8c-1.2,7.2,1.1,14.3,6.1,19.5
			c4.9,5,12.1,7.6,19.5,7.2c6.3-0.4,14.4-1.3,22-4.4c2.6-1.1,4.8-1.2,7.3-0.5c3.4,1.1,7,1.2,10.2,1.4c21.6,1,42.3-3.1,59.8-7.3
			c3.9-0.9,6.9-3.3,8.8-6.9c3.3-6.2-0.2-11-3.8-14.9c-1.8-2-4.1-1.2-5.8-0.6c-0.8,0.3-1.6,0.6-2.2,0.6c-0.5,0-0.9,0.1-1.3,0.2
			c-0.1,0-0.3,0.1-0.4,0.1c-10.3,2.1-21,2.3-30.1,2.3c0.5-0.3,0.9-0.6,1.3-1l2.8-2.7c7.2-6.7,14.6-13.7,19.8-22.3
			c0.2-0.3,0.5-0.5,1.3-0.8c17.4-6.9,31.1-18.4,41-27.6c7.7-7.2,13.1-15.8,15.9-25.8C1253.4,411.3,1253,404.3,1250.1,397.8z
			 M1196.5,503.5l0.5-0.1c1.4-0.2,2.8-0.5,4.1-1c2.1-0.9,3.3-0.7,4.4,0.7c1.3,1.7,1.5,3.3,0.4,5.2c-0.8,1.5-2.1,2.5-3.7,2.9
			c-21.1,5.4-40.6,7.5-59.7,6.6c0.1,0,0.1-0.1,0.2-0.1c6-3.1,11.6-6.7,16.6-10.7c1.5-1.2,3.1-1.7,5.2-1.6
			C1173.9,505.6,1185.2,505.6,1196.5,503.5z M1128.4,471.3c2.2-0.9,4.5-1.6,7.5-2.3c5.7-1.3,10.5,0.5,16,3.6l0.5,0.3
			c1.1,0.6,2.3,1.3,2.4,1.6c0,0.3-0.9,1.5-2,2.7c-4.7,5.5-10.1,10.5-16.2,14.8c-1,0.7-1.9,0.9-3.4,0.8c-7.9-0.8-15.5-3.2-21.9-5.3
			c-3-1-5.7-1.8-8.8-2.2c2.1-1.8,3.9-3.4,6-4.5C1115.8,477,1122.3,473.9,1128.4,471.3z M1087.9,499.5c2.6-5.3,5.3-7.6,9.7-7.6
			c1.7,0,3.7,0.3,6,1c3.8,1,7.6,2.3,11.3,3.5c3,1,6,1.8,9.6,2.5c-3.6,1.5-7,1.9-10,2c-5.2,0.2-10.5-0.4-15.6-1.9l-0.4-0.1
			c-0.8-0.3-2.6-0.8-3.7,0.9c-1,1.7,0.2,3.2,0.8,3.8c1.4,1.7,3.4,2.9,5.9,3.5c12.5,3.1,23.9,1.5,33.9-5
			c12.3-7.9,20.3-15.4,25.8-24.4l0.2-0.3c0.5-0.9,0.7-1,1.3-0.9c5.6,1.4,11.7,1.2,18.5-0.6c-1,1-2.1,2-3.1,3
			c-3.5,3.4-6.8,6.6-10.2,9.8c-9.3,8.6-22,19.3-37.9,25.8l-2.2,0.9c-5.4,2.2-11.1,4.6-17.1,5c-4.6,0.3-8.4,0.2-11.6-0.4
			c-4.1-0.7-8-3.6-10.3-7.7C1086.4,508,1086,503.2,1087.9,499.5z M1154.6,464.8c-7.4-4.3-15.4-5.1-23.9-2.2
			c-9.6,3.2-19.2,8-30.1,14.9l-2.2,1.4c-18,11.6-36.7,23.5-58.7,28.6c-10.7,2.5-18.2,0-23.7-7.9c-0.8-1.1-0.8-1.3-0.2-1.9
			c1.7-1.6,3.4-3.2,5.1-4.8c1-0.9,1.9-1.8,3.1-2.9c0.1-0.1,0.3-0.3,0.3-0.4c0,0,0.1,0.1,0.3,0.3c5.4,7.3,13.7,6.5,19.4,5.3
			c17-3.6,32.5-10.8,46-21.4l1.5-1.2c6.9-5.5,14.1-11.1,22.1-15.5c11.8-6.4,22.2-9.2,32.9-8.7c6.2,0.3,10.4,2,13.6,5.5
			c3.4,3.8,8.2,5.3,15,4.6c4.7-0.4,9.4-1.7,13.9-3.8c10.6-4.9,20.6-11.5,29.7-19.6c7.5-6.7,11.9-15.5,13.3-26.9
			c0.3-2.8,0.1-4-1.1-6.8l-0.5-1.2l-1.1,0.8c-1.5,1.2-3.4,2.8-3.8,5.2c-2.9,17.2-15.5,27.2-27.5,34.6c-5.2,3.2-9.7,5.9-15.2,8
			l1.3-1.7c2.1-2.9,4.1-5.5,6-8.2c10.2-14.3,21.3-27.5,33.1-39.3c3.4-3.4,7.1-5,11.7-5c0,0,0,0,0,0c3.1,0,5.4,1.6,7,4.8
			c2.2,4.5,2.7,9.7,1.4,15.4c-2,9-6.8,17-14.6,24.6c-5.5,5.4-11.2,10.3-17,14.6c-6.9,5.1-15.2,9.2-25.8,12.9
			C1174,470.9,1163.8,470.2,1154.6,464.8z M997.3,460c0.1,0,0.2,0,0.2,0c0,0,0.2,0.2,0.1,0.9c-0.1,1.1,0,2.3,0,3.4l0,1.4
			c-0.2,4.5,0.3,8.4,1.5,11.9c0.4,1.2,0.1,1.8-0.9,2.6c-6.7,5.7-15,10.2-25.5,13.8c-2.1,0.7-4.1,0.5-5.6-0.6c-1.5-1.1-2.2-2.8-2-4.8
			c0.8-7.8,3.5-12.8,8.7-16.2c2.7-1.7,5.2-3.7,7.6-5.6c1.1-0.8,2.2-1.7,3.3-2.5c3.5-2.6,8.1-3.7,12.1-4.4
			C997.1,460,997.2,460,997.3,460z M1003.8,461c0.2,0.2,0.5,0.5,0.6,0.8c1.4,2.2,1.3,6.7-0.1,10c-0.4-2.7-0.4-5.4-0.5-8
			C1003.8,462.9,1003.8,462,1003.8,461z M947.2,493.3c0.3-0.9,0.8-1.8,1.5-2.4c3.1-2.6,6.3-5,9.6-7.2c-0.1,0.2-0.1,0.5-0.2,0.7
			c-0.4,1.7-0.8,3.4-0.8,5.1c0.1,7,4.6,11.6,12.2,12.2c4.2,0.3,7.8-0.9,11.7-2.4c9.6-3.6,18-9,25-15.9c6.3-6.1,8.4-13.1,6.4-20.9
			c-1.5-6-6.2-9.4-13-9.3c-4.9,0.1-9.8,1.4-14.9,4.1c-15.7,8.2-30.1,18.7-43.3,28.8c-3.8,2.9-7.3,6.4-10.6,9.7
			c-1.6,1.6-3.3,3.3-5,4.9c-6.6,6.2-12.5,9.8-19.2,11.5c-9.9,2.6-15.5,0.4-19.9-7.9c-0.3-0.5-0.6-1-0.9-1.5c-0.6-1-1.4-2.1-1.3-2.8
			c0.1-0.6,1.2-1.4,2.1-2.1c0.5-0.4,1.1-0.8,1.5-1.2l0.3-0.2c0.5-0.5,1-1.1,1.5-1.6c0.9-1.1,1.9-2.2,2.8-2.4
			c0.4-0.1,0.8,0.4,1.4,1.7c0.4,0.8,0.7,1.5,1.3,2.1c3.8,4.1,14.7,4.9,19.5,1.4c2.3-1.7,4.5-3.6,6.6-5.4c2.1-1.8,4.2-3.7,6.5-5.4
			c2.7-2,5.4-3.9,8.1-5.9c16.8-12.4,34.2-25.2,54.7-32.9c5.4-2,11.8-4.2,18.7-3.9c10.9,0.5,18.2,7.3,18.7,17.4
			c0.3,7.2-2.3,14-8.5,21.3c-9.9,11.7-22.5,21.4-37.7,28.7c-8.4,4.1-16.9,4.6-25.2,1.5C949.1,510.5,944.3,500.4,947.2,493.3z
			 M875.7,469.1c-0.5-2.4-0.7-4.7-1-7C875.9,463.8,876.3,466.4,875.7,469.1z M868.5,460c0,0,0.2,0.2,0.3,1c0.1,0.9,0.2,1.8,0.3,2.8
			c0.4,4.3,0.8,8.7,2.7,12.9c0.3,0.5,0.1,0.8-0.8,1.5c-0.2,0.2-0.4,0.3-0.5,0.5c-4.7,4.6-10.6,8.4-18.5,12c-2.7,1.2-5.4,2.3-8.2,3.3
			c-2.2,0.8-4.2,0.6-5.6-0.3c-1.7-1.1-2.6-3.3-2.5-6.1l0.1-0.3c1.3-5.2,2.8-11,8.8-14.8c2.6-1.6,5-3.5,7.4-5.3
			c1.1-0.9,2.2-1.7,3.4-2.6c3.8-2.8,8.6-3.9,12.7-4.6C868.4,459.9,868.5,460,868.5,460z M817.4,493.9c0.6-1.8,1.4-2.9,2.6-3.8
			c2.4-1.8,4.9-3.6,7.3-5.4l1.2-0.9c0,0.2-0.1,0.4-0.1,0.6c-0.3,2.1-0.6,4.1-0.5,6.2c0.2,5.1,3.5,9,8.4,10.3c5,1.3,9.5,0.8,14.1-1.6
			c2-1.1,4.2-2,6.3-2.8c3.1-1.3,6.4-2.7,9.3-4.6c4.9-3.2,9.9-6.8,13.7-11.9c3.8-5.1,5.1-10.7,3.8-16.8c-1.4-6.7-6.5-10.3-13.8-10
			c-4.8,0.2-9.6,1.6-14.2,4.1c-19,10.1-35.9,23.1-52.3,35.7c-4.3,3.3-8.6,6.6-13,9.9c-9.8,7.3-20.4,13.1-31.5,17.1
			c-4.4,1.6-8,1.7-10.7,0.4c-2.9-1.3-5-4.3-6.4-8.7c-0.4-1.2-0.1-1.8,1-2.5c2.3-1.5,4.5-3.1,6.6-4.7c0.9-0.7,1.8-1.3,2.7-2l0.3-0.3
			c0.1-0.1,0.3-0.3,0.3-0.3c0,0,0.2,0.1,0.4,0.4c4,5.3,9.9,7,17.1,4.7c5.8-1.8,11.3-4.9,17.7-9.9c4.3-3.4,8.6-7,12.7-10.5
			c5.5-4.6,11.1-9.4,17-13.7c15.7-11.4,29.8-19.3,44.2-24.9c5.4-2.1,11.8-4.2,19-3.8c10.2,0.6,17.5,7.5,18.1,17
			c0.5,7.3-2.2,14.2-8.4,21.6c-9.9,11.9-22.7,21.6-38,28.9c-8.3,4-16.7,4.5-24.9,1.5C820,510.6,815,500.8,817.4,493.9z M350.7,738.8
			c0-0.7,0-1.5,0.3-1.7c0.1-0.1,0.5-0.3,1.5-0.3c0,0,0.1,0,0.1,0l0.3,0c6.2,0,6.2,0,6.3,6c0.1,6.1,0.2,12.3,0.3,18.4
			c0.3,14.8,0.6,30.2,0.5,45.3c-0.1,17.9,1.7,35.8,5.4,53c4.5,20.7,15.9,38.2,25.4,51.2c6.4,8.8,13.9,16.5,22.2,22.7
			c5.2,3.9,10.7,6.9,16.4,8.9c24,8.6,48.5,3.8,67.2-13.2c21.5-19.5,34.2-48.6,45.3-74.3l1.2-2.7c11.3-26,21.1-54.2,30.9-88.9
			c9.3-33.1,14.9-69,17.6-113l0.2-3.3c0.8-13.4,1.7-27.2,2.1-40.8c0.1-6.5,0.2-13.1,0.3-19.6c0.2-15.6,0.5-31.8,1.1-47.7
			c0.4-10.3,2.8-20.6,5-30.6c0.5-2.4,1.1-4.7,1.6-7.1c4.3-19.8,11-45.6,24.6-69.5c8.6-15.1,16.6-27.2,27.7-37.4
			c6.9-6.3,13.6-10.3,20.4-12.2c18.8-5.3,34.2-0.1,43.1,14.6c13.8,22.7,6.6,50.8-16.8,65.3c-9.2,5.7-20,8-32.1,6.8
			c-6.5-0.6-12.4-5.1-13.1-10c-0.7-4.7,3.9-11,9.7-13.5c9.5-4,18.7-2,27.3,0.8h0c-0.1,0.1-0.2,0.1-0.3,0.2l-0.3,0.2
			c-4.4,2.9-9.6,4.6-16.1,5c-2,0.1-4,0.2-5.9,0.3c-1.4,0.1-2.7,0.1-4.1,0.2l-0.3,0c-0.7,0-2,0-2.6,1.3c-0.7,1.7,0.9,2.7,1.4,3.1
			c1.8,1.2,3.6,1.9,5.6,2c13.7,1.1,25-3.1,33.5-12.4c12.8-14,12.8-32.5,0-46.2c-8.3-8.9-19.2-11.1-30.7-6.1
			c-11.3,4.9-19.2,13.3-24.9,20c-11.8,14-20.4,30.3-25.6,48.5c-8.2,28.7-11.8,57.2-14.3,81.4c-2.8,27.8-4.2,56.2-5.6,83.7l-0.4,7.1
			c-2.1,41.5-9.1,85-21.5,132.8c-7.9,30.6-18.4,60.5-31,88.8c-11.3,25.3-25.3,56.7-46.1,80.1c-8,9-17.9,15.5-28.5,18.8
			c-21.9,6.7-42.6,4-61.6-7.9c-20.5-12.8-36.7-30.7-49.4-54.6c-6.1-11.4-8.5-23.5-10.8-37.1c-2.4-13.9-4.9-28.3-4.5-42.7
			c0.3-12.4,0.8-25,1.3-37.2l0.4-10.1C350.8,757.9,351,748.4,350.7,738.8z M670.5,403.3c4.4-3,8.8-4.6,13.5-4.9
			c5.5-0.4,9.9,1.6,14.5,6.7c9.6,10.7,9.7,24.1,0.2,35.1c-0.7,0.8-0.8,0.8-2.2,0.1c-12.5-5.5-23.8-6.1-34.6-1.6
			c-6.3,2.6-10.7,7.3-13,13.7c-3,8.3,1.1,16.9,10.1,21.4c7.4,3.7,15.2,3.3,22.4,2.3c4.4-0.6,8.7-1.6,12.7-3.1c1-0.4,1.3-0.2,1.3-0.2
			c0,0,0.2,0.2,0.2,1.2v5.8c0.2,8.9-1.8,15.6-6.6,21.2c-3.6,4.2-7.8,6.5-12.5,6.9c-5.1,0.4-10.4-1.6-15.1-5.5
			c-3.7-3.2-7.2-6.7-10.6-10.1c-1.9-1.9-3.8-3.8-5.8-5.7c-3.5-3.3-6.7-5.6-10.1-7.1c-2.2-1-4.4-1.5-6.7-1.5c-0.6,0-1.1,0-1.7,0.1
			c-0.5,0.1-0.8,0-0.8,0.1c0-0.1,0-0.3,0.1-0.8c4.9-19.8,12.2-36.5,22.1-51C654.8,416.4,662.2,408.9,670.5,403.3z M623.8,485.8
			c0.2-1.1,0.9-1.4,2.5-1.6c0.6-0.1,1.1-0.1,1.6-0.1c2.5,0,4.9,1,7.7,3c4,3,7.3,6.7,10.6,10.2c0.7,0.8,1.4,1.6,2.2,2.3
			c0.7,0.7,1.3,1.4,1.9,2.1c2.9,3.2,6,6.5,10,9.3c-6,0.4-11.3-1.5-16.8-6c-3.1-2.5-6-5.6-8.6-9.1l-0.2-0.3c-0.6-0.9-2-2.9-4.3-1.8
			c-2.8,1.4-1.5,4-0.9,5.2c5.1,10.1,13.4,16.6,24,18.5c10.6,2,20.6,0.9,29.7-3.2c12.5-5.6,19.3-15.2,20.3-28.5
			c0.3-4.1,0.5-9.4-0.7-14.7c-0.3-1.4-0.1-1.9,1-2.3c1.8-0.7,3.2-1.9,4.5-3c0,0.1,0,0.1,0.1,0.2c0,0.2,0.1,0.3,0.2,0.5
			c3.1,7.9,4.4,16,3.8,24.2c-0.6,8.1-4.3,15.2-11,21.1c-15.2,13.2-32.7,18.1-52,14.4c-11.5-2.2-17.8-10.1-23.3-18
			C621.5,501.6,621.8,494.7,623.8,485.8z M703.9,521c2.4-2.1,4.8-4.2,7-6.5c0.3-0.4,0.9-0.7,1.5-0.9c14.4-5.3,26.2-14.3,36.9-23.2
			c17.5-14.6,31.6-28.3,43.2-41.8c9.7-11.3,16.7-22.1,21.5-32.8c3-6.8,4.4-13.8,4.2-20.7c-0.1-3.1-0.3-8.3-5.6-10.3
			c-1.2-0.5-2.4-0.6-3.5-0.6c-3.9,0-7,2.3-9.2,4.3c-2.8,2.5-4.8,5.5-6.8,8.7c-14.3,22.4-24.8,45.7-33.3,65.6l-0.2,0.5
			c-0.5,1.1-1,2.2-1.1,3.4c-0.8,6.1-5.1,9.6-9.6,13.4c-1.2,1-2.4,2-3.5,3c0.5-1.5,1-3,1.5-4.5c1.6-4.8,3.3-9.8,5.3-14.6
			c9.2-21.9,20.4-43.7,34.3-66.8c3.5-5.8,8-11.1,11.9-15.6c3.6-4.1,8.7-6,13.6-5.2c4.9,0.8,8.8,4.1,10.7,9
			c4.6,11.7,2.2,23.3-0.3,32.1c-3.7,12.7-11.3,24.7-23.2,36.7l-1.9,2c-12.8,12.9-26,26.2-41.3,36.7l-1.9,1.3
			c-14,9.6-28.6,19.6-45,26c-1.9,0.7-3.9,1.3-5.8,1.9l-0.6,0.2C703.1,521.8,703.5,521.4,703.9,521z M768.7,460.8
			c8.2-18,16.7-36.5,26.7-54.1c1.7-3,3.6-6,5.5-8.8c0.7-1,1.3-2.1,2-3.1c0.4-0.6,0.8-1.3,1.3-1.6l0.3-0.2c1.5-1,2.9-2,4.3-2
			c0.4,0,0.7,0.1,1.1,0.2c1.5,0.6,1.6,2.1,1.7,4.3l0,0.4c0.1,10.5-3.6,21-11,31.1c-7.4,10.2-16.8,19.4-25.7,28.2
			c-2.2,2.2-4.4,4.4-6.6,6.6L768.7,460.8z"/>
	</g>
	<g id="XMLID_14295_">
		<path id="XMLID_14819_" class="st9" d="M405.1,794.5c6.5,0.4,13-0.3,19.5-0.8c5.9-0.4,5.9-0.3,5.6-5.8c-0.1-2.3-0.9-2.7-3.2-2
			c-11,3.3-22.2,2.8-33.5,2.1c-1.3-0.1-3.7-1.9-3.8,1.2c0,2.3-0.9,5.2,3.3,5.2C397,794.5,401.1,794.5,405.1,794.5z"/>
		<path id="XMLID_14818_" class="st9" d="M391.8,784.9c9.1,0.8,18.2,1,27.2-0.3c11.2-1.6,11.2-1.6,11.2-12.1c0-1.1-0.1-2.2,0-3.2
			c0.2-2.4-0.7-3-3.3-2.4c-11.5,2.5-23.1,3.6-34.8,2.5c-1.8-0.2-3.7-0.5-3.3,2.2c0.2,1.9-0.9,4.7,3,4.6c6.5-0.1,13,0,19.5-0.7
			c4.4-0.5,8.8-0.5,13.2-0.7c0,0.3,0.1,0.7,0.1,1c-0.3,0.2-0.5,0.6-0.9,0.7c-10.3,2.2-20.7,3.4-31.4,2.4c-1.3-0.1-3.3-1.3-3,1.2
			C389.5,781.7,387.8,784.6,391.8,784.9z"/>
		<path id="XMLID_14817_" class="st9" d="M420.2,813.8c10.5-1.6,10.5-1.6,10.2-11.4c0-1.3-0.2-2.7-0.1-4c0.1-2.1-0.9-2.4-3-1.9
			c-10.7,2.7-21.6,3.2-32.6,2.1c-1.4-0.1-4.1-1.7-4.3,1.4c-0.2,2.6-0.2,5,3.9,5.3c4.5,0.4,8.9,0.3,13.4,0.4c1.7,0.1,3.4-0.4,5.3,0.7
			c-0.9,1.8-2.5,1.7-3.8,1.9c-5,0.9-10,0.7-15.1,0c-1-0.1-2.5-0.8-2.7,1c-0.1,1.2-0.2,2.6,1.7,2.8
			C402.1,812.8,411,815.2,420.2,813.8z"/>
		<path id="XMLID_14771_" class="st0" d="M499.7,234.5c1.5-12.9,2-25.9-0.7-38.7c-2-9.5-4.2-19.2-11.8-26.1
			c-8.9-8.1-18.8-15.2-30.9-19.1c-31.4-10.2-63.6-16.9-96.4-21.7c-19.9-2.9-40-3.2-60.1-3.8c-34.3-1.1-68.3,0.4-101.8,7.9
			c-10.1,2.3-19.8,5.2-29.2,9.4c-7.1,3.1-15,5-22,8.4c-27.7,13.6-45.1,34.1-49.4,63.5c-1.5,10,0,19.9,1.2,29.8
			c1.8,15,2.9,30.1,3.9,45.2c1.4,21.8,3.3,43.6,4,65.5c1.1,32.6-2.3,65.1-3.4,97.6c-0.9,28.6-4.5,57.1-3,85.8
			c0.7,13.4,1.1,26.7,2.8,40c2.9,23.1,13.3,42.2,33.3,56.6c9.7,6.9,19.7,13.3,29.9,19.4c22.8,13.7,40.1,31.3,44.9,57.4
			c1.2,6.7,0.8,13.5,1.3,20.2c0.3,3.9,2.5,6.6,6.7,7.5c4.8,1.1,7.7-0.1,10.1-4.2c1.4-2.4,2.3-4.9,2.4-7.7c0.2-8.1-0.2-16.2-1.3-24.3
			c-2.8-19.6,9.1-35.7,30-39.6c5.7-1.1,11.6-1.5,16.8,1.7c9.5,5.8,15.9,13.5,17.9,24.2c1.2,6.6,0.3,13.2,1,19.8
			c1.5,14.3,2.6,28.5,2.2,42.9c0,1.1-0.8,2.7,1.5,2.4c1.4-0.2,3.1-0.1,2.8-2.2c-0.1-0.5-0.1-1.1-0.1-1.6c0.2-20.6,1.8-41,7.1-61
			c2.1-7.9,7.4-14.2,14.9-18.2c8.2-4.3,13.1-2.6,17.5,4.3c1.6,2.5,2.3,5.2,2.5,8.1c0.9,11.9,1.2,23.9-1,36.1
			c6.2-0.7,12.2-1.2,18.6-0.6c-1.1-2.3-1.9-4.3-2.3-6.4c-1.5-10.9-1-21.8-0.4-32.8c0.3-4.1,2.7-7.4,5.3-10.5
			c5.3-6.1,12.7-7,19.7-2.6c6.7,4.3,8.9,10.6,9.5,17.8c1.4,15.3-0.9,30.8,1.6,46.1c0.4,2.2-0.2,4.8,2.7,5.9c3.1,1.2,5.7,0.1,8.1-1.5
			c5.2-3.6,7.9-8.7,8.3-14.6c1-14.3,2.6-28.5,2.6-42.9c-0.1-13.1,4.9-23.9,15.6-32.4c9.3-7.4,18.5-14.7,27.7-22.1
			c13.9-11.2,24.2-25,32.1-40.4c4.1-7.9,6.5-16.2,6.1-25c-0.3-7.8-1.4-15.6-1.5-23.4c-0.7-58.2,0.9-116.4-1.7-174.7
			c-1.4-33,0.6-65.9,2.7-98.8C499.1,252.3,498.7,243.4,499.7,234.5z M483,549.3c-2.7,4.4-7.7,5.6-12.3,7.3
			C475,554.4,478.5,551,483,549.3z M473.5,549.8c2-2.1,4-4.1,7.6-5.3C479.6,548.3,476.8,549.4,473.5,549.8z M482.1,189.9
			c0.3,0.2,0.5,1,0.4,1.4c-1.4,3-2.6,6.1-5.9,7.8c-0.1-3.4,1.9-5.8,3.4-8.5C480.3,189.9,481.2,189.3,482.1,189.9z M477.2,175.1
			c2.9,6-4,20.6-10.1,22.4c2.1-3.8,4.2-7.3,6.2-10.8C475.3,183.3,476.1,179.5,477.2,175.1z M468.8,179c1.1,2.7,0.7,4.4-1.8,8.3
			C465.9,183.5,466.4,181.7,468.8,179z M270.2,157.3c2.7-1.5,5.6-2.6,9-3.1c-2.2,1.2-4.5,2.3-6.6,3.5c-1.2,0.7-2.6,1.6-2.4,3.1
			c0.2,1.4,1.7,1.8,3,2c13.5,2.6,26.7,2.8,39.3-3.4c1.6-0.8,3.7-1.6,3.2-3.8c-0.4-1.9-2.5-2-4.2-2.4c-1.9-0.5-3.9-1-5.8-1.5
			c-0.1,0-0.1-0.2-0.3-0.7c2.6-0.8,5-0.6,7.4,0.1c5.4,1.4,6.6,5.1,3,9.2c-3.9,4.2-9.3,5.9-14.9,6.9c-8.6,1.5-17.3,1.6-25.8-0.6
			c-1.7-0.4-3.3-1-4.8-1.9C266.7,162.6,266.5,159.4,270.2,157.3z M238.4,151.5c2.3,1.2,2.4,3.3,1.9,5.3c-1,4-4.1,6.7-7.3,9.3
			c-0.5,0.4-1.3,0.8-1.9,0.2c-0.8-0.7-0.4-1.5,0.2-2.1c1.7-2,3.7-3.8,5.2-5.9c1.8-2.6,1.3-4.5-2.3-5.3c-2.3-0.5-4.8-0.6-6.8-2.7
			C231.5,148.9,235.1,149.8,238.4,151.5z M124.9,186.6c6.3-8.5,14.9-14.7,24.2-20c15.9-9,33.1-15.4,51.6-18
			c6.4-0.9,12.8-0.3,19.3-0.2c-3.2,2-6.7,1.3-10.1,1.9c-24,4.7-46.6,12.6-67.4,24.9c-5.9,3.5-10.9,7.9-15.2,13.1
			c-0.8,0.9-1.6,2.6-3,1.8C122.7,189.1,124.1,187.7,124.9,186.6z M118.4,204c0.4-0.7,1.3-0.6,1.9-0.3c6.1,2.9,9.9,0.2,13.6-4.2
			c3.6-4.3,7.8-8.3,12.4-11.9c9.7-7.4,20.3-12.3,33.2-12.2c11.9,0.1,23.5-2.3,35.9-3.3c-8.9,5.9-18.7,7.3-28.3,6.9
			c-22.1-1.1-37.7,9.1-51.2,23.7c-3.2,3.4-6.4,6.3-11.7,5.5c-2.1-0.3-3.9-0.9-5.3-2.4C118.5,205.3,117.9,204.7,118.4,204z
			 M122,537.5c4.5,0.5,3.4-4.6,5.9-6.4c0.6,4.5-1.5,8.2-4.8,8.6c-3.9,0.4-6.7-3-7.7-10.7C117.6,532.7,117.8,537,122,537.5z
			 M133.3,556c3.2,3.4,5.1,7.5,7.2,11.5c6.2,12.2,11.4,24.9,21.4,35c0.4,0.4,1,1,0.4,2.1c-2.2-0.8-3.5-2.6-4.9-4.1
			c-7.4-8.2-11.7-18-16.3-27.5c-3.4-7-6.3-14.3-13.4-20C130.9,553,132.1,554.6,133.3,556z M117,565.4c8,24.8,22.2,45.4,46.9,59.3
			C146.1,623.7,117.3,587.1,117,565.4z M179.1,647.7c10,4.2,16.8,11.5,22,20.4C193.6,661.5,187.3,653.7,179.1,647.7z M220.8,665.7
			c-0.6,0.3-1.7,0.3-2.6-0.8c4.4-0.7,6.9-3.6,9.5-6.4c4.9-5.4,18.1-8.4,25.3-5.3C240.8,654.2,230.8,659.9,220.8,665.7z M311.6,662
			c-6.1,2.8-15.3,1.6-20.3-2.7c-0.4-0.3-0.8-0.9-0.8-1.3c0.1-0.9,1-0.9,1.7-0.7c2.2,0.6,4.5,1.1,6.6,1.9c4,1.5,7.9,1.6,11.6-0.7
			c2.8-1.8,6.1-2.3,9.9-3.1C317.5,658.2,315,660.5,311.6,662z M368,657.7c-4,2.1-8.4,1.8-12.7,2c-2.2,0-4.3,0-6.5,0
			c-1.1,0-2.8,0-2.9-1.2c-0.2-1.5,1.6-1.3,2.6-1.4c3.2-0.3,6.3-0.5,9.5-0.5c3.1-0.1,6-0.7,8.9-1.6c1-0.3,2.5-1,3,0.4
			C370.4,656.5,369,657.2,368,657.7z M428.6,530.2c-11.1,0.6-22.2,1.4-33.3,0.8c-15.6-0.9-31.2,0.2-46.9-0.5
			c-40.2-1.9-80.4-1.1-120.7-1.1c-16.5,0-33-0.4-49-4.9c-9.1-2.6-18.2-5.4-27.1-8.6c-16-5.8-25.1-19-25.5-36.2
			c-0.4-20.6,0.5-41.1,2.2-61.5c2.1-24.3,1.5-48.6,1-72.9c-0.7-32.3-2.7-64.5-1.4-96.8c0.2-3.9,0.8-7.8,1.2-11.7
			c1.2-9.6,7.4-15.1,17-17.8c8.4-2.4,17-3.3,25.7-3.3c24.3-0.1,48.6,0,73,0c0,0.3,0,0.5,0,0.8c25.5,0,50.9,0.1,76.4-0.1
			c7.6-0.1,15.3-1.2,22.9-1.6c29.5-1.4,59-1.5,88.5,0.1c9.5,0.5,19,1.9,28.1,4.6c9.9,2.9,17.1,9,18.3,21.4
			c1.9,19.9-0.3,39.7-1.2,59.5c-1.3,29.4-1.4,58.9-2.7,88.3c-1.2,26.9,1.6,53.7,0.3,80.6c-0.7,13.9-2.7,27.6-11.3,39.4
			C455.9,520.5,444.7,529.4,428.6,530.2z M451.6,599.5c4.2-2.6,8.3-3.2,12.1-4.7C462.7,597.4,457.2,599.7,451.6,599.5z M455.6,591.1
			c4.8-1.4,9.7-2.3,14.5-3.8C465.7,590.8,461.2,592,455.6,591.1z M462,581.5c0.5-0.3,0.9-0.7,1.4-0.8c4-0.8,7.6-2.8,11.7-3.6
			C471.5,580.2,466.8,580.8,462,581.5z M456.7,576.8c-0.2-0.4-0.3-0.7-0.5-1.1c7.8-3,15.7-6,23.5-8.9c0.2,0.4,0.3,0.7,0.5,1.1
			C473.1,572.4,465.1,575,456.7,576.8z M445.7,573.6c13.4-5.8,27.1-11,40.1-17.8C474.8,566.5,460.4,570.4,445.7,573.6z"/>
		<linearGradient id="XMLID_21_" gradientUnits="userSpaceOnUse" x1="298.9114" y1="397.6994" x2="298.9114" y2="712.9966">
			<stop  offset="0" style="stop-color:#FFFFFF;stop-opacity:0"/>
			<stop  offset="1" style="stop-color:#B82525"/>
		</linearGradient>
		<path id="XMLID_14743_" class="st10" d="M343.5,720.1c6.2-0.7,12.2-1.2,18.6-0.6c-1.1-2.3-1.9-4.3-2.3-6.4
			c-1.5-10.9-1-21.8-0.4-32.8c0.3-4.1,2.7-7.4,5.3-10.5c5.3-6.1,12.7-7,19.7-2.6c6.7,4.3,8.9,10.6,9.5,17.8
			c1.4,15.3-0.9,30.8,1.6,46.1c0.4,2.2-0.2,4.8,2.7,5.9c3,1.2,5.7,0.1,8.1-1.5c5.2-3.6,7.9-8.7,8.3-14.6c1-14.3,2.7-28.5,2.6-42.9
			c-0.1-13.1,4.9-23.9,15.6-32.4c9.3-7.4,18.5-14.7,27.7-22.1c13.9-11.2,24.2-25,32.1-40.4c4.1-7.9,6.5-16.2,6.1-25
			c-0.3-7.8-1.4-15.6-1.5-23.4c-0.7-58.2,0.9-116.4-1.7-174.7c-1.4-33,0.6-65.9,2.7-98.8c0.6-8.9,0.2-17.8,1.2-26.7
			c1.5-12.9,2-25.9-0.7-38.7c-2-9.5-4.2-19.2-11.8-26.1c-8.9-8.1-18.8-15.2-30.9-19.1c-31.4-10.2-63.6-16.9-96.4-21.7
			c-19.9-2.9-40-3.2-60.1-3.8c-34.3-1.1-68.3,0.4-101.8,7.9c-10.1,2.3-19.8,5.2-29.2,9.4c-7.1,3.1-15,5-22,8.4
			c-27.7,13.6-45.1,34.1-49.4,63.5c-1.5,10,0,19.9,1.2,29.8c1.8,15,2.9,30.1,3.9,45.2c1.4,21.8,3.3,43.6,4,65.5
			c1.1,32.6-2.3,65.1-3.4,97.6c-0.9,28.6-4.5,57.1-3,85.8c0.7,13.4,1.1,26.7,2.8,40c2.9,23.1,13.3,42.2,33.3,56.6
			c9.7,6.9,19.7,13.3,29.9,19.4c22.8,13.7,40.1,31.3,44.9,57.4c1.2,6.7,0.8,13.5,1.3,20.2c0.3,3.9,2.5,6.6,6.7,7.5
			c4.8,1.1,7.7-0.1,10.1-4.2c1.4-2.4,2.3-4.9,2.4-7.7c0.2-8.1-0.2-16.2-1.3-24.3c-2.8-19.6,9.1-35.7,30-39.6
			c5.7-1.1,11.6-1.5,16.8,1.7c9.5,5.8,16,13.5,17.9,24.2c1.2,6.6,0.3,13.2,1,19.8c1.5,14.3,2.6,28.5,2.2,42.9c0,1.1-0.8,2.7,1.5,2.4
			c1.4-0.2,3.1-0.1,2.8-2.2c-0.1-0.5-0.1-1.1-0.1-1.6c0.2-20.6,1.8-41,7.1-61c2.1-7.9,7.4-14.2,14.9-18.2c8.2-4.3,13.1-2.6,17.5,4.3
			c1.6,2.5,2.3,5.2,2.5,8.1C345.4,695.9,345.7,707.8,343.5,720.1z M368,657.7c-4,2.1-8.4,1.8-12.7,2c-2.2,0-4.3,0-6.5,0
			c-1.1,0-2.8,0-2.9-1.2c-0.2-1.5,1.6-1.3,2.6-1.4c3.2-0.3,6.3-0.5,9.5-0.5c3.1-0.1,6-0.7,8.9-1.6c1-0.3,2.5-1,3,0.4
			C370.4,656.5,369,657.2,368,657.7z M451.6,599.5c4.2-2.6,8.3-3.2,12.1-4.7C462.7,597.4,457.2,599.7,451.6,599.5z M455.6,591.1
			c4.8-1.4,9.7-2.3,14.5-3.8C465.7,590.8,461.2,592,455.6,591.1z M462,581.5c0.5-0.3,0.9-0.7,1.4-0.8c4-0.8,7.6-2.8,11.7-3.6
			C471.5,580.2,466.8,580.8,462,581.5z M456.7,576.8c-0.2-0.4-0.3-0.7-0.5-1.1c7.8-3,15.7-6,23.5-8.9c0.2,0.4,0.3,0.7,0.5,1.1
			C473.1,572.4,465.1,575,456.7,576.8z M445.7,573.6c13.4-5.8,27.1-11,40.1-17.8C474.8,566.5,460.5,570.4,445.7,573.6z M470.8,556.6
			c4.3-2.2,7.7-5.6,12.3-7.3C480.3,553.7,475.3,554.9,470.8,556.6z M473.5,549.8c2-2.1,4-4.1,7.6-5.3
			C479.6,548.3,476.8,549.4,473.5,549.8z M482.1,189.9c0.3,0.2,0.5,1,0.4,1.4c-1.4,3-2.6,6.1-5.9,7.8c-0.1-3.4,1.9-5.8,3.4-8.5
			C480.3,189.9,481.2,189.3,482.1,189.9z M477.2,175.1c2.9,6-4,20.6-10.1,22.4c2.1-3.8,4.2-7.3,6.2-10.8
			C475.3,183.3,476.1,179.5,477.2,175.1z M468.8,179c1.1,2.7,0.7,4.4-1.8,8.3C465.9,183.5,466.4,181.7,468.8,179z M270.2,157.3
			c2.7-1.5,5.6-2.6,9-3.1c-2.2,1.2-4.5,2.3-6.6,3.5c-1.2,0.7-2.6,1.6-2.4,3.1c0.2,1.4,1.7,1.8,3,2c13.5,2.6,26.7,2.8,39.3-3.4
			c1.6-0.8,3.7-1.6,3.2-3.8c-0.4-1.9-2.5-2-4.2-2.4c-1.9-0.5-3.9-1-5.8-1.5c-0.1,0-0.1-0.2-0.3-0.7c2.6-0.8,5-0.6,7.4,0.1
			c5.4,1.4,6.6,5.1,3,9.2c-3.9,4.2-9.3,5.9-14.9,6.9c-8.6,1.5-17.3,1.6-25.8-0.6c-1.7-0.4-3.3-1-4.8-1.9
			C266.7,162.6,266.5,159.4,270.2,157.3z M238.4,151.5c2.3,1.2,2.4,3.3,1.9,5.3c-1,4-4.1,6.7-7.3,9.3c-0.5,0.4-1.3,0.8-1.9,0.2
			c-0.8-0.7-0.4-1.5,0.2-2.1c1.7-2,3.7-3.8,5.2-5.9c1.8-2.6,1.3-4.5-2.3-5.3c-2.3-0.5-4.8-0.6-6.8-2.7
			C231.5,148.9,235.1,149.8,238.4,151.5z M124.9,186.6c6.3-8.5,14.9-14.7,24.2-20c15.9-9,33.1-15.4,51.6-18
			c6.4-0.9,12.8-0.3,19.3-0.2c-3.2,2-6.7,1.3-10.1,1.9c-24,4.7-46.6,12.6-67.4,24.9c-5.9,3.5-10.9,7.9-15.2,13.1
			c-0.8,0.9-1.6,2.6-3,1.8C122.7,189.1,124.1,187.7,124.9,186.6z M118.4,204c0.4-0.7,1.3-0.6,1.9-0.3c6.1,2.9,9.9,0.2,13.6-4.2
			c3.6-4.3,7.8-8.3,12.4-11.9c9.7-7.4,20.3-12.3,33.2-12.2c11.9,0.1,23.5-2.3,35.9-3.3c-8.9,5.9-18.7,7.3-28.3,6.9
			c-22.1-1.1-37.7,9.1-51.2,23.7c-3.2,3.4-6.4,6.3-11.7,5.5c-2.1-0.3-3.9-0.9-5.3-2.4C118.5,205.3,117.9,204.7,118.4,204z
			 M122,537.5c4.5,0.5,3.4-4.6,5.9-6.4c0.6,4.5-1.5,8.2-4.8,8.6c-3.9,0.4-6.7-3-7.7-10.7C117.6,532.7,117.8,537,122,537.5z
			 M133.3,556c3.2,3.4,5.1,7.5,7.2,11.5c6.2,12.2,11.4,24.9,21.4,35c0.4,0.4,1,1,0.4,2.1c-2.2-0.8-3.5-2.6-4.9-4.1
			c-7.4-8.2-11.7-18-16.3-27.5c-3.4-7-6.3-14.3-13.4-20C130.9,553,132.1,554.6,133.3,556z M117,565.4c8,24.8,22.2,45.4,46.9,59.3
			C146.1,623.7,117.3,587.1,117,565.4z M179.1,647.7c10,4.2,16.8,11.5,22,20.4C193.6,661.5,187.3,653.7,179.1,647.7z M220.8,665.7
			c-0.6,0.3-1.7,0.3-2.6-0.8c4.4-0.7,6.9-3.6,9.5-6.4c4.9-5.4,18.1-8.4,25.3-5.3C240.8,654.2,230.8,659.9,220.8,665.7z M311.6,662
			c-6.1,2.8-15.3,1.6-20.3-2.7c-0.4-0.3-0.8-0.9-0.8-1.3c0.1-0.9,1-0.9,1.7-0.7c2.2,0.6,4.5,1.1,6.6,1.9c4,1.5,7.9,1.6,11.6-0.7
			c2.8-1.8,6.1-2.3,9.9-3.1C317.5,658.2,315,660.5,311.6,662z M227.8,529.3c-16.5,0-33-0.4-49-4.9c-9.1-2.6-18.2-5.4-27.1-8.6
			c-16-5.8-25.1-19-25.5-36.2c-0.4-20.6,0.5-41.1,2.2-61.5c2.1-24.3,1.5-48.6,1-72.9c-0.7-32.3-2.7-64.5-1.4-96.8
			c0.2-3.9,0.8-7.8,1.2-11.7c1.2-9.6,7.4-15.1,17-17.8c8.4-2.4,17-3.3,25.7-3.3c24.3-0.1,48.6,0,73,0c0,0.3,0,0.5,0,0.8
			c25.5,0,50.9,0.1,76.4-0.1c7.6-0.1,15.3-1.2,22.9-1.6c29.5-1.4,59-1.5,88.5,0.1c9.5,0.5,19,1.9,28.1,4.6c9.9,2.9,17.1,9,18.3,21.4
			c1.9,19.9-0.3,39.7-1.2,59.5c-1.3,29.4-1.4,58.9-2.7,88.3c-1.2,26.9,1.6,53.7,0.3,80.6c-0.7,13.9-2.7,27.6-11.3,39.4
			c-8.6,11.9-19.8,20.8-35.8,21.6c-11.1,0.6-22.2,1.4-33.3,0.8c-15.6-0.9-31.2,0.2-46.9-0.5C308.3,528.5,268.1,529.4,227.8,529.3z"
			/>
		<path id="XMLID_14742_" class="st9" d="M351.9,729.6C351.9,729.6,351.9,729.6,351.9,729.6c1.6,0,3.2,0.1,4.8-0.1
			c1.7-0.2,4.4,1.2,4.1-2.3c-0.2-2.6-0.7-4.4-4.3-3.9c-3.4,0.5-6.9,0.6-10.4,0.7c-2,0.1-2.8,0.8-2.6,2.8c0.2,2,0.9,3,3.2,2.8
			C348.4,729.5,350.1,729.6,351.9,729.6z"/>
		<path id="XMLID_14741_" class="st9" d="M431.3,817.8c-0.1-2.3-1.1-2.3-3-1.5c-8.4,3.6-17.1,3.2-25.9,1.8
			c-10.7-1.7-10.6-1.8-10,8.4c0.2,3.4,1.9,4.9,5.4,5c4.5,0.1,9,0,13.4,0c0-0.1,0-0.2,0-0.2c2.2,0,4.3,0,6.5,0c2.3,0,4.6,0.2,6.9,0.2
			c5.5,0.1,8.3-2.8,7.5-7.7C431.8,821.8,431.4,819.8,431.3,817.8z"/>
		<path id="XMLID_14725_" class="st9" d="M430.8,526.8c1.9-0.2,3.8-0.4,5.5-1.1c10.4-4.4,19.1-10.7,25.1-19.8
			c8.4-12.7,9.9-26.9,10.5-41.3c0.8-18.6-0.9-37.3-0.8-55.9c0.3-45.6,0.8-91.3,4.6-136.8c0.9-10.3-0.4-20.5,0.4-30.7
			c0.6-7-2.2-12.4-8.7-15.9c-4.6-2.5-9.6-3.8-14.7-4.8c-12.8-2.3-25.8-3.2-38.9-3.1c-26.3,0.3-52.5-0.4-78.8,1.5
			c-28.8,2.1-57.9,0.7-86.8,0.3c-23.4,0-46.9-0.3-70.3,0.1c-12.4,0.2-25.1-0.8-36.8,5.8c-4.8,2.7-6.5,5.8-7.4,9.9
			c-1.5,7.3-1.7,14.8-1.8,22.2c-0.3,16.8,0.3,33.5,0.9,50.2c1.5,41.9,1.5,83.7-1.5,125.5c-1.1,15.5-2.1,31-1.2,46.6
			c0.7,12.7,5.2,24,18,30.5c10.8,5.5,22.5,9.3,34.5,11.8c13.6,2.8,27.5,3.5,41.4,3.3c51.8-0.7,103.6,0.2,155.4,2.2
			C396.5,528.1,413.6,528.5,430.8,526.8z"/>
		<path id="XMLID_517_" class="st0" d="M298.1,342.2c0,0,20.9-47.1,62.9-36c42,11.2,33.1,84.4-59.3,129c0,0-107-46.4-88.3-109
			C224.1,290.2,276.5,298.7,298.1,342.2z"/>
		<path id="XMLID_14724_" class="st9" d="M207.3,820.6c-2.1-0.3-2,0.5-1.9,2c0.5,6,3.7,8.9,11.3,9.1c8.1,0.2,16.2-0.1,24.2-0.3
			c0.8,0,1.8-0.2,2.4-0.7c3.9-3.6,7.9-7.2,8.6-13.3c-1.2,0.2-1.8,0.4-2.5,0.5C235.5,820.9,221.5,822.3,207.3,820.6z"/>
		<path id="XMLID_14723_" class="st9" d="M242.4,777.1c-11.4,2.9-22.9,4.2-34.8,3.4c-1.3-0.1-3.5-0.9-3.8,0.7
			c-0.4,2.5-0.5,5.2,0.3,7.6c0.7,1.9,3.3,0.7,5.1,0.8c13.1,0.5,25.8-2.4,38.8-3.2c2.3-0.1,1.8-1.2,1.8-2.3c0-4.7-0.1-9.4,0-14.2
			c0.1-2.3-0.9-2.6-3.1-2.4c-14,1.6-28.1,4.1-42.2,1.1c-1.6-0.3-2,0.5-1.9,1.8c0.1,1.2,0.3,2.4,0.2,3.6c-0.3,3.1,1.1,3.9,4.3,3.7
			c7.5-0.5,15-0.9,22.5-1.9c4.8-0.6,9.6-1,14.8-0.5C243.8,776.8,243.1,776.9,242.4,777.1z"/>
		<path id="XMLID_14768_" class="st9" d="M341.4,688.9c-0.1-3.4-0.1-6.8-1.3-10c-2-5.3-6-7.1-11.6-5.1c-4.3,1.5-7.4,4.6-10.1,8
			c-5.1,6.6-6.4,14.3-7.8,22c-2.7,15.2-3.5,30.6-4.6,45.9c-0.1,1.1-1.6,2.9,0.9,3.2c2.4,0.3,2-1.7,2.1-3.2
			c0.3-7.6,0.5-15.1,0.8-22.7c0.2-5.2,2-7.6,7.3-8.6c8.1-1.6,16.2-3.1,24.8,0.5C340.5,708.6,341.8,698.7,341.4,688.9z"/>
		<path id="XMLID_14721_" class="st9" d="M293.3,754.8c1.4,0,1.5-0.8,1.4-1.9c-0.3-2.7-0.4-5.4-0.5-8c-0.2-6.4,0.2-12.8-1-19.3
			c-0.4,0.2-0.6,0.2-0.6,0.3c-1.9,9.2-0.8,18.4-1.1,27.6C291.5,754.5,292.3,754.8,293.3,754.8z"/>
		<path id="XMLID_14718_" class="st9" d="M306,758.5c-3.4,1.1-7.1,1.6-10.7,1.3c-3.1-0.3-3.9,0.8-3.9,3.6c0.1,11.9,0,23.7,0,35.6
			c0,4.7,1.3,6.2,6.5,6c2.6-0.1,5.2-1.1,7.7-0.8c3.3,0.4,3.4-1,3.3-3.4c-0.2-6.5-0.1-12.9-0.1-19.4c0,0,0.1,0,0.1,0
			c0-6.9-0.1-13.7,0-20.6C309,758.5,308.5,757.6,306,758.5z M297.4,789.2c0,0.3-0.4,0.6-0.8,1.2c-0.5-0.7-1-1.1-1.1-1.6
			c-0.9-7.9-0.6-15.9,0.1-23.8c0.1-0.8,0.4-1.8,1.5-1.6c0.7,0.1,1.1,0.9,1.1,1.6C297.9,773,297.7,781.1,297.4,789.2z"/>
		<path id="XMLID_14714_" class="st9" d="M246.5,789.4c-2.9,0.9-5.9,1.4-8.9,1.9c-10,1.8-20.1,2.6-30.2,1.8
			c-1.1-0.1-3.1-0.9-3.3,0.8c-0.3,2.1,2,1.5,3.2,1.6c2.7,0.3,5.5,0.3,8.2,0.4c3.3,0.2,6.6,0,9.8,1.3c-5.8,2.3-11.7,2.3-17.8,1.9
			c-1.2-0.1-2.8-1.2-3.4,0.4c-0.4,1.2-0.4,2.8,0.1,4c0.6,1.4,2.3,0.8,3.5,0.7c9.9-0.7,19.9-1.5,29.8-2.2c0.9-0.1,2.1-0.7,2.5,1.1
			c-10.4,3.9-21.2,4.7-32.2,3.9c-1.4-0.1-3.5-0.9-3.6,1.6c-0.1,2.3,1.8,2,3.3,2c4.4,0.2,8.9-1,13.9,0.3c-4.7,2.6-9.4,2.4-14,2.6
			c-1.2,0-2.8-0.5-2.9,1.5c-0.1,1.9,1.3,2.2,2.8,2.2c13.9-0.2,27.8-0.4,41.4-3.3c2.8-0.6,3.7-1.8,3.5-4.4c-0.5-5.9-2.2-11.7-2-17.7
			C250.4,788.9,249.2,788.5,246.5,789.4z"/>
		<path id="XMLID_14807_" class="st9" d="M524.7,511.2c-2.4-21-3.6-42-3.8-63.1c-0.3-30.1,0.8-60.3,0.7-90.4
			c-0.1-33.5,1.4-67,4.4-100.4c1.9-21.7,1.8-43.5,0.2-65.2c-1.2-15.8-8.6-29.3-21.6-39.9c-12.8-10.5-27.8-17.4-43.7-22.7
			c-11.9-3.9-24.4-5.8-36.5-8.9c-11.2-2.9-19.7-8.6-26.1-17.5c-3.2-4.5-6.5-9-10-13.2c-7-8.5-15-15.8-27.3-17
			c-8.2-0.8-16.4-1.6-24.7-1.7c-33.2-0.4-66.2,0.5-99.3,2.9c-9.4,0.7-17.2,2.1-23.6,9.4c-11.6,13.3-25.2,23.9-42.4,31.2
			c-21.4,9.1-41,21.7-60.7,33.8c-15,9.2-24,22.2-27.4,38.4c-3.6,17.2-3.3,34.7-3.4,52.1c0,11,1.3,22.1,2.1,33.1
			c1.3,18.3,2.5,36.7,4,55c2.1,24.2,4.6,48.4,4.6,72.8c0,21.4-0.6,42.7-1.6,64c-1.1,24.8-2,49.7-4,74.5c-2.3,28,1.3,55.3,11.6,81.7
			c5.5,14,12.3,27.3,23.4,38.5c7.3,7.3,12.9,15.9,18.5,24.5c6.5,10,10.8,20.9,16.3,31.3c1.2,2.2,2.4,3.3,5.2,3.2
			c7.5-0.3,15-0.4,22.6-0.6c2.8-0.1,5.5-0.2,8.2,0.6c2.2,0.7,3.8,1.8,4.2,4.1c1.4,7.3,3.1,14.6,4.5,21.9
			c2.1,10.9,2.1,10.9,14.1,11.2c2.8,0.1,5.6-0.2,8.3,1.4c-1.7,1.5-3.5,1.2-5.2,1.3c-3.9,0.2-7.8-0.2-11.7-0.8c-1-0.2-2.9-0.8-3,0.6
			c-0.2,2.5,0,5.2,0.9,7.6c0.6,1.7,3,0.9,4.6,0.9c13.2,0.1,26.3-1,39.4-2c2.8-0.2,3.7-0.9,3.8-3.5c0.3-9,0.8-18.1,1.4-27.1
			c0.3-4.8,1-9.7,1.6-14.5c0.2-1.8,1.4-3,3.3-3.3c1.7-0.3,3.5,0.2,4.1,1.6c1.1,2.9,3.4,2.4,5.6,2.5c9,0.4,18.4-2,27.3,3.1
			c-0.5-11.5-1.3-22.4-2.8-33.2c-0.6-4.2-2.4-8.1-5.1-11.5c-4.2-5.5-9.5-9.7-16.9-10.3c-15.6-1.3-30.4,9.3-33.8,23.6
			c-2,8.5,0.2,16.9,0.6,25.4c0.4,8.9,1,17.5-6,24.9c-1.7,1.8-3.2,2.9-5.6,3c-9.8,0.5-15.7-4.6-15.8-13.7c-0.1-7.4-0.6-14.7-2.2-22.1
			c-5.4-24.9-23.4-40.3-44.8-53.1c-6.3-3.8-13-7-19.3-10.9c-25.1-15.7-40.1-36.8-43.6-65.4c-2.8-22.7-1.8-45.3-2.3-68
			c-0.3-12.7,1.2-25.4,1.8-38c0.9-19.4,1.5-38.9,2.5-58.3c1.2-22.7,3-45.3,1.8-68c-1.1-19.8-2.3-39.6-3.7-59.4
			c-1.1-14.9-1.9-29.9-4.1-44.8c-1.7-11.7-2.2-23.3,0.5-35c6.5-28.6,26.3-47.1,52.5-60.6c11.1-5.7,23.1-10.1,35.3-13.3
			c28.4-7.5,57.3-12,86.8-11.7c18.4,0.2,36.7,1,55.1,1c7.1,0,14.2,0.6,21.2,1c25.2,1.7,49.7,7,74.1,12.8
			c18.8,4.4,37.9,8.2,54.2,18.7c9.1,5.9,18.4,11.9,23,22c3.9,8.5,6.2,17.4,7.1,26.6c1.5,13.7-0.7,27.2-1.5,40.8
			c-1.4,25.4-2.5,50.7-2.8,76.1c-0.3,24.3-0.8,48.5,0.7,72.8c2.2,34.7-0.6,69.4,0.3,104.2c0.4,17.5-0.9,35.1,0.8,52.7
			c1.2,12.4-0.7,24.5-6.6,35.9c-7.7,14.9-17.8,28-31,39.2c-10,8.5-21.1,15.6-30.4,24.8c-7.1,7-12.5,14.9-12.2,25.1
			c0.3,12.6-1.8,25.1-2,37.6c-0.1,10-2.7,18.9-10.2,26.2c-3,2.9-6.6,4.5-10.9,3.8c-4.1-0.6-5.6-3.6-6.2-7
			c-1.2-6.5-1.8-13.1-1.8-19.7c0.1-10.4,0-20.8-0.8-31.2c-0.4-4.4-1.2-8.6-4.5-12c-3.2-3.3-6.8-6-12.1-4.5
			c-4.7,1.3-10.3,7.3-10.4,11.5c-0.4,12.7-0.3,25.3,1,38.1c2.2-0.5,4.3-1,6.4-1.4c2.1-0.4,4.3-0.6,6.5-0.7c6.6-0.4,8.3,0.9,8.9,7
			c0.8,8.3,1.2,16.7,1.8,25.1c0.4,6.4,0.4,6.5,7.1,6.6c6.2,0.1,12.4,0,18.6,0c-6.7,3.1-13.6,3.4-20.7,2.6c-1.6-0.2-4.5-1.7-4.3,1.9
			c0.1,2.5-0.8,5.3,4,5.5c11.4,0.4,22.5-0.9,33.8-2c3.8-0.4,4.6-1.8,4.6-5.1c0-13.2-0.3-26.5,1.7-39.7c0.8-5,2.4-6.5,7.9-6.8
			c1.4-0.1,2.9-0.3,4.3-0.1c10.2,1.8,17.5-2.5,24.2-9.1c9.2-9.1,20.6-16.1,28.6-26.4c21.8-28,32.9-59,33.4-93.7
			C530.7,558,527.3,534.6,524.7,511.2z M84.3,221.1c0.4-10.1,0-20.3,2.6-30.3C85.5,200.8,85.1,211,84.3,221.1z M162.9,707.5
			c0.4-1,1.4-0.9,2.2-0.6c2.5,0.9,5.3,1.2,8.1,3.1c-3.8,1.9-6.6,1.3-9.3-0.4C163.2,709.1,162.6,708.4,162.9,707.5z M112,632.3
			c2.7,3.7,5.2,6.9,7.5,10.3c7.5,10.8,16.5,20.4,24.8,30.6c5.6,6.8,9,14.7,11.5,22.9c0.3,1.1,1,2.7-0.3,3.3c-1.6,0.7-2.2-1-2.5-2.1
			c-4-15.2-14.8-26.6-24.7-38.5c-5.6-6.7-10.7-13.7-15.3-21.1C112.2,636.3,110.9,634.8,112,632.3z M221,90.8
			c-1.3,2.1-2.6,4.2-4.1,6.2c-5.1,6.8-11.8,11.8-19.5,15.8c-14.6,7.6-29.8,13.7-45.4,19.3c-1,0.4-2.1,1-3.5,0.4
			c1.1-1.8,3-2.4,4.7-3.3c10.4-5.6,21.5-9.9,32.4-14.7c12.8-5.6,24.1-12.9,32.2-23.9c0.3-0.4,0.7-0.9,1.1-1.2c0.7-0.5,1.1-2,2.3-1.1
			C222.3,88.9,221.5,90,221,90.8z M241.7,90.6c6.3-4.5,13.8-5.9,21.4-7.2c4.7-0.8,9.5-1,12.9-1.3c6.3,0,11.4,0,16.2,1.9
			c1,0.4,2.6,0.5,2.4,1.9c-0.3,1.7-1.8,1.2-3.1,1.1c-11.7-0.8-23.4-0.3-34.9,1.9c-4.6,0.9-8.9,2.3-12.9,4.6c-1,0.6-2.2,2-3.3,0.5
			C239.3,92.6,240.6,91.5,241.7,90.6z M306.8,104c-14.3,0.8-28.5,2.3-42.9,2.1c-5.7-0.1-11.3-0.6-16.8-1.7c-1.8-0.4-3.6-1.1-5.2-1.8
			c-0.9-0.4-1.7-1.2-1.2-2.3c0.4-0.9,1.4-0.8,2.3-0.7c21.2,4.3,42.4,0.2,63.6,0.7c4.6,0.1,9.2,0.1,14.9,1.4
			C315.9,103.5,311.3,103.8,306.8,104z M350.8,98.5c-3.6,2.1-7.7,3.1-11.9,3.4c-0.8,0.1-1.9,0.2-2.2-0.8c-0.2-1,0.8-1.3,1.5-1.7
			c2.5-1,5.1-2,7.5-3.1c3.8-1.7,4.3-4.5,1.4-7.4c-2.2-2.2-5.1-3-8.2-3.1c-5.6-0.1-11.3,0-16.9,0c0,0.2,0,0.4,0,0.5
			c-5.8,0-11.6,0-17.3,0c-1.2,0-3,0.2-3.1-1.3c-0.1-1.4,1.7-1.1,2.7-1.3c12-2.1,24.1-2.6,36.3-1.7c7.7,0.5,12.5,5,13,10.9
			C353.7,95.3,353,97.3,350.8,98.5z M467,693.6c-5,5.1-10,10.2-17.8,12.2c5.3-4.7,10.5-9.3,15.8-14c0.6-0.6,1.5-1,2.3-0.3
			C468.2,692.3,467.5,693.1,467,693.6z M522.3,539.9c0.3,4.2,0.7,8.3-1.2,12.7c-2-4.2-1.8-8.4-2.1-12.5c-0.1-1.1,0.1-2.3,1.7-2.3
			C521.9,537.8,522.2,538.9,522.3,539.9z M512.9,176.4c7,11.8,9.9,24.7,10.3,38.1c0.8,24.7-0.4,49.4-2.6,74.1
			c-0.1,1.4-0.6,2.9-0.9,4.3c-2-7.2-1.6-14.5-1.2-21.7c1.1-19.8,1.6-39.7,1.5-59.5c-0.1-12.4-2.8-24.1-8.8-35.2
			c-0.8-1.4-1.4-2.9-1.8-4.6C511.2,173,511.9,174.8,512.9,176.4z M517,337.1c-1.9-6.7-1.6-13.4,0.2-20
			C518.3,323.8,518.7,330.4,517,337.1z M481,676.5c-1.9,1.9-4,3.5-6,5.3c-0.5,0.4-1.2,0.7-1.7,1.1c1.5-4.1,4.6-6.9,7.3-10
			c18.2-20.4,31.4-43.3,39.2-68.9c1.4-4.7,2.3-9.5,2.5-14.3c0-0.8,0-1.8,1.1-2c1.4-0.2,1.5,1,1.6,1.9c0.3,3.8,0.3,7.5-0.7,11.3
			C516.5,629.4,502.5,654.9,481,676.5z"/>
		<g id="XMLID_481_">
			<path id="XMLID_10629_" d="M537.7,546.3c-2.4-23.4-6.5-46.6-7.1-70.2c-1.2-43.5-2-87-0.9-130.5c0.6-23.6,2.6-47.2,3.9-70.8
				c1.1-19.8,3.8-39.6,2.1-59.5c-0.4-4.8-1.5-9.7-1.3-14.5c0.9-21.8-6.3-40.5-24.1-55c-17.8-14.4-38.6-23.2-61.5-27.6
				c-4.7-0.9-9.3-2-14.1-2.5c-15.7-1.9-26.8-10-34.8-22.4c-11.6-18.1-28.4-28.4-51.1-29.7c-33.6-1.9-67.1-0.9-100.6,2.3
				c-8.5,0.8-16.8,2.5-25.3,3.5c-3,0.3-5.6,1-8,2.6c-5.4,3.5-9.6,8.2-14.1,12.6c-6.4,6.1-12.6,12.6-21.1,16.1
				c-21.6,8.8-41.6,20.1-61.6,31.5c-10.6,6.1-21.5,11.9-29.5,21.1c-12.1,14-18.6,30-18.5,48.2c0.1,16.2-0.4,32.4,0.8,48.6
				c1.5,21.3,2.6,42.6,4.1,63.9c1.4,19.4,3.3,38.8,4.5,58.2c1.8,29.2,2,58.3,0.1,87.5c-1.7,26-2.9,52.1-4.7,78.1
				c-1.8,24.6-0.3,48.8,7.3,72.6c6.9,21.6,16.4,42,33.7,58.2c5.9,5.6,10.5,11.8,14.6,18.4c7.1,11.5,11.1,24.4,19.1,35.4
				c2,2.7,3.8,4,7.2,4.1c8.8,0.1,17.7,0.5,26.5,0.6c2.3,0,3.4,0.7,3.7,2.9c2.7,16.4,5.1,32.9,6.3,49.5c1,13.5,0.1,27,1.7,40.5
				c1.4,12.2,8.9,19.3,21.5,19.9c7.2,0.3,14.7,1,21.7-0.3c14.3-2.8,18.5-3.4,22.2-17.2c2.1-7.8,1.1-15.6,0.2-23.4
				c-2.7-22.7-1.2-45.3,0.2-68c0.1-2.1,1.1-2.7,3.3-2.7c5.6,0.2,11.3,0.4,16.9,0.3c3-0.1,3.6,0.9,3.3,3.5
				c-2.2,19.7-1.5,39.4-1.2,59.1c0.1,5.6,0,11.4,1.3,17c1.8,7.4,2.9,9.3,12.6,9.9c5.5,0.4,10-3.2,15.5-3.1c1.4,0,2.1-1.3,2.4-2.6
				c0.6-3,1.5-6.1,1.8-9.1c2.4-24.3,2.1-48.6,1.1-72.9c-0.1-2.7,0.3-3.9,3.5-4c4.5-0.1,9-0.5,13.4-1.1c2.4-0.3,2.7,0.6,2.7,2.4
				c0,2.4-0.8,5.3,1.5,6.9c0,0,0.1,0.1,0.1,0.1c11,0,20,0,31.2,0c-0.3-2.7-0.5-5.4-0.9-8.1c-0.4-3.4,2.4-2.3,3.9-2.8
				c2.5-0.8,2.4,0.9,2.5,2.5c0.8,21.9,2.3,43.7,4.3,65.5c1.1,11.4,2.4,22.8,4.1,34.2c1.2,8.1,5.5,12.8,11.9,13.1
				c9.7,0.4,19.6,1.3,29-0.1c11.7-1.7,15.9-6.5,15.6-15.4c-1.1-33.1-0.2-66.2-0.5-99.3c0-2.6,0.8-3.6,3.7-3.4c9.4,0.7,17.2-3,24-8.6
				c5.5-4.5,10.8-9.4,16.4-13.9c26.4-21,43-47.6,50.6-78.9C540.9,595.2,540.2,570.7,537.7,546.3z M229.6,775.9
				c-7.5,1-15,1.3-22.5,1.9c-3.2,0.2-4.6-0.6-4.3-3.7c0.1-1.2-0.1-2.4-0.2-3.6c-0.1-1.3,0.2-2.2,1.9-1.8c14.2,3,28.2,0.5,42.2-1.1
				c2.2-0.2,3.2,0,3.1,2.4c-0.1,4.7,0,9.4,0,14.2c0,1.1,0.5,2.2-1.8,2.3c-13,0.7-25.7,3.7-38.8,3.2c-1.8-0.1-4.4,1.1-5.1-0.8
				c-0.8-2.3-0.8-5.1-0.3-7.6c0.3-1.6,2.5-0.8,3.8-0.7c11.8,0.8,23.4-0.4,34.8-3.4c0.7-0.2,1.4-0.3,2.1-1.7
				C239.2,774.9,234.4,775.3,229.6,775.9z M243.3,830.7c-0.5,0.5-1.6,0.7-2.4,0.7c-8.1,0.1-16.2,0.4-24.2,0.3
				c-7.6-0.2-10.8-3-11.3-9.1c-0.1-1.4-0.2-2.2,1.9-2c14.2,1.7,28.2,0.2,42.1-2.8c0.7-0.1,1.3-0.3,2.5-0.5
				C251.2,823.5,247.2,827.1,243.3,830.7z M248.9,813.9c-13.7,2.9-27.5,3.1-41.4,3.3c-1.6,0-2.9-0.2-2.8-2.2c0.1-2,1.7-1.4,2.9-1.5
				c4.6-0.1,9.3,0,14-2.6c-5-1.4-9.5-0.2-13.9-0.3c-1.6-0.1-3.5,0.3-3.3-2c0.1-2.5,2.2-1.7,3.6-1.6c11,0.8,21.8,0,32.2-3.9
				c-0.4-1.8-1.6-1.1-2.5-1.1c-9.9,0.7-19.9,1.5-29.8,2.2c-1.2,0.1-2.9,0.7-3.5-0.7c-0.5-1.2-0.5-2.8-0.1-4c0.6-1.6,2.2-0.5,3.4-0.4
				c6,0.3,12,0.4,17.8-1.9c-3.2-1.2-6.5-1.1-9.8-1.3c-2.7-0.1-5.5-0.2-8.2-0.4c-1.2-0.1-3.5,0.5-3.2-1.6c0.2-1.7,2.1-0.9,3.3-0.8
				c10.2,0.8,20.2-0.1,30.2-1.8c3-0.5,6-1,8.9-1.9c2.7-0.9,4-0.4,3.9,2.4c-0.2,6,1.6,11.8,2,17.7
				C252.6,812.1,251.7,813.3,248.9,813.9z M308.9,781.2C308.9,781.2,308.9,781.2,308.9,781.2c-0.1,6.5-0.2,12.9,0,19.4
				c0.1,2.4,0,3.7-3.3,3.4c-2.5-0.3-5.1,0.7-7.7,0.8c-5.2,0.2-6.5-1.2-6.5-6c0.1-11.9,0.2-23.7,0-35.6c0-2.8,0.8-3.9,3.9-3.6
				c3.6,0.3,7.2-0.2,10.7-1.3c2.5-0.8,3,0,3,2.2C308.9,767.5,308.9,774.4,308.9,781.2z M292.6,725.8c0-0.1,0.2-0.1,0.6-0.3
				c1.2,6.4,0.8,12.9,1,19.3c0.1,2.7,0.2,5.4,0.5,8c0.1,1.1,0,1.9-1.4,1.9c-1,0-1.7-0.3-1.7-1.3C291.8,744.2,290.7,735,292.6,725.8z
				 M317.1,718.5c-5.3,1.1-7.1,3.4-7.3,8.6c-0.3,7.6-0.5,15.1-0.8,22.7c-0.1,1.4,0.4,3.4-2.1,3.2c-2.5-0.3-1-2.1-0.9-3.2
				c1-15.3,1.9-30.7,4.6-45.9c1.4-7.7,2.7-15.5,7.8-22c2.6-3.4,5.7-6.5,10.1-8c5.6-2,9.6-0.2,11.6,5.1c1.2,3.2,1.2,6.6,1.3,10
				c0.4,9.8-0.8,19.7,0.5,30.2C333.3,715.4,325.2,716.9,317.1,718.5z M356.7,729.5c-1.6,0.2-3.2,0-4.8,0c0,0,0,0,0,0
				c-1.7,0-3.5-0.1-5.2,0c-2.3,0.2-3-0.8-3.2-2.8c-0.2-2,0.7-2.7,2.6-2.8c3.5-0.2,6.9-0.3,10.4-0.7c3.5-0.5,4,1.3,4.3,3.9
				C361.1,730.7,358.3,729.3,356.7,729.5z M343.5,720.1c2.2-12.2,1.9-24.2,1-36.1c-0.2-2.9-1-5.6-2.5-8.1c-4.3-6.9-9.2-8.6-17.5-4.3
				c-7.5,3.9-12.8,10.3-14.9,18.2c-5.3,20-6.9,40.5-7.1,61c0,0.5,0,1.1,0.1,1.6c0.3,2.1-1.5,2-2.8,2.2c-2.3,0.3-1.6-1.3-1.5-2.4
				c0.4-14.3-0.8-28.6-2.2-42.9c-0.7-6.6,0.2-13.2-1-19.8c-2-10.7-8.4-18.5-17.9-24.2c-5.3-3.2-11.1-2.8-16.8-1.7
				c-20.9,3.9-32.8,20-30,39.6c1.1,8,1.5,16.1,1.3,24.3c-0.1,2.8-0.9,5.3-2.4,7.7c-2.5,4.1-5.4,5.3-10.1,4.2
				c-4.2-0.9-6.3-3.6-6.7-7.5c-0.6-6.7-0.1-13.5-1.3-20.2c-4.8-26.1-22.1-43.7-44.9-57.4c-10.2-6.2-20.2-12.5-29.9-19.4
				c-20-14.3-30.4-33.4-33.3-56.6c-1.7-13.3-2.1-26.6-2.8-40c-1.4-28.7,2.1-57.2,3-85.8c1.1-32.5,4.5-65,3.4-97.6
				c-0.8-21.9-2.7-43.7-4-65.5c-1-15.1-2.1-30.2-3.9-45.2c-1.2-9.9-2.6-19.8-1.2-29.8c4.3-29.4,21.8-49.9,49.4-63.5
				c7.1-3.5,14.9-5.3,22-8.4c9.5-4.2,19.2-7.1,29.2-9.4c33.5-7.5,67.5-9,101.7-7.9c20.1,0.6,40.2,0.9,60.1,3.8
				c32.8,4.8,65,11.6,96.4,21.7c12.1,3.9,22,11,30.9,19.1c7.6,6.9,9.8,16.7,11.8,26.1c2.7,12.9,2.2,25.8,0.7,38.7
				c-1,8.9-0.6,17.8-1.2,26.7c-2.1,32.9-4.2,65.9-2.7,98.8c2.5,58.2,0.9,116.4,1.7,174.7c0.1,7.8,1.2,15.6,1.5,23.4
				c0.4,8.8-2.1,17.1-6.1,25c-7.9,15.4-18.2,29.1-32.1,40.4c-9.2,7.4-18.4,14.8-27.7,22.1c-10.7,8.5-15.7,19.3-15.6,32.4
				c0.1,14.3-1.6,28.6-2.6,42.9c-0.4,5.9-3.1,10.9-8.3,14.6c-2.4,1.7-5,2.7-8.1,1.5c-2.9-1.1-2.4-3.7-2.7-5.9
				c-2.5-15.3-0.2-30.8-1.6-46.1c-0.7-7.2-2.8-13.5-9.5-17.8c-7-4.4-14.4-3.6-19.7,2.6c-2.6,3.1-5,6.4-5.3,10.5
				c-0.7,10.9-1.2,21.8,0.4,32.8c0.3,2.1,1.2,4.1,2.3,6.4C355.7,718.9,349.7,719.3,343.5,720.1z M389.3,780c-0.3-2.4,1.8-1.3,3-1.2
				c10.6,1.1,21-0.2,31.4-2.4c0.3-0.1,0.6-0.5,0.9-0.7c0-0.3-0.1-0.7-0.1-1c-4.4,0.2-8.9,0.2-13.2,0.7c-6.5,0.7-13,0.5-19.5,0.7
				c-3.9,0.1-2.7-2.6-3-4.6c-0.3-2.6,1.6-2.4,3.3-2.2c11.8,1.1,23.4,0,34.8-2.5c2.5-0.6,3.5,0,3.3,2.4c-0.1,1.1,0,2.2,0,3.2
				c0,10.5,0,10.5-11.2,12.1c-9.1,1.3-18.1,1.1-27.2,0.3C387.8,784.6,389.5,781.7,389.3,780z M389.7,789.2c0-3.2,2.4-1.3,3.8-1.2
				c11.3,0.7,22.5,1.2,33.5-2.1c2.3-0.7,3.1-0.3,3.2,2c0.3,5.5,0.3,5.4-5.6,5.8c-6.5,0.4-12.9,1.2-19.5,0.8c-4,0-8.1,0-12.1,0
				C388.8,794.5,389.7,791.5,389.7,789.2z M391.4,809.4c0.1-1.8,1.7-1.1,2.7-1c5,0.7,10.1,0.9,15.1,0c1.4-0.3,2.9-0.2,3.8-1.9
				c-1.9-1.1-3.6-0.6-5.3-0.7c-4.5-0.1-8.9-0.1-13.4-0.4c-4.2-0.3-4.1-2.7-3.9-5.3c0.3-3.1,2.9-1.5,4.3-1.4
				c11,1.1,21.9,0.6,32.6-2.1c2.1-0.5,3-0.3,3,1.9c0,1.3,0.1,2.7,0.1,4c0.3,9.8,0.3,9.8-10.2,11.4c-9.2,1.4-18.1-1-27.1-1.7
				C391.2,812,391.3,810.5,391.4,809.4z M424.6,831.5c-2.3,0-4.6-0.2-6.9-0.2c-2.2,0-4.3,0-6.5,0c0,0.1,0,0.2,0,0.2
				c-4.5,0-9,0-13.4,0c-3.4,0-5.2-1.6-5.4-5c-0.7-10.2-0.7-10.1,10-8.4c8.8,1.4,17.5,1.8,25.9-1.8c1.9-0.8,2.9-0.8,3,1.5
				c0.1,2,0.5,4,0.8,6C432.8,828.7,430.1,831.6,424.6,831.5z M497,675.5c-8,10.3-19.4,17.3-28.6,26.4c-6.7,6.6-14,10.9-24.2,9.1
				c-1.4-0.2-2.9,0-4.3,0.1c-5.5,0.3-7.1,1.8-7.9,6.8c-2,13.2-1.8,26.4-1.7,39.7c0,3.3-0.8,4.7-4.6,5.1c-11.2,1.1-22.4,2.4-33.8,2
				c-4.8-0.2-3.9-3-4-5.5c-0.1-3.6,2.7-2,4.3-1.9c7.1,0.8,14,0.5,20.7-2.6c-6.2,0-12.4,0.1-18.6,0c-6.7-0.1-6.7-0.2-7.1-6.6
				c-0.6-8.4-1-16.7-1.8-25.1c-0.6-6.2-2.2-7.4-8.9-7c-2.2,0.1-4.3,0.4-6.5,0.7c-2.1,0.4-4.2,0.9-6.4,1.4c-1.3-12.8-1.4-25.4-1-38.1
				c0.1-4.2,5.7-10.2,10.4-11.5c5.3-1.5,8.9,1.2,12.1,4.5c3.3,3.4,4.1,7.6,4.5,12c0.8,10.4,0.9,20.8,0.8,31.2
				c0,6.6,0.6,13.2,1.8,19.7c0.6,3.4,2.1,6.4,6.2,7c4.3,0.7,7.8-0.9,10.9-3.8c7.6-7.4,10.1-16.2,10.2-26.2c0.1-12.5,2.3-25,2-37.6
				c-0.3-10.2,5.1-18.1,12.2-25.1c9.3-9.1,20.5-16.3,30.4-24.8c13.2-11.2,23.3-24.3,31-39.2c5.9-11.4,7.8-23.5,6.6-35.9
				c-1.7-17.6-0.4-35.1-0.8-52.7c-0.8-34.7,1.9-69.5-0.3-104.2c-1.5-24.3-1-48.6-0.7-72.8c0.3-25.4,1.4-50.8,2.8-76.1
				c0.8-13.6,3-27.1,1.5-40.8c-1-9.2-3.2-18.1-7.1-26.6c-4.7-10.1-13.9-16.1-23-22c-16.3-10.5-35.4-14.3-54.2-18.7
				c-24.4-5.7-48.9-11.1-74.1-12.8c-7.1-0.5-14.2-1-21.2-1c-18.4,0-36.8-0.8-55.1-1c-29.6-0.2-58.5,4.3-86.8,11.7
				c-12.2,3.2-24.2,7.6-35.3,13.3c-26.2,13.5-46,32.1-52.5,60.6c-2.7,11.7-2.2,23.3-0.5,35c2.2,14.9,3,29.8,4.1,44.8
				c1.4,19.8,2.6,39.6,3.7,59.4c1.2,22.7-0.6,45.4-1.8,68c-1,19.4-1.7,38.9-2.5,58.3c-0.6,12.7-2,25.3-1.8,38
				c0.5,22.7-0.5,45.3,2.3,68c3.5,28.6,18.5,49.8,43.6,65.4c6.3,3.9,13,7.1,19.3,10.9c21.4,12.8,39.5,28.2,44.8,53.1
				c1.6,7.4,2.1,14.6,2.2,22.1c0.1,9.2,6,14.2,15.8,13.7c2.4-0.1,3.9-1.2,5.6-3c7-7.4,6.4-16,6-24.9c-0.4-8.4-2.6-16.8-0.6-25.4
				c3.4-14.3,18.2-24.9,33.8-23.6c7.4,0.6,12.7,4.9,16.9,10.3c2.6,3.5,4.5,7.3,5.1,11.5c1.5,10.8,2.2,21.7,2.8,33.2
				c-8.9-5-18.2-2.7-27.3-3.1c-2.3-0.1-4.6,0.4-5.6-2.5c-0.5-1.5-2.4-2-4.1-1.6c-1.9,0.4-3.1,1.6-3.3,3.3c-0.6,4.8-1.3,9.7-1.6,14.5
				c-0.6,9-1.1,18.1-1.4,27.1c-0.1,2.6-1,3.3-3.8,3.5c-13.1,1-26.2,2.1-39.4,2c-1.7,0-4,0.8-4.6-0.9c-0.8-2.4-1-5.1-0.9-7.6
				c0.1-1.3,2-0.7,3-0.6c3.9,0.6,7.7,1,11.7,0.8c1.7-0.1,3.5,0.2,5.2-1.3c-2.7-1.6-5.6-1.3-8.3-1.4c-12-0.3-11.9-0.3-14.1-11.2
				c-1.4-7.3-3.1-14.6-4.5-21.9c-0.5-2.3-2.1-3.5-4.2-4.1c-2.7-0.8-5.4-0.7-8.2-0.6c-7.5,0.2-15,0.3-22.6,0.6
				c-2.8,0.1-3.9-1-5.2-3.2C148.7,704,144.5,693,138,683c-5.6-8.5-11.2-17.1-18.5-24.5c-11.1-11.1-17.9-24.4-23.4-38.5
				c-10.3-26.4-13.9-53.6-11.6-81.7c2-24.8,2.9-49.6,4-74.5c1-21.3,1.6-42.7,1.6-64c0-24.4-2.6-48.6-4.6-72.8
				c-1.6-18.3-2.7-36.6-4-55c-0.8-11-2.1-22.1-2.1-33.1c0.1-17.4-0.2-34.9,3.4-52.1C86,170.8,95,157.8,110,148.6
				c19.7-12.1,39.3-24.7,60.7-33.8c17.2-7.3,30.9-17.9,42.4-31.2c6.4-7.3,14.2-8.7,23.6-9.4c33.1-2.4,66.2-3.3,99.3-2.9
				c8.3,0.1,16.5,0.9,24.7,1.7c12.4,1.1,20.3,8.5,27.3,17c3.5,4.3,6.8,8.8,10,13.2c6.4,8.9,15,14.6,26.1,17.5
				c12.1,3.1,24.6,5,36.5,8.9c16,5.3,30.9,12.2,43.7,22.7c12.9,10.6,20.4,24.1,21.6,39.9c1.6,21.7,1.7,43.4-0.2,65.2
				c-2.9,33.4-4.5,66.8-4.4,100.4c0.1,30.1-1,60.3-0.7,90.4c0.2,21.1,1.5,42.1,3.8,63.1c2.6,23.5,6,46.9,5.7,70.6
				C529.9,616.5,518.8,647.5,497,675.5z"/>
			<path id="XMLID_14371_" d="M395.4,531c11.1,0.6,22.2-0.2,33.3-0.8c16-0.8,27.3-9.7,35.8-21.6c8.5-11.9,10.6-25.6,11.3-39.4
				c1.3-26.9-1.5-53.7-0.3-80.6c1.3-29.4,1.4-58.9,2.7-88.3c0.9-19.8,3-39.6,1.2-59.5c-1.2-12.5-8.4-18.5-18.3-21.4
				c-9.2-2.7-18.6-4.1-28.1-4.6c-29.5-1.7-59-1.5-88.5-0.1c-7.6,0.4-15.3,1.5-22.9,1.6c-25.5,0.2-50.9,0.1-76.4,0.1
				c0-0.3,0-0.5,0-0.8c-24.3,0-48.6-0.1-73,0c-8.7,0-17.3,0.9-25.7,3.3c-9.6,2.7-15.8,8.2-17,17.8c-0.5,3.9-1.1,7.8-1.2,11.7
				c-1.4,32.3,0.6,64.6,1.4,96.8c0.5,24.3,1.1,48.6-1,72.9c-1.8,20.5-2.7,41-2.2,61.5c0.4,17.2,9.5,30.5,25.5,36.2
				c8.9,3.2,17.9,6,27.1,8.6c16,4.6,32.5,4.9,49,4.9c40.2,0.1,80.5-0.8,120.7,1.1C364.1,531.2,379.8,530.1,395.4,531z M223.9,525.3
				c-13.9,0.2-27.8-0.5-41.4-3.3c-12-2.5-23.7-6.3-34.5-11.8c-12.7-6.5-17.2-17.8-18-30.5c-0.9-15.5,0-31.1,1.2-46.6
				c3.1-41.8,3-83.7,1.5-125.5c-0.6-16.7-1.1-33.5-0.9-50.2c0.1-7.4,0.3-14.9,1.8-22.2c0.9-4.1,2.6-7.2,7.4-9.9
				c11.7-6.6,24.4-5.6,36.8-5.8c23.4-0.4,46.9-0.1,70.3-0.1c28.9,0.4,58,1.8,86.8-0.3c26.3-1.9,52.5-1.3,78.8-1.5
				c13-0.1,26,0.8,38.9,3.1c5.1,0.9,10.1,2.3,14.7,4.8c6.5,3.6,9.3,8.9,8.7,15.9c-0.8,10.2,0.5,20.4-0.4,30.7
				c-3.8,45.5-4.3,91.2-4.6,136.8c-0.1,18.6,1.6,37.2,0.8,55.9c-0.6,14.3-2.1,28.6-10.5,41.3c-6.1,9.2-14.8,15.4-25.1,19.8
				c-1.7,0.7-3.6,0.9-5.5,1.1c-17.2,1.7-34.3,1.4-51.6,0.7C327.5,525.4,275.7,524.6,223.9,525.3z"/>
			<path id="XMLID_14372_" d="M124.4,190.1c1.3,0.8,2.2-0.8,3-1.8c4.3-5.2,9.3-9.6,15.2-13.1c20.8-12.2,43.4-20.2,67.4-24.9
				c3.4-0.7,6.9,0,10.1-1.9c-6.5-0.1-12.9-0.7-19.3,0.2c-18.6,2.6-35.7,9-51.6,18c-9.3,5.3-17.9,11.4-24.2,20
				C124.1,187.7,122.7,189.1,124.4,190.1z"/>
			<path id="XMLID_14373_" d="M124.2,208.2c5.3,0.8,8.6-2.1,11.7-5.5c13.5-14.6,29.1-24.8,51.2-23.7c9.6,0.5,19.4-0.9,28.3-6.9
				c-12.4,1-24.1,3.4-35.9,3.3c-12.9-0.1-23.5,4.8-33.2,12.2c-4.6,3.5-8.7,7.5-12.4,11.9c-3.7,4.4-7.6,7.1-13.6,4.2
				c-0.7-0.3-1.5-0.4-1.9,0.3c-0.4,0.7,0.1,1.3,0.6,1.8C120.3,207.3,122.2,207.9,124.2,208.2z"/>
			<path id="XMLID_14374_" d="M270.3,164.6c1.5,0.8,3.1,1.4,4.8,1.9c8.5,2.2,17.2,2.1,25.8,0.6c5.6-0.9,11-2.6,14.9-6.9
				c3.7-4,2.4-7.7-3-9.2c-2.4-0.6-4.8-0.9-7.4-0.1c0.2,0.5,0.2,0.7,0.3,0.7c1.9,0.5,3.9,1,5.8,1.5c1.6,0.4,3.7,0.5,4.2,2.4
				c0.5,2.2-1.7,3-3.2,3.8c-12.6,6.2-25.8,6-39.3,3.4c-1.3-0.2-2.7-0.6-3-2c-0.2-1.5,1.1-2.4,2.4-3.1c2.2-1.2,4.4-2.4,6.6-3.5
				c-3.3,0.5-6.3,1.6-9,3.1C266.5,159.4,266.7,162.6,270.3,164.6z"/>
			<path id="XMLID_14375_" d="M117,565.4c0.4,21.7,29.1,58.2,46.9,59.3C139.1,610.8,124.9,590.2,117,565.4z"/>
			<path id="XMLID_14376_" d="M141.1,573c4.7,9.6,9,19.4,16.3,27.5c1.4,1.6,2.7,3.3,4.9,4.1c0.6-1.1,0-1.6-0.4-2.1
				c-10-10.2-15.2-22.9-21.4-35c-2.1-4-4-8.1-7.2-11.5c-1.3-1.4-2.4-3-5.7-3C134.8,558.7,137.7,566,141.1,573z"/>
			<path id="XMLID_14377_" d="M485.8,555.9c-12.9,6.7-26.7,12-40.1,17.8C460.5,570.4,474.8,566.5,485.8,555.9z"/>
			<path id="XMLID_14378_" d="M227.8,658.4c-2.6,2.9-5.1,5.7-9.5,6.4c0.9,1.1,2,1.1,2.6,0.8c10-5.8,20-11.5,32.2-12.6
				C245.9,650.1,232.7,653.1,227.8,658.4z"/>
			<path id="XMLID_14379_" d="M298.9,659.2c-2.1-0.8-4.4-1.3-6.6-1.9c-0.6-0.2-1.6-0.2-1.7,0.7c0,0.4,0.4,0.9,0.8,1.3
				c4.9,4.3,14.2,5.5,20.3,2.7c3.3-1.5,5.9-3.8,8.7-6.6c-3.8,0.8-7.1,1.3-9.9,3.1C306.8,660.8,302.9,660.7,298.9,659.2z"/>
			<path id="XMLID_14380_" d="M236.5,158.2c-1.5,2.1-3.5,3.9-5.2,5.9c-0.6,0.7-1,1.4-0.2,2.1c0.7,0.6,1.4,0.3,1.9-0.2
				c3.2-2.6,6.3-5.3,7.3-9.3c0.5-2,0.4-4.1-1.9-5.3c-3.4-1.7-6.9-2.6-11-1.3c2,2.1,4.5,2.2,6.8,2.7
				C237.8,153.7,238.3,155.6,236.5,158.2z"/>
			<path id="XMLID_14381_" d="M179.1,647.7c8.3,5.9,14.5,13.8,22,20.4C195.9,659.2,189.1,651.9,179.1,647.7z"/>
			<path id="XMLID_14382_" d="M370,655.4c-0.5-1.4-2-0.6-3-0.4c-2.9,0.8-5.8,1.5-8.9,1.6c-3.2,0.1-6.3,0.3-9.5,0.5
				c-1,0.1-2.8-0.1-2.6,1.4c0.1,1.2,1.8,1.2,2.9,1.2c2.2,0.1,4.3,0,6.5,0c4.3-0.2,8.7,0.1,12.7-2C369,657.2,370.4,656.5,370,655.4z"
				/>
			<path id="XMLID_14383_" d="M477.2,175.1c-1.1,4.4-1.9,8.2-3.9,11.6c-2,3.6-4.1,7.1-6.2,10.8C473.2,195.6,480.1,181.1,477.2,175.1
				z"/>
			<path id="XMLID_14384_" d="M456.2,575.7c0.2,0.4,0.3,0.7,0.5,1.1c8.4-1.7,16.4-4.4,23.5-8.9c-0.2-0.4-0.3-0.7-0.5-1.1
				C471.9,569.7,464.1,572.7,456.2,575.7z"/>
			<path id="XMLID_14385_" d="M123.1,539.7c3.2-0.3,5.4-4.1,4.8-8.6c-2.5,1.8-1.4,6.9-5.9,6.4c-4.2-0.5-4.4-4.8-6.6-8.5
				C116.5,536.7,119.2,540.1,123.1,539.7z"/>
			<path id="XMLID_14386_" d="M470,587.3c-4.7,1.5-9.7,2.4-14.5,3.8C461.2,592,465.7,590.8,470,587.3z"/>
			<path id="XMLID_14387_" d="M482.4,191.2c0.2-0.4-0.1-1.2-0.4-1.4c-0.9-0.5-1.7,0-2.1,0.7c-1.5,2.6-3.6,5.1-3.4,8.5
				C479.8,197.3,481,194.2,482.4,191.2z"/>
			<path id="XMLID_14388_" d="M463.7,594.7c-3.8,1.6-7.9,2.1-12.1,4.7C457.2,599.7,462.7,597.4,463.7,594.7z"/>
			<path id="XMLID_14397_" d="M483,549.3c-4.6,1.7-8,5.1-12.3,7.3C475.3,554.9,480.3,553.7,483,549.3z"/>
			<path id="XMLID_14411_" d="M462,581.5c4.7-0.7,9.4-1.3,13.1-4.4c-4.1,0.8-7.6,2.8-11.7,3.6C463,580.8,462.5,581.2,462,581.5z"/>
			<path id="XMLID_14412_" d="M468.8,179c-2.4,2.7-2.9,4.5-1.8,8.3C469.5,183.3,469.9,181.7,468.8,179z"/>
			<path id="XMLID_14413_" d="M473.5,549.8c3.3-0.4,6.1-1.5,7.6-5.3C477.5,545.7,475.5,547.7,473.5,549.8z"/>
			<path id="XMLID_14570_" d="M523.4,587.7c-1.1,0.1-1,1.2-1.1,2c-0.2,4.9-1.1,9.6-2.5,14.3c-7.8,25.6-21,48.5-39.2,68.9
				c-2.7,3.1-5.8,6-7.3,10c0.6-0.4,1.2-0.7,1.7-1.1c2-1.7,4.1-3.4,6-5.3c21.6-21.7,35.5-47.1,43.2-75.7c1-3.7,1-7.5,0.7-11.3
				C524.9,588.7,524.8,587.5,523.4,587.7z"/>
			<path id="XMLID_14571_" d="M520,211.6c0.2,19.9-0.4,39.7-1.5,59.5c-0.4,7.2-0.8,14.5,1.2,21.7c0.3-1.4,0.7-2.9,0.9-4.3
				c2.1-24.6,3.3-49.3,2.6-74.1c-0.4-13.4-3.3-26.2-10.3-38.1c-1-1.6-1.7-3.4-3.5-4.5c0.4,1.6,1,3.1,1.8,4.6
				C517.2,187.5,519.9,199.3,520,211.6z"/>
			<path id="XMLID_14572_" d="M242.9,99.6c-0.8-0.2-1.8-0.2-2.3,0.7c-0.5,1.1,0.3,1.9,1.2,2.3c1.7,0.8,3.4,1.5,5.2,1.8
				c5.5,1.1,11.1,1.7,16.8,1.7c14.4,0.2,28.6-1.3,42.9-2.1c4.6-0.3,9.2-0.5,14.6-2.4c-5.6-1.3-10.3-1.3-14.9-1.4
				C285.3,99.8,264,103.9,242.9,99.6z"/>
			<path id="XMLID_14573_" d="M219,89.3c-0.4,0.3-0.8,0.8-1.1,1.2c-8.2,11-19.4,18.3-32.2,23.9c-10.9,4.7-22,9.1-32.4,14.7
				c-1.7,0.9-3.6,1.6-4.7,3.3c1.4,0.6,2.5,0,3.5-0.4c15.5-5.6,30.8-11.7,45.4-19.3c7.7-4,14.4-9.1,19.5-15.8c1.5-2,2.8-4.1,4.1-6.2
				c0.5-0.8,1.3-1.9,0.2-2.6C220.1,87.4,219.7,88.8,219,89.3z"/>
			<path id="XMLID_14579_" d="M340.6,82.1c-12.1-0.8-24.3-0.4-36.3,1.7c-1,0.2-2.8-0.1-2.7,1.3c0.1,1.5,1.9,1.3,3.1,1.3
				c5.8,0,11.6,0,17.3,0c0-0.2,0-0.4,0-0.5c5.6,0,11.3,0,16.9,0c3.1,0,6,0.8,8.2,3.1c2.9,2.9,2.4,5.6-1.4,7.4
				c-2.5,1.1-5,2.1-7.5,3.1c-0.8,0.3-1.8,0.7-1.5,1.7c0.3,1,1.4,0.9,2.2,0.8c4.2-0.4,8.3-1.3,11.9-3.4c2.2-1.3,2.9-3.2,2.7-5.6
				C353.1,87,348.3,82.6,340.6,82.1z"/>
			<path id="XMLID_14580_" d="M128.3,658.7c9.9,11.9,20.7,23.3,24.7,38.5c0.3,1.1,0.9,2.8,2.5,2.1c1.4-0.6,0.7-2.2,0.3-3.3
				c-2.5-8.2-5.9-16.1-11.5-22.9c-8.3-10.2-17.4-19.8-24.8-30.6c-2.3-3.3-4.8-6.5-7.5-10.3c-1.2,2.6,0.2,4,1,5.4
				C117.6,645,122.7,652.1,128.3,658.7z"/>
			<path id="XMLID_14581_" d="M243.7,93.5c4-2.2,8.3-3.7,12.9-4.6c11.5-2.3,23.2-2.7,34.9-1.9c1.3,0.1,2.8,0.6,3.1-1.1
				c0.2-1.4-1.3-1.5-2.4-1.9c-4.8-1.9-9.8-1.9-16.2-1.9c-3.5,0.3-8.3,0.5-12.9,1.3c-7.5,1.3-15.1,2.7-21.4,7.2
				c-1.2,0.8-2.5,2-1.4,3.4C241.5,95.4,242.7,94,243.7,93.5z"/>
			<path id="XMLID_14582_" d="M465,691.8c-5.3,4.6-10.5,9.3-15.8,14c7.8-2,12.8-7.1,17.8-12.2c0.5-0.6,1.2-1.3,0.3-2.1
				C466.4,690.8,465.6,691.3,465,691.8z"/>
			<path id="XMLID_14583_" d="M517,337.1c1.7-6.7,1.3-13.4,0.2-20C515.4,323.7,515.1,330.4,517,337.1z"/>
			<path id="XMLID_14588_" d="M519,540.1c0.3,4.1,0.1,8.3,2.1,12.5c1.9-4.4,1.5-8.6,1.2-12.7c-0.1-1-0.4-2.1-1.6-2.1
				C519.2,537.8,519,539,519,540.1z"/>
			<path id="XMLID_14589_" d="M86.8,190.8c-2.5,10-2.2,20.2-2.6,30.3C85.1,211,85.5,200.8,86.8,190.8z"/>
			<path id="XMLID_14591_" d="M163.9,709.5c2.7,1.7,5.4,2.3,9.3,0.4c-2.9-1.8-5.6-2.2-8.1-3.1c-0.8-0.3-1.8-0.4-2.2,0.6
				C162.6,708.4,163.2,709.1,163.9,709.5z"/>
			<path id="XMLID_14592_" d="M297.1,763.3c-1.1-0.1-1.4,0.8-1.5,1.6c-0.7,7.9-1,15.9-0.1,23.8c0.1,0.4,0.6,0.8,1.1,1.6
				c0.4-0.5,0.8-0.9,0.8-1.2c0.3-8.1,0.5-16.2,0.8-24.3C298.2,764.2,297.8,763.4,297.1,763.3z"/>
			<path id="XMLID_14599_" d="M388.9,327.4c-13.2-46.9-73.2-23.8-90.7,8.3c-8.3-16.8-25.2-29.7-44.6-34.1
				c-21.5-4.9-42.1,7.3-46.8,27.6c-4.9,21.3,8.7,43.6,22.6,59.5c19.2,21.8,45,38.3,70.5,53c0.1,0,0.1,0,0.2,0.1
				c0.5,0.3,1.2,0.5,1.9,0.4c0,0,0,0,0,0c0.1,0,0.2,0,0.3-0.1c0.1,0,0.2,0,0.4-0.1c0.1,0,0.2-0.1,0.3-0.1c0.1,0,0.2-0.1,0.2-0.1
				c0.1,0,0.1,0,0.2-0.1c24.2-14.1,46-31.4,63.4-52.6C380.6,372.2,395.2,349.6,388.9,327.4z M380.8,353.2
				c-11.8,34.7-47.2,63.1-79.2,82c-33.4-19.4-72.2-43.9-85.6-80.2c-8.3-22.4,2.7-53.1,33.8-47.8c20.5,3.5,38.7,18.8,44.8,37.2
				c0.6,1.7,2.1,2.3,3.5,2.2c1.5,0.1,3-0.5,3.5-2.2c6.1-18.4,24.3-33.6,44.8-37.2C375.9,302.2,388.3,330.9,380.8,353.2z"/>
		</g>
	</g>
</g>
<text id="XMLID_14302_" transform="matrix(1.0714 0 0 1 -389.8496 1304.3379)" style="font-family:'Rubik-Italic'; font-size:39.0592px;">GIVE BLOOD, SAVE A LIFE</text>
<line id="XMLID_14298_" class="st11" x1="648.4" y1="557" x2="1261.8" y2="557"/>
<polygon style="fill:none;" points="588.8,1360.9 597.8,1360.9 597.8,1360.9 588.8,1360.9 "/>
<text transform="matrix(0.562 0 0 1 698.8291 632.4219)" class="st12 st13 st14">GIVE BLOOD, SAVE A LIFE</text>
</svg>
